{"glyphs":{"0":{"ha":622,"x_min":78,"x_max":544,"o":"m 435 725 q 311 851 435 851 q 188 725 188 851 l 188 211 q 311 85 188 85 q 435 211 435 85 l 435 725 m 78 726 q 135 889 78 828 q 311 950 193 950 q 487 889 429 950 q 544 726 544 828 l 544 208 q 487 47 544 107 q 311 -14 429 -14 q 135 47 193 -14 q 78 208 78 107 l 78 726 z "},"1":{"ha":392,"x_min":15,"x_max":299,"o":"m 299 936 l 299 0 l 189 0 l 189 819 l 15 694 l 15 817 l 181 936 l 299 936 z "},"2":{"ha":563,"x_min":58,"x_max":500,"o":"m 249 943 q 499 742 499 943 l 499 663 q 474 537 497 585 q 392 449 450 489 l 282 371 q 192 291 215 324 q 169 197 169 258 l 169 100 l 500 100 l 500 0 l 58 0 l 58 204 q 94 341 58 290 q 204 443 131 392 l 318 525 q 374 586 358 554 q 389 672 389 618 l 389 735 q 359 815 389 788 q 244 842 329 842 q 74 813 158 842 l 74 918 q 249 943 149 943 z "},"3":{"ha":549,"x_min":36,"x_max":471,"o":"m 214 943 q 465 739 465 943 l 465 643 q 364 471 465 511 q 471 307 471 439 l 471 197 q 408 47 471 100 q 224 -7 346 -7 q 36 19 101 -7 l 36 125 q 207 93 118 93 q 328 121 296 93 q 361 204 361 149 l 361 296 q 236 419 361 419 l 140 419 l 140 519 l 236 519 q 330 552 303 519 q 357 646 357 585 l 357 733 q 326 815 357 788 q 208 843 294 843 q 54 819 121 843 l 54 924 q 214 943 117 943 z "},"4":{"ha":571,"x_min":14,"x_max":564,"o":"m 564 269 l 564 174 l 469 174 l 469 0 l 364 0 l 364 174 l 14 174 l 14 274 l 307 936 l 469 936 l 469 269 l 564 269 m 367 269 l 367 842 l 115 269 l 367 269 z "},"5":{"ha":585,"x_min":78,"x_max":514,"o":"m 83 936 l 492 936 l 492 835 l 192 835 l 192 553 q 303 560 258 560 q 462 505 410 560 q 514 351 514 450 l 514 196 q 451 47 514 100 q 272 -7 388 -7 q 78 22 156 -7 l 78 128 q 256 93 176 93 q 406 203 406 93 l 406 342 q 379 431 406 403 q 283 458 353 458 q 83 443 251 458 l 83 936 z "},"6":{"ha":606,"x_min":78,"x_max":544,"o":"m 435 381 q 318 490 435 490 q 188 460 242 490 l 188 210 q 311 83 188 83 q 435 210 435 83 l 435 381 m 78 719 q 140 881 78 819 q 333 943 203 943 q 510 918 428 943 l 510 814 q 335 842 436 842 q 188 713 188 842 l 188 560 q 340 588 246 588 q 489 535 433 588 q 544 386 544 483 l 544 208 q 487 47 544 107 q 311 -14 429 -14 q 135 47 193 -14 q 78 208 78 107 l 78 719 z "},"7":{"ha":465,"x_min":7,"x_max":433,"o":"m 7 936 l 433 936 l 433 849 l 338 551 q 281 336 299 425 q 264 138 264 247 l 264 0 l 153 0 l 153 143 q 171 347 153 256 q 229 561 189 438 l 315 836 l 7 836 l 7 936 z "},"8":{"ha":635,"x_min":78,"x_max":557,"o":"m 554 732 l 554 640 q 460 467 554 513 q 557 292 557 419 l 557 203 q 497 45 557 104 q 317 -14 436 -14 q 138 45 199 -14 q 78 203 78 104 l 78 292 q 175 467 78 419 q 82 640 82 514 l 82 732 q 140 891 82 832 q 317 950 199 950 q 495 891 436 950 q 554 732 554 832 m 190 732 l 190 638 q 318 511 190 511 q 446 638 446 511 l 446 732 q 318 854 446 854 q 190 732 190 854 m 449 204 l 449 294 q 317 421 449 421 q 186 294 186 421 l 186 204 q 317 82 186 82 q 449 204 449 82 z "},"9":{"ha":606,"x_min":61,"x_max":528,"o":"m 418 725 q 294 853 418 853 q 171 725 171 853 l 171 550 q 289 433 171 433 q 418 464 368 433 l 418 725 m 61 726 q 119 889 61 828 q 294 950 176 950 q 470 889 413 950 q 528 726 528 828 l 528 207 q 463 51 528 110 q 283 -7 399 -7 q 89 21 167 -7 l 89 125 q 269 93 174 93 q 418 214 418 93 l 418 365 q 268 338 364 338 q 117 392 172 338 q 61 543 61 446 l 61 726 z "},"\r":{"ha":0,"x_min":0,"x_max":0,"o":""}," ":{"ha":263,"x_min":0,"x_max":0,"o":""},"!":{"ha":356,"x_min":111,"x_max":243,"o":"m 177 -8 q 144 -8 177 -8 q 111 59 111 -8 q 177 126 111 126 q 243 59 243 126 q 177 -8 243 -8 m 118 936 l 236 936 l 222 246 l 132 246 l 118 936 z "},"\"":{"ha":501,"x_min":113,"x_max":386,"o":"m 113 1039 l 208 1039 l 208 747 l 113 747 l 113 1039 m 290 1039 l 386 1039 l 386 747 l 290 747 l 290 1039 z "},"#":{"ha":750,"x_min":51,"x_max":713,"o":"m 713 594 l 594 594 l 554 319 l 660 319 l 660 235 l 542 235 l 508 0 l 414 0 l 447 235 l 256 235 l 222 0 l 126 0 l 161 235 l 51 235 l 51 319 l 174 319 l 213 594 l 104 594 l 104 679 l 225 679 l 260 914 l 354 914 l 321 679 l 513 679 l 546 914 l 640 914 l 607 679 l 713 679 l 713 594 m 460 319 l 500 594 l 308 594 l 268 319 l 460 319 z "},"$":{"ha":546,"x_min":38,"x_max":503,"o":"m 503 274 l 503 197 q 308 -3 503 26 l 308 -100 l 207 -100 l 207 -7 q 46 21 106 -1 l 46 126 q 233 94 131 94 q 393 206 393 94 l 393 260 q 377 329 393 304 q 318 378 361 354 l 160 465 q 38 661 38 531 l 38 743 q 83 874 38 824 q 219 939 129 925 l 219 1024 l 321 1024 l 321 942 q 465 919 407 938 l 465 815 q 286 842 393 842 q 149 738 149 842 l 149 675 q 167 601 149 628 q 229 549 185 574 l 390 458 q 503 274 503 397 z "},"%":{"ha":808,"x_min":49,"x_max":760,"o":"m 443 190 q 601 392 443 392 q 720 339 681 392 q 760 190 760 286 q 720 41 760 94 q 601 -12 681 -12 q 483 41 522 -12 q 443 190 443 94 m 601 67 q 637 67 601 67 q 674 190 674 67 q 601 313 674 313 q 528 190 528 313 q 601 67 528 67 m 88 597 q 68 623 88 597 q 49 746 49 650 q 88 895 49 842 q 207 949 128 949 q 326 895 286 949 q 365 746 365 842 q 326 597 365 650 q 207 543 286 543 q 88 597 128 543 m 206 622 q 243 622 206 622 q 279 746 279 622 q 206 869 279 869 q 133 746 133 869 q 206 622 133 622 m 554 936 l 636 936 l 254 0 l 174 0 l 554 936 z "},"&":{"ha":642,"x_min":74,"x_max":622,"o":"m 622 529 l 622 433 l 563 433 l 563 211 q 501 49 563 111 q 320 -12 439 -12 q 138 49 201 -12 q 74 211 74 111 l 74 311 q 181 483 74 444 q 75 656 75 524 l 75 733 q 141 887 75 831 q 343 943 207 943 q 517 918 442 943 l 517 814 q 346 842 436 842 q 220 811 256 842 q 185 726 185 781 l 185 657 q 303 529 185 529 l 456 529 l 456 613 l 563 613 l 563 529 l 622 529 m 456 213 l 456 433 l 304 433 q 183 308 183 433 l 183 213 q 217 119 183 153 q 321 85 251 85 q 456 213 456 85 z "},"'":{"ha":324,"x_min":113,"x_max":211,"o":"m 113 1039 l 211 1039 l 211 747 l 113 747 l 113 1039 z "},"(":{"ha":404,"x_min":94,"x_max":324,"o":"m 226 784 q 208 699 226 784 q 190 453 190 614 q 226 122 190 292 q 324 -190 263 -49 l 228 -190 q 131 113 167 -61 q 94 453 94 288 q 131 792 94 618 q 228 1094 167 965 l 324 1094 q 226 784 263 954 z "},")":{"ha":404,"x_min":81,"x_max":310,"o":"m 176 1094 q 274 791 238 964 q 310 453 310 618 q 274 114 310 289 q 176 -190 238 -61 l 81 -190 q 177 121 142 -50 q 213 453 213 292 q 177 785 213 614 q 81 1094 142 956 l 176 1094 z "},"*":{"ha":696,"x_min":79,"x_max":619,"o":"m 301 958 l 301 1097 l 397 1097 l 397 958 q 386 879 397 908 q 458 915 411 900 l 590 958 l 619 867 l 489 824 q 408 810 447 810 q 464 753 438 790 l 546 640 l 469 583 l 388 696 q 350 767 360 733 q 313 696 340 733 l 231 583 l 153 640 l 235 751 q 290 810 267 794 q 211 824 253 810 l 79 867 l 108 957 l 240 915 q 313 879 288 900 q 301 958 301 915 z "},"+":{"ha":619,"x_min":58,"x_max":561,"o":"m 561 497 l 561 407 l 360 407 l 360 200 l 260 200 l 260 407 l 58 407 l 58 497 l 260 497 l 260 703 l 360 703 l 360 497 l 561 497 z "},",":{"ha":213,"x_min":10,"x_max":175,"o":"m 122 126 q 175 78 175 126 q 74 -176 175 17 l 10 -176 l 68 126 l 122 126 z "},"-":{"ha":328,"x_min":56,"x_max":279,"o":"m 56 497 l 279 497 l 279 407 l 56 407 l 56 497 z "},".":{"ha":222,"x_min":44,"x_max":176,"o":"m 110 -8 q 77 -8 110 -8 q 44 59 44 -8 q 110 126 44 126 q 176 59 176 126 q 110 -8 176 -8 z "},"/":{"ha":536,"x_min":46,"x_max":511,"o":"m 414 1096 l 511 1096 l 142 -190 l 46 -190 l 414 1096 z "},":":{"ha":289,"x_min":44,"x_max":176,"o":"m 110 -8 q 77 -8 110 -8 q 44 59 44 -8 q 110 126 44 126 q 176 59 176 126 q 110 -8 176 -8 m 110 478 q 77 478 110 478 q 44 546 44 478 q 110 614 44 614 q 176 546 176 614 q 110 478 176 478 z "},";":{"ha":286,"x_min":10,"x_max":176,"o":"m 110 478 q 77 478 110 478 q 44 546 44 478 q 110 614 44 614 q 176 546 176 614 q 110 478 176 478 m 122 126 q 175 78 175 126 q 74 -176 175 17 l 10 -176 l 68 126 l 122 126 z "},"<":{"ha":646,"x_min":58,"x_max":565,"o":"m 565 703 l 565 606 l 147 451 l 565 299 l 565 200 l 58 394 l 58 508 l 565 703 z "},"=":{"ha":615,"x_min":53,"x_max":560,"o":"m 53 371 l 560 371 l 560 279 l 53 279 l 53 371 m 53 622 l 560 622 l 560 532 l 53 532 l 53 622 z "},">":{"ha":643,"x_min":75,"x_max":583,"o":"m 75 703 l 583 508 l 583 394 l 75 200 l 75 299 l 494 451 l 75 606 l 75 703 z "},"?":{"ha":532,"x_min":47,"x_max":465,"o":"m 201 -8 q 168 -8 201 -8 q 135 59 135 -8 q 201 126 135 126 q 267 59 267 126 q 201 -8 267 -8 m 214 950 q 465 750 465 950 l 465 615 q 254 401 465 406 l 247 246 l 154 246 l 147 490 l 225 490 q 358 617 358 490 l 358 743 q 328 823 358 797 q 211 849 297 849 q 47 824 125 849 l 47 929 q 214 950 122 950 z "},"@":{"ha":1199,"x_min":99,"x_max":1111,"o":"m 725 -160 l 604 -160 q 215 -22 331 -160 q 99 381 99 117 q 217 785 99 646 q 608 925 335 925 q 996 792 881 925 q 1111 393 1111 658 q 1053 120 1111 204 q 883 36 994 36 q 728 106 771 36 q 578 65 667 65 q 401 222 401 65 l 401 244 q 440 353 401 315 q 556 417 478 392 l 700 463 l 700 540 q 679 608 700 585 q 594 632 658 632 q 433 607 531 632 l 433 690 q 603 713 522 713 q 790 543 790 713 l 790 228 q 814 146 790 171 q 894 121 838 121 q 1015 393 1015 121 q 926 728 1015 619 q 606 838 838 838 q 285 724 375 838 q 196 383 196 610 q 285 42 196 156 q 606 -72 375 -72 l 725 -72 l 725 -160 m 496 246 l 496 222 q 582 144 496 144 q 686 172 647 144 l 700 181 l 700 378 l 585 343 q 516 309 536 328 q 496 246 496 290 z "},"A":{"ha":615,"x_min":22,"x_max":593,"o":"m 485 0 l 429 257 l 185 257 l 131 0 l 22 0 l 231 936 l 385 936 l 593 0 l 485 0 m 204 351 l 410 351 l 306 832 l 204 351 z "},"B":{"ha":653,"x_min":92,"x_max":575,"o":"m 567 724 l 567 644 q 464 472 567 511 q 575 297 575 435 l 575 213 q 518 56 575 111 q 350 0 461 0 l 92 0 l 92 936 l 342 936 q 510 881 453 936 q 567 724 567 825 m 331 842 l 201 842 l 201 519 l 331 519 q 458 640 458 519 l 458 719 q 331 842 458 842 m 467 215 l 467 300 q 339 422 467 422 l 201 422 l 201 94 l 339 94 q 467 215 467 94 z "},"C":{"ha":550,"x_min":78,"x_max":500,"o":"m 78 742 q 142 890 78 838 q 335 943 206 943 q 497 921 417 943 l 497 819 q 339 843 424 843 q 222 816 254 843 q 189 736 189 789 l 189 200 q 222 119 189 146 q 336 92 254 92 q 500 115 418 92 l 500 15 q 317 -7 431 -7 q 141 45 204 -7 q 78 193 78 97 l 78 742 z "},"D":{"ha":650,"x_min":92,"x_max":572,"o":"m 463 724 q 338 842 463 842 l 201 842 l 201 96 l 338 96 q 463 218 463 96 l 463 724 m 92 936 l 346 936 q 515 880 457 936 q 572 726 572 824 l 572 214 q 517 58 572 115 q 350 0 461 0 l 92 0 l 92 936 z "},"E":{"ha":556,"x_min":92,"x_max":506,"o":"m 92 936 l 506 936 l 506 839 l 201 839 l 201 521 l 465 521 l 465 424 l 201 424 l 201 96 l 506 96 l 506 0 l 92 0 l 92 936 z "},"F":{"ha":519,"x_min":92,"x_max":493,"o":"m 92 936 l 493 936 l 493 839 l 203 839 l 203 500 l 478 500 l 478 403 l 203 403 l 203 0 l 92 0 l 92 936 z "},"G":{"ha":625,"x_min":78,"x_max":544,"o":"m 78 735 q 143 888 78 832 q 343 943 208 943 q 514 919 435 943 l 514 814 q 349 842 436 842 q 225 813 261 842 q 189 728 189 783 l 189 200 q 318 92 189 92 q 436 118 397 92 l 436 464 l 544 464 l 544 49 q 328 -7 449 -7 q 78 193 78 -7 l 78 735 z "},"H":{"ha":692,"x_min":92,"x_max":600,"o":"m 489 936 l 600 936 l 600 0 l 489 0 l 489 410 l 203 410 l 203 0 l 92 0 l 92 936 l 203 936 l 203 508 l 489 508 l 489 936 z "},"I":{"ha":294,"x_min":92,"x_max":203,"o":"m 92 936 l 203 936 l 203 0 l 92 0 l 92 936 z "},"J":{"ha":296,"x_min":1,"x_max":204,"o":"m 94 936 l 204 936 l 204 276 q 157 -62 204 101 l 114 -207 l 1 -207 l 43 -61 q 94 275 94 118 l 94 936 z "},"K":{"ha":608,"x_min":92,"x_max":586,"o":"m 92 936 l 201 936 l 201 0 l 92 0 l 92 936 m 457 936 l 575 936 l 381 471 l 586 0 l 465 0 l 264 468 l 457 936 z "},"L":{"ha":490,"x_min":92,"x_max":483,"o":"m 92 936 l 203 936 l 203 94 l 483 94 l 483 0 l 92 0 l 92 936 z "},"M":{"ha":854,"x_min":92,"x_max":761,"o":"m 761 936 l 761 0 l 657 0 l 657 476 q 667 754 657 638 l 481 249 l 371 249 l 185 754 q 196 478 196 625 l 196 0 l 92 0 l 92 936 l 219 936 l 426 360 l 633 936 l 761 936 z "},"N":{"ha":699,"x_min":92,"x_max":606,"o":"m 510 174 l 497 489 l 497 936 l 606 936 l 606 0 l 483 0 q 240 625 279 518 q 188 763 200 732 l 200 449 l 200 0 l 92 0 l 92 936 l 215 936 l 400 468 q 462 301 426 399 q 510 174 497 204 z "},"O":{"ha":639,"x_min":78,"x_max":560,"o":"m 451 724 q 319 850 451 850 q 188 724 188 850 l 188 213 q 319 85 188 85 q 451 213 451 85 l 451 724 m 78 726 q 139 888 78 826 q 319 950 200 950 q 499 889 439 950 q 560 726 560 828 l 560 208 q 499 47 560 108 q 319 -14 439 -14 q 139 47 200 -14 q 78 208 78 108 l 78 726 z "},"P":{"ha":614,"x_min":92,"x_max":554,"o":"m 446 718 q 321 839 446 839 l 201 839 l 201 413 l 321 413 q 446 533 446 413 l 446 718 m 92 936 l 328 936 q 497 880 439 936 q 554 726 554 824 l 554 526 q 497 373 554 429 q 328 317 439 317 l 201 317 l 201 0 l 92 0 l 92 936 z "},"Q":{"ha":639,"x_min":78,"x_max":625,"o":"m 319 -14 q 139 47 200 -14 q 78 208 78 108 l 78 726 q 139 888 78 826 q 319 950 200 950 q 499 889 439 950 q 560 726 560 828 l 560 208 q 474 26 560 86 l 625 -137 l 490 -137 l 374 -10 q 319 -14 349 -14 m 188 724 l 188 213 q 319 85 188 85 q 451 213 451 85 l 451 724 q 319 850 451 850 q 188 724 188 850 z "},"R":{"ha":638,"x_min":92,"x_max":585,"o":"m 201 372 l 201 0 l 92 0 l 92 936 l 328 936 q 497 880 439 936 q 554 726 554 824 l 554 585 q 436 389 554 433 l 585 0 l 464 0 l 329 372 l 201 372 m 201 840 l 201 465 l 321 465 q 446 586 446 465 l 446 721 q 321 840 446 840 l 201 840 z "},"S":{"ha":546,"x_min":38,"x_max":503,"o":"m 38 743 q 100 890 38 838 q 276 943 163 943 q 465 919 389 943 l 465 815 q 286 842 393 842 q 149 738 149 842 l 149 675 q 167 601 149 628 q 229 549 185 574 l 390 458 q 503 274 503 397 l 503 197 q 436 47 503 100 q 247 -7 369 -7 q 46 21 124 -7 l 46 126 q 233 94 131 94 q 393 206 393 94 l 393 260 q 377 329 393 304 q 318 378 361 354 l 160 465 q 38 661 38 531 l 38 743 z "},"T":{"ha":494,"x_min":13,"x_max":483,"o":"m 483 936 l 483 839 l 303 839 l 303 0 l 193 0 l 193 839 l 13 839 l 13 936 l 483 936 z "},"U":{"ha":651,"x_min":85,"x_max":565,"o":"m 457 936 l 565 936 l 565 208 q 505 47 565 108 q 325 -14 444 -14 q 145 47 206 -14 q 85 208 85 108 l 85 936 l 194 936 l 194 213 q 326 85 194 85 q 457 213 457 85 l 457 936 z "},"V":{"ha":592,"x_min":17,"x_max":575,"o":"m 461 936 l 575 936 l 374 0 l 219 0 l 17 936 l 129 936 q 258 307 229 461 q 297 104 286 153 q 332 290 307 153 q 367 478 357 426 l 461 936 z "},"W":{"ha":843,"x_min":26,"x_max":817,"o":"m 714 936 l 817 936 l 665 0 l 540 0 q 422 767 438 617 q 382 458 410 615 l 306 0 l 178 0 l 26 936 l 131 936 l 217 403 l 249 153 q 283 404 264 279 l 368 936 l 476 936 l 561 403 l 594 156 q 628 403 611 301 l 714 936 z "},"X":{"ha":554,"x_min":17,"x_max":538,"o":"m 419 936 l 538 936 l 333 467 l 538 0 l 418 0 l 278 344 l 136 0 l 17 0 l 219 467 l 17 936 l 136 936 l 278 589 l 419 936 z "},"Y":{"ha":578,"x_min":6,"x_max":574,"o":"m 344 0 l 235 0 l 235 314 l 6 936 l 118 936 l 207 693 q 290 439 251 565 q 334 572 304 483 q 374 692 364 661 l 463 936 l 574 936 l 344 314 l 344 0 z "},"Z":{"ha":536,"x_min":38,"x_max":497,"o":"m 46 936 l 497 936 l 497 843 l 153 94 l 493 94 l 493 0 l 38 0 l 38 94 l 381 840 l 46 840 l 46 936 z "},"[":{"ha":421,"x_min":114,"x_max":378,"o":"m 207 -106 l 378 -106 l 378 -192 l 114 -192 l 114 1103 l 378 1103 l 378 1017 l 207 1017 l 207 -106 z "},"\\":{"ha":557,"x_min":46,"x_max":519,"o":"m 46 1103 l 144 1103 l 519 -192 l 421 -192 l 46 1103 z "},"]":{"ha":421,"x_min":43,"x_max":307,"o":"m 43 1103 l 307 1103 l 307 -192 l 43 -192 l 43 -106 l 214 -106 l 214 1017 l 43 1017 l 43 1103 z "},"^":{"ha":457,"x_min":4,"x_max":447,"o":"m 447 529 l 342 529 l 226 872 l 110 529 l 4 529 l 157 932 l 296 932 l 447 529 z "},"_":{"ha":674,"x_min":4,"x_max":669,"o":"m 4 -15 l 669 -15 l 669 -103 l 4 -103 l 4 -15 z "},"`":{"ha":486,"x_min":167,"x_max":319,"o":"m 167 1004 l 265 1004 l 319 854 l 251 854 l 167 1004 z "},"a":{"ha":592,"x_min":42,"x_max":507,"o":"m 150 226 l 150 185 q 174 108 150 133 q 269 83 199 83 q 400 133 339 83 l 400 383 l 251 342 q 172 299 193 325 q 150 226 150 274 m 81 774 q 276 800 160 800 q 507 593 507 800 l 507 0 l 403 0 l 403 57 q 333 11 369 26 q 235 -4 296 -4 q 42 186 42 -4 l 42 231 q 211 425 42 378 l 401 478 l 401 594 q 371 674 400 649 q 249 700 342 700 q 81 672 156 700 l 81 774 z "},"b":{"ha":624,"x_min":92,"x_max":544,"o":"m 435 599 q 339 694 435 694 q 201 663 281 694 l 201 100 l 313 100 q 435 215 435 100 l 435 599 m 92 1004 l 201 1004 l 201 764 q 366 797 286 797 q 495 749 446 797 q 544 614 544 701 l 544 206 q 489 53 544 106 q 339 0 433 0 l 92 0 l 92 1004 z "},"c":{"ha":515,"x_min":78,"x_max":468,"o":"m 78 597 q 315 800 78 800 q 465 781 403 800 l 465 681 q 324 699 401 699 q 217 673 247 699 q 188 592 188 647 l 188 200 q 217 119 188 144 q 327 93 247 93 q 468 115 407 93 l 468 13 q 315 -7 390 -7 q 78 194 78 -7 l 78 597 z "},"d":{"ha":622,"x_min":78,"x_max":531,"o":"m 421 694 l 314 694 q 188 579 188 694 l 188 203 q 293 94 188 94 q 421 139 374 94 l 421 694 m 421 1004 l 531 1004 l 531 0 l 424 0 l 424 47 q 270 -4 363 -4 q 128 47 178 -4 q 78 193 78 99 l 78 581 q 137 738 78 682 q 297 793 196 793 l 421 793 l 421 1004 z "},"e":{"ha":606,"x_min":78,"x_max":536,"o":"m 78 204 l 78 590 q 135 748 78 689 q 308 807 193 807 q 480 748 424 807 q 536 590 536 689 l 536 343 l 186 343 l 186 210 q 224 121 186 150 q 349 92 261 92 q 513 117 438 92 l 513 15 q 343 -7 432 -7 q 78 204 78 -7 m 186 433 l 431 433 l 431 589 q 308 713 431 713 q 186 589 186 713 l 186 433 z "},"f":{"ha":382,"x_min":42,"x_max":382,"o":"m 121 838 q 171 980 121 929 q 318 1031 221 1031 q 382 1025 343 1031 l 382 933 q 328 939 361 939 q 231 838 231 939 l 231 793 l 374 793 l 374 701 l 231 701 l 231 0 l 121 0 l 121 701 l 42 701 l 42 793 l 121 793 l 121 838 z "},"g":{"ha":621,"x_min":50,"x_max":594,"o":"m 594 751 l 549 751 q 488 736 514 751 q 531 603 531 685 l 531 490 q 472 342 531 396 q 297 286 414 288 q 224 217 224 286 q 242 171 224 185 q 310 157 261 157 l 390 157 q 583 -7 583 157 l 583 -26 q 328 -207 583 -207 l 272 -207 q 50 -162 128 -207 l 50 -58 q 271 -112 142 -112 l 318 -112 q 479 -25 479 -112 l 479 -12 q 460 44 479 25 q 383 64 440 64 l 299 64 q 125 183 125 64 l 125 206 q 144 267 125 242 q 196 299 164 292 q 58 490 58 338 l 58 603 q 117 753 58 699 q 282 807 176 807 q 446 772 388 807 q 574 856 472 856 l 594 856 l 594 751 m 294 715 q 167 601 167 715 l 167 492 q 294 379 167 379 q 421 492 421 379 l 421 601 q 391 687 421 658 q 294 715 361 715 z "},"h":{"ha":628,"x_min":92,"x_max":543,"o":"m 92 1004 l 201 1004 l 201 763 q 358 796 276 796 q 492 749 440 796 q 543 614 543 703 l 543 0 l 432 0 l 432 599 q 338 694 432 694 q 201 661 265 694 l 201 0 l 92 0 l 92 1004 z "},"i":{"ha":294,"x_min":81,"x_max":213,"o":"m 147 876 q 114 876 147 876 q 81 944 81 876 q 147 1011 81 1011 q 213 944 213 1011 q 147 876 213 876 m 92 786 l 201 786 l 201 0 l 92 0 l 92 786 z "},"j":{"ha":294,"x_min":-33,"x_max":213,"o":"m 147 876 q 114 876 147 876 q 81 944 81 876 q 147 1011 81 1011 q 213 944 213 1011 q 147 876 213 876 m 92 786 l 201 786 l 201 -7 q 152 -156 201 -103 q 8 -210 103 -210 q -33 -206 -12 -210 l -33 -107 q 3 -110 -11 -110 q 71 -85 50 -110 q 92 -7 92 -61 l 92 786 z "},"k":{"ha":563,"x_min":92,"x_max":542,"o":"m 92 1004 l 200 1004 l 200 0 l 92 0 l 92 1004 m 413 793 l 528 793 l 358 413 l 542 0 l 422 0 l 244 414 l 413 793 z "},"l":{"ha":294,"x_min":92,"x_max":201,"o":"m 92 1004 l 201 1004 l 201 0 l 92 0 l 92 1004 z "},"m":{"ha":969,"x_min":92,"x_max":883,"o":"m 501 740 q 692 796 599 796 q 834 749 785 796 q 883 614 883 701 l 883 0 l 774 0 l 774 599 q 678 694 774 694 q 536 651 604 694 q 543 600 543 626 l 543 0 l 432 0 l 432 599 q 338 694 432 694 q 201 660 271 694 l 201 0 l 92 0 l 92 793 l 197 793 l 197 757 q 370 796 290 796 q 501 740 450 796 z "},"n":{"ha":628,"x_min":92,"x_max":543,"o":"m 197 757 q 367 796 290 796 q 493 749 443 796 q 543 614 543 701 l 543 0 l 432 0 l 432 599 q 338 694 432 694 q 201 660 271 694 l 201 0 l 92 0 l 92 793 l 197 793 l 197 757 z "},"o":{"ha":615,"x_min":78,"x_max":536,"o":"m 428 589 q 307 711 428 711 q 186 589 186 711 l 186 204 q 307 82 186 82 q 428 204 428 82 l 428 589 m 78 590 q 135 748 78 689 q 307 807 192 807 q 479 748 422 807 q 536 590 536 689 l 536 201 q 479 44 536 103 q 307 -14 422 -14 q 135 44 192 -14 q 78 201 78 103 l 78 590 z "},"p":{"ha":624,"x_min":92,"x_max":544,"o":"m 435 599 q 338 694 435 694 q 201 660 271 694 l 201 100 l 313 100 q 435 217 435 100 l 435 599 m 197 756 q 367 796 290 796 q 494 749 444 796 q 544 614 544 701 l 544 207 q 488 54 544 108 q 339 0 432 0 l 201 0 l 201 -207 l 92 -207 l 92 793 l 197 793 l 197 756 z "},"q":{"ha":622,"x_min":78,"x_max":531,"o":"m 421 694 l 317 694 q 188 572 188 694 l 188 206 q 294 96 188 96 q 421 139 372 96 l 421 694 m 301 793 l 531 793 l 531 -207 l 422 -207 l 422 36 q 272 -3 365 -3 q 128 49 178 -3 q 78 200 78 101 l 78 575 q 138 735 78 676 q 301 793 197 793 z "},"r":{"ha":397,"x_min":92,"x_max":390,"o":"m 357 797 l 390 797 l 390 693 l 346 693 q 279 681 306 693 q 201 633 253 668 l 201 0 l 92 0 l 92 793 l 197 793 l 197 733 q 272 782 256 778 q 300 790 288 786 q 357 797 322 797 z "},"s":{"ha":506,"x_min":39,"x_max":468,"o":"m 39 604 q 95 751 39 703 q 279 800 151 800 q 435 776 361 800 l 435 676 q 282 701 363 701 q 174 678 201 701 q 146 600 146 654 l 146 567 q 163 502 146 524 q 225 458 179 481 l 344 399 q 468 228 468 336 l 468 190 q 210 -7 468 -7 q 43 15 115 -7 l 43 117 q 201 92 113 92 q 324 117 289 92 q 358 193 358 142 l 358 219 q 340 277 358 256 q 271 325 322 299 l 153 382 q 39 558 39 436 l 39 604 z "},"t":{"ha":407,"x_min":7,"x_max":386,"o":"m 201 936 l 201 793 l 374 793 l 374 697 l 201 697 l 201 179 q 293 92 201 92 q 386 107 325 92 l 386 8 q 281 -7 333 -7 q 93 174 93 -7 l 93 697 l 7 697 l 7 793 l 96 793 l 128 936 l 201 936 z "},"u":{"ha":629,"x_min":85,"x_max":538,"o":"m 301 94 q 428 135 364 94 l 428 793 l 538 793 l 538 0 l 432 0 l 432 38 q 274 -3 365 -3 q 134 47 183 -3 q 85 193 85 97 l 85 793 l 196 793 l 196 206 q 301 94 196 94 z "},"v":{"ha":543,"x_min":22,"x_max":521,"o":"m 411 793 l 521 793 l 347 0 l 197 0 l 22 793 l 133 793 q 272 79 233 315 q 411 793 304 269 z "},"w":{"ha":833,"x_min":22,"x_max":813,"o":"m 701 793 l 813 793 l 671 0 l 525 0 q 418 647 432 536 q 379 386 400 506 l 310 0 l 165 0 l 22 793 l 135 793 l 240 117 l 360 793 l 476 793 l 594 117 l 701 793 z "},"x":{"ha":510,"x_min":13,"x_max":497,"o":"m 382 793 l 497 793 l 310 397 l 497 0 l 382 0 l 256 290 l 128 0 l 13 0 l 197 397 l 13 793 l 128 793 l 256 506 l 382 793 z "},"y":{"ha":547,"x_min":24,"x_max":524,"o":"m 414 793 l 524 793 l 308 -207 l 203 -207 l 246 0 l 196 0 l 24 793 l 135 793 q 274 79 246 264 q 333 413 300 243 l 414 793 z "},"z":{"ha":451,"x_min":28,"x_max":422,"o":"m 35 793 l 422 793 l 422 713 l 140 94 l 422 94 l 422 0 l 28 0 l 28 81 l 306 699 l 35 699 l 35 793 z "},"{":{"ha":496,"x_min":81,"x_max":418,"o":"m 286 914 l 286 631 q 260 506 286 549 q 165 453 235 463 q 260 403 235 444 q 286 279 286 361 l 286 -8 q 393 -97 286 -97 l 418 -97 l 418 -190 l 389 -190 q 242 -141 294 -190 q 190 -6 190 -92 l 190 310 q 163 381 190 356 q 85 407 136 407 l 81 407 l 81 500 l 85 500 q 163 525 136 500 q 190 596 190 550 l 190 911 q 242 1047 190 997 q 389 1096 294 1096 l 418 1096 l 418 1003 l 393 1003 q 286 914 286 1003 z "},"|":{"ha":290,"x_min":104,"x_max":186,"o":"m 104 1126 l 186 1126 l 186 -214 l 104 -214 l 104 1126 z "},"}":{"ha":494,"x_min":75,"x_max":413,"o":"m 408 500 l 413 500 l 413 407 l 408 407 q 331 381 358 407 q 304 310 304 356 l 304 -6 q 252 -141 304 -92 q 106 -190 200 -190 l 75 -190 l 75 -97 l 100 -97 q 207 -8 207 -97 l 207 279 q 233 402 207 360 q 328 453 260 444 q 233 506 260 463 q 207 631 207 549 l 207 914 q 100 1003 207 1003 l 75 1003 l 75 1096 l 106 1096 q 252 1047 200 1096 q 304 911 304 997 l 304 596 q 331 525 304 550 q 408 500 358 500 z "},"~":{"ha":619,"x_min":33,"x_max":586,"o":"m 586 510 q 553 415 586 450 q 371 397 494 353 l 242 451 q 153 463 189 478 q 126 390 117 447 l 36 390 q 33 435 33 411 q 67 529 33 494 q 249 547 125 592 l 378 493 q 467 481 432 465 q 492 554 501 496 l 582 554 q 586 510 586 535 z "}," ":{"ha":263,"x_min":0,"x_max":0,"o":""},"¡":{"ha":356,"x_min":111,"x_max":243,"o":"m 236 -143 l 118 -143 l 132 547 l 222 547 l 236 -143 m 177 667 q 144 667 177 667 q 111 734 111 667 q 177 801 111 801 q 243 734 243 801 q 177 667 243 667 z "},"¢":{"ha":553,"x_min":89,"x_max":479,"o":"m 371 -106 l 271 -106 l 271 -4 q 89 194 89 18 l 89 597 q 272 797 89 775 l 272 908 l 372 908 l 372 799 q 476 781 428 794 l 476 681 q 335 699 413 699 q 228 673 258 699 q 199 592 199 647 l 199 200 q 228 119 199 144 q 338 93 258 93 q 479 115 418 93 l 479 13 q 371 -6 415 -3 l 371 -106 z "},"£":{"ha":646,"x_min":64,"x_max":590,"o":"m 590 99 l 590 0 l 64 0 l 64 99 q 100 108 78 99 q 131 126 122 117 q 147 150 139 136 q 165 231 165 178 l 165 435 l 81 435 l 81 528 l 165 528 l 165 715 q 226 880 165 821 q 411 939 286 939 q 579 913 503 939 l 579 808 q 414 836 493 836 q 305 804 335 836 q 275 710 275 772 l 275 528 l 508 528 l 508 435 l 275 435 l 275 242 q 210 99 275 139 l 590 99 z "},"¤":{"ha":639,"x_min":53,"x_max":589,"o":"m 544 525 l 544 410 q 525 303 544 346 l 588 242 l 519 174 l 463 229 q 320 197 410 197 q 179 231 231 197 l 121 174 l 53 242 l 117 304 q 97 410 97 344 l 97 525 q 117 632 97 589 l 53 694 l 122 763 l 179 706 q 321 739 231 739 q 463 706 411 739 l 519 763 l 589 694 l 525 632 q 544 525 544 589 m 203 524 l 203 413 q 228 322 203 351 q 321 293 254 293 q 413 322 388 293 q 439 413 439 351 l 439 524 q 413 614 439 585 q 321 643 388 643 q 228 614 254 643 q 203 524 203 585 z "},"¥":{"ha":668,"x_min":56,"x_max":632,"o":"m 628 578 l 628 492 l 471 492 l 418 360 l 628 360 l 628 274 l 397 274 l 397 0 l 292 0 l 292 274 l 57 274 l 57 360 l 269 360 l 217 492 l 57 492 l 57 578 l 185 578 l 56 914 l 164 914 l 304 543 l 346 424 l 388 543 l 525 914 l 632 914 l 503 578 l 628 578 z "},"¦":{"ha":290,"x_min":104,"x_max":186,"o":"m 104 313 l 186 313 l 186 -214 l 104 -214 l 104 313 m 104 1126 l 186 1126 l 186 600 l 104 600 l 104 1126 z "},"§":{"ha":511,"x_min":43,"x_max":482,"o":"m 160 368 l 160 347 q 177 282 160 304 q 240 239 194 260 l 358 178 q 482 7 482 117 l 482 -10 q 225 -207 482 -207 q 57 -187 122 -207 l 57 -86 q 213 -108 119 -108 q 340 -84 306 -108 q 374 -12 374 -60 q 356 56 374 35 q 285 104 339 78 l 168 163 q 53 338 53 215 l 53 368 l 160 368 m 43 742 q 99 889 43 840 q 283 938 156 938 q 439 917 374 938 l 439 817 q 288 840 371 840 q 178 816 206 840 q 150 739 150 792 q 166 666 150 686 q 229 624 182 646 l 347 564 q 440 494 408 533 q 471 393 471 454 l 471 364 l 364 364 l 364 386 q 346 443 364 422 q 274 490 328 464 l 157 547 q 43 724 43 601 l 43 742 z "},"¨":{"ha":486,"x_min":92,"x_max":394,"o":"m 339 874 q 311 874 339 874 q 283 928 283 874 q 339 982 283 982 q 394 928 394 982 q 339 874 394 874 m 147 874 q 119 874 147 874 q 92 928 92 874 q 147 982 92 982 q 203 928 203 982 q 147 874 203 874 z "},"©":{"ha":957,"x_min":64,"x_max":893,"o":"m 747 190 q 792 303 781 243 q 804 444 804 364 q 799 574 804 525 q 774 674 793 624 q 719 754 754 725 q 479 821 640 821 q 239 753 317 821 q 158 574 175 699 q 153 442 153 524 q 164 301 153 361 q 208 189 175 242 q 479 85 272 85 q 747 190 681 85 m 314 529 q 356 658 314 614 q 497 701 399 701 q 600 690 556 701 l 600 608 q 494 622 553 622 q 419 599 436 622 q 401 528 401 576 l 401 378 q 444 289 401 303 q 508 283 464 283 q 601 297 551 283 l 601 214 q 497 204 524 204 q 356 248 399 204 q 314 376 314 292 l 314 529 m 147 128 q 83 269 101 192 q 64 452 64 347 q 82 634 64 557 q 144 775 100 711 q 479 906 235 906 q 814 776 726 906 q 876 635 858 713 q 893 453 893 558 q 874 271 893 349 q 808 131 854 193 q 479 0 717 0 q 147 128 239 0 z "},"ª":{"ha":469,"x_min":47,"x_max":411,"o":"m 125 599 l 125 554 q 145 486 125 507 q 232 465 165 465 q 335 510 299 465 l 335 706 l 218 685 q 125 599 125 665 m 235 1035 q 411 889 411 1035 l 411 400 l 335 400 l 335 449 q 203 400 293 400 q 47 553 47 400 l 47 603 q 88 700 47 665 q 204 751 128 735 l 335 776 l 335 892 q 310 945 332 928 q 218 963 288 963 q 72 936 149 963 l 72 1010 q 235 1035 150 1035 z "},"«":{"ha":668,"x_min":85,"x_max":619,"o":"m 253 701 l 364 701 l 194 447 l 364 193 l 253 193 l 85 447 l 253 701 m 508 701 l 619 701 l 450 447 l 619 193 l 508 193 l 340 447 l 508 701 z "},"¬":{"ha":643,"x_min":92,"x_max":550,"o":"m 92 508 l 550 508 l 550 269 l 439 269 l 439 410 l 92 410 l 92 508 z "},"­":{"ha":328,"x_min":56,"x_max":279,"o":"m 56 497 l 279 497 l 279 407 l 56 407 l 56 497 z "},"®":{"ha":722,"x_min":101,"x_max":664,"o":"m 101 721 q 101 798 101 721 q 163 949 101 875 q 383 1022 224 1022 q 603 949 542 1022 q 664 722 664 876 q 603 496 664 568 q 383 424 543 424 q 162 495 222 424 q 101 721 101 567 m 203 541 q 214 525 203 541 q 267 495 225 508 q 381 482 310 482 q 497 495 453 482 q 563 541 540 508 q 592 613 585 574 q 599 721 599 653 q 558 911 599 858 q 382 964 517 964 q 268 951 311 964 q 203 905 225 938 q 175 831 182 872 q 168 722 168 790 q 175 613 168 653 q 203 541 182 574 m 278 906 l 378 906 q 504 794 504 906 q 456 693 504 718 l 519 543 l 450 543 l 399 678 q 378 676 392 676 l 342 676 l 342 543 l 278 543 l 278 906 m 342 731 l 372 731 q 428 744 413 731 q 444 794 444 757 q 430 841 444 831 q 381 851 415 851 l 342 851 l 342 731 z "},"¯":{"ha":486,"x_min":86,"x_max":400,"o":"m 86 964 l 400 964 l 400 894 l 86 894 l 86 964 z "},"°":{"ha":524,"x_min":71,"x_max":460,"o":"m 349 816 q 360 832 349 816 q 371 906 371 847 q 349 995 371 964 q 265 1026 326 1026 q 181 995 203 1026 q 160 906 160 964 q 181 816 160 847 q 265 785 203 785 q 349 816 326 785 m 264 701 q 71 907 71 701 q 264 1113 71 1113 q 413 1056 367 1113 q 460 907 460 1000 q 264 701 460 701 z "},"±":{"ha":615,"x_min":58,"x_max":561,"o":"m 360 497 l 561 497 l 561 407 l 360 407 l 360 219 l 260 219 l 260 407 l 58 407 l 58 497 l 260 497 l 260 683 l 360 683 l 360 497 m 58 53 l 58 144 l 561 144 l 561 53 l 58 53 z "},"²":{"ha":407,"x_min":40,"x_max":369,"o":"m 199 1035 q 368 889 368 1035 l 368 854 q 350 767 368 801 q 288 701 332 732 l 199 639 q 131 583 143 601 q 118 519 118 564 l 118 474 l 369 474 l 369 401 l 40 401 l 40 521 q 63 618 40 583 q 147 693 86 653 l 240 756 q 281 799 272 776 q 290 860 290 821 l 290 889 q 270 945 290 928 q 187 963 250 963 q 58 947 124 963 l 58 1021 q 199 1035 110 1035 z "},"³":{"ha":422,"x_min":43,"x_max":358,"o":"m 188 1035 q 358 894 354 1035 l 358 835 q 299 721 358 747 q 358 608 358 694 l 358 540 q 186 396 358 396 q 43 411 107 396 l 43 485 q 178 467 118 467 q 259 485 238 467 q 281 542 281 503 l 281 608 q 264 664 281 644 q 197 683 247 683 l 135 683 l 135 756 l 197 756 q 264 776 247 756 q 281 835 281 797 l 281 889 q 259 944 281 926 q 183 963 238 963 q 56 950 128 963 l 56 1022 q 188 1035 106 1035 z "},"´":{"ha":486,"x_min":167,"x_max":319,"o":"m 221 1004 l 319 1004 l 235 854 l 167 854 l 221 1004 z "},"µ":{"ha":633,"x_min":89,"x_max":542,"o":"m 432 139 l 432 793 l 542 793 l 542 0 l 436 0 l 436 38 q 200 14 313 -24 l 200 -208 l 89 -208 l 89 793 l 200 793 l 200 119 q 309 97 251 97 q 432 139 367 97 z "},"¶":{"ha":568,"x_min":88,"x_max":471,"o":"m 315 936 l 471 936 l 471 1 l 361 1 l 361 517 l 315 517 q 146 574 204 517 q 88 727 88 631 q 146 880 88 824 q 315 936 204 936 z "},"·":{"ha":308,"x_min":93,"x_max":218,"o":"m 156 417 q 124 417 156 417 q 93 479 93 417 q 156 542 93 542 q 218 479 218 542 q 156 417 218 417 z "},"¸":{"ha":486,"x_min":144,"x_max":340,"o":"m 247 -56 q 314 -82 288 -58 q 340 -152 340 -106 q 305 -226 340 -199 q 222 -253 269 -253 q 144 -244 175 -253 l 144 -185 q 203 -194 164 -194 q 271 -146 271 -194 q 201 -97 271 -97 l 183 -97 l 206 8 l 261 8 l 247 -56 z "},"¹":{"ha":308,"x_min":29,"x_max":238,"o":"m 238 1028 l 238 401 l 160 401 l 160 949 l 29 846 l 29 936 l 150 1028 l 238 1028 z "},"º":{"ha":464,"x_min":64,"x_max":411,"o":"m 238 963 q 142 893 142 963 l 142 542 q 163 486 142 504 q 238 468 185 468 q 312 486 290 468 q 333 542 333 504 l 333 893 q 310 945 332 928 q 238 963 289 963 m 64 888 q 238 1035 64 1035 q 411 888 411 1035 l 411 543 q 238 396 411 396 q 64 543 64 396 l 64 888 z "},"»":{"ha":667,"x_min":43,"x_max":578,"o":"m 43 701 l 154 701 l 322 447 l 154 193 l 43 193 l 213 447 l 43 701 m 299 701 l 410 701 l 578 447 l 410 193 l 299 193 l 468 447 l 299 701 z "},"¼":{"ha":1099,"x_min":56,"x_max":1019,"o":"m 686 936 l 765 936 l 293 0 l 213 0 l 686 936 m 878 203 l 878 565 l 699 203 l 878 203 m 953 626 l 953 203 l 1019 203 l 1019 133 l 953 133 l 953 0 l 878 0 l 878 133 l 625 133 l 625 206 l 833 626 l 953 626 m 264 936 l 264 310 l 188 310 l 188 857 l 56 754 l 56 844 l 176 936 l 264 936 z "},"½":{"ha":1090,"x_min":56,"x_max":1004,"o":"m 685 936 l 764 936 l 292 0 l 213 0 l 685 936 m 264 936 l 264 310 l 186 310 l 186 857 l 56 754 l 56 844 l 176 936 l 264 936 m 833 633 q 1003 488 1003 633 l 1003 453 q 985 365 1003 400 q 922 300 967 331 l 833 238 q 765 181 778 200 q 753 118 753 163 l 753 72 l 1004 72 l 1004 0 l 675 0 l 675 119 q 698 217 675 182 q 782 292 721 251 l 875 354 q 916 397 907 375 q 925 458 925 419 l 925 488 q 905 544 925 526 q 822 561 885 561 q 693 546 758 561 l 693 619 q 833 633 744 633 z "},"¾":{"ha":1151,"x_min":56,"x_max":1072,"o":"m 199 943 q 369 803 367 943 l 369 743 q 311 629 369 656 q 369 517 369 604 l 369 449 q 197 304 369 304 q 56 319 117 304 l 56 393 q 186 376 124 376 q 271 394 249 376 q 293 450 293 413 l 293 517 q 276 572 293 553 q 210 593 260 592 l 147 593 l 147 665 l 210 665 q 276 685 260 665 q 293 743 293 706 l 293 797 q 272 853 293 835 q 188 871 250 871 q 68 858 125 871 l 68 932 q 199 943 128 943 m 758 936 l 838 936 l 365 0 l 285 0 l 758 936 m 929 203 l 929 565 l 751 203 l 929 203 m 1004 626 l 1004 203 l 1072 203 l 1072 133 l 1004 133 l 1004 0 l 929 0 l 929 133 l 676 133 l 676 206 l 886 626 l 1004 626 z "},"¿":{"ha":532,"x_min":47,"x_max":465,"o":"m 312 801 q 345 801 312 801 q 378 734 378 801 q 312 667 378 667 q 246 734 246 667 q 312 801 246 801 m 299 -157 q 47 43 47 -157 l 47 178 q 258 392 47 388 l 265 547 l 358 547 l 365 303 l 288 303 q 154 176 154 303 l 154 50 q 185 -30 154 -4 q 301 -56 215 -56 q 465 -31 388 -56 l 465 -136 q 299 -157 390 -157 z "},"À":{"ha":615,"x_min":22,"x_max":593,"o":"m 485 0 l 429 257 l 185 257 l 131 0 l 22 0 l 231 936 l 385 936 l 593 0 l 485 0 m 204 351 l 410 351 l 306 832 l 204 351 m 335 993 l 267 993 l 182 1143 l 281 1143 l 335 993 z "},"Á":{"ha":615,"x_min":22,"x_max":593,"o":"m 485 0 l 429 257 l 185 257 l 131 0 l 22 0 l 231 936 l 385 936 l 593 0 l 485 0 m 204 351 l 410 351 l 306 832 l 204 351 m 425 1143 l 340 993 l 272 993 l 326 1143 l 425 1143 z "},"Â":{"ha":615,"x_min":22,"x_max":593,"o":"m 485 0 l 429 257 l 185 257 l 131 0 l 22 0 l 231 936 l 385 936 l 593 0 l 485 0 m 204 351 l 410 351 l 306 832 l 204 351 m 311 1079 l 260 993 l 196 993 l 267 1143 l 356 1143 l 426 993 l 361 993 l 311 1079 z "},"Ã":{"ha":615,"x_min":22,"x_max":593,"o":"m 485 0 l 429 257 l 185 257 l 131 0 l 22 0 l 231 936 l 385 936 l 593 0 l 485 0 m 204 351 l 410 351 l 306 832 l 204 351 m 211 1018 l 211 1004 l 138 1004 l 138 1021 q 162 1099 138 1069 q 228 1129 186 1129 q 319 1101 271 1129 q 382 1074 367 1074 q 413 1117 413 1074 l 413 1132 l 486 1132 l 486 1114 q 462 1035 486 1064 q 397 1007 438 1007 q 309 1035 357 1007 q 242 1063 261 1063 q 211 1018 211 1063 z "},"Ä":{"ha":615,"x_min":22,"x_max":593,"o":"m 485 0 l 429 257 l 185 257 l 131 0 l 22 0 l 231 936 l 385 936 l 593 0 l 485 0 m 204 351 l 410 351 l 306 832 l 204 351 m 267 1067 q 267 1040 267 1067 q 211 1013 267 1013 q 156 1067 156 1013 q 211 1121 156 1121 q 267 1067 267 1121 m 458 1067 q 458 1040 458 1067 q 403 1013 458 1013 q 347 1067 347 1013 q 403 1121 347 1121 q 458 1067 458 1121 z "},"Å":{"ha":615,"x_min":22,"x_max":593,"o":"m 485 0 l 429 257 l 185 257 l 131 0 l 22 0 l 231 936 l 385 936 l 593 0 l 485 0 m 204 351 l 410 351 l 306 832 l 204 351 m 383 994 q 369 980 383 994 q 307 965 356 965 q 231 995 258 965 q 203 1068 203 1025 q 231 1140 203 1111 q 307 1169 258 1169 q 383 1140 356 1169 q 411 1067 411 1111 q 383 994 411 1024 m 342 1102 q 335 1109 342 1102 q 307 1115 329 1115 q 272 1102 285 1115 q 260 1068 260 1089 q 307 1019 260 1019 q 354 1068 354 1019 q 342 1102 354 1089 z "},"Æ":{"ha":925,"x_min":10,"x_max":901,"o":"m 901 839 l 597 839 l 597 521 l 861 521 l 861 424 l 597 424 l 597 96 l 901 96 l 901 0 l 492 0 l 492 257 l 233 257 l 122 0 l 10 0 l 426 936 l 901 936 l 901 839 m 492 351 l 492 858 l 274 351 l 492 351 z "},"Ç":{"ha":550,"x_min":78,"x_max":500,"o":"m 326 -56 q 393 -82 367 -58 q 419 -152 419 -106 q 384 -226 419 -199 q 302 -253 349 -253 q 224 -244 256 -253 l 224 -185 q 282 -194 243 -194 q 350 -146 350 -194 q 281 -97 350 -97 l 263 -97 l 282 -4 q 78 193 78 17 l 78 742 q 142 890 78 838 q 335 943 206 943 q 497 921 417 943 l 497 819 q 339 843 424 843 q 222 816 254 843 q 189 736 189 789 l 189 200 q 222 119 189 146 q 336 92 254 92 q 500 115 418 92 l 500 15 q 338 -7 433 -7 l 326 -56 z "},"È":{"ha":556,"x_min":92,"x_max":506,"o":"m 182 1143 l 281 1143 l 335 993 l 267 993 l 182 1143 m 92 936 l 506 936 l 506 839 l 201 839 l 201 521 l 465 521 l 465 424 l 201 424 l 201 96 l 506 96 l 506 0 l 92 0 l 92 936 z "},"É":{"ha":556,"x_min":92,"x_max":506,"o":"m 92 936 l 506 936 l 506 839 l 201 839 l 201 521 l 465 521 l 465 424 l 201 424 l 201 96 l 506 96 l 506 0 l 92 0 l 92 936 m 319 1143 l 418 1143 l 333 993 l 265 993 l 319 1143 z "},"Ê":{"ha":556,"x_min":92,"x_max":506,"o":"m 506 839 l 201 839 l 201 521 l 465 521 l 465 424 l 201 424 l 201 96 l 506 96 l 506 0 l 92 0 l 92 936 l 506 936 l 506 839 m 292 1079 l 240 993 l 176 993 l 247 1143 l 336 1143 l 407 993 l 342 993 l 292 1079 z "},"Ë":{"ha":556,"x_min":92,"x_max":506,"o":"m 92 936 l 506 936 l 506 839 l 201 839 l 201 521 l 465 521 l 465 424 l 201 424 l 201 96 l 506 96 l 506 0 l 92 0 l 92 936 m 397 1013 q 369 1013 397 1013 q 342 1067 342 1013 q 397 1121 342 1121 q 453 1067 453 1121 q 397 1013 453 1013 m 206 1013 q 178 1013 206 1013 q 150 1067 150 1013 q 206 1121 150 1121 q 261 1067 261 1121 q 206 1013 261 1013 z "},"Ì":{"ha":556,"x_min":92,"x_max":506,"o":"m 182 1143 l 281 1143 l 335 993 l 267 993 l 182 1143 m 92 936 l 506 936 l 506 839 l 201 839 l 201 521 l 465 521 l 465 424 l 201 424 l 201 96 l 506 96 l 506 0 l 92 0 l 92 936 z "},"Í":{"ha":556,"x_min":92,"x_max":506,"o":"m 92 936 l 506 936 l 506 839 l 201 839 l 201 521 l 465 521 l 465 424 l 201 424 l 201 96 l 506 96 l 506 0 l 92 0 l 92 936 m 319 1143 l 418 1143 l 333 993 l 265 993 l 319 1143 z "},"Î":{"ha":294,"x_min":38,"x_max":268,"o":"m 197 1143 l 268 993 l 203 993 l 153 1079 l 101 993 l 38 993 l 108 1143 l 197 1143 m 92 0 l 92 936 l 203 936 l 203 0 l 92 0 z "},"Ï":{"ha":294,"x_min":-6,"x_max":297,"o":"m 242 1013 q 214 1013 242 1013 q 186 1067 186 1013 q 242 1121 186 1121 q 297 1067 297 1121 q 242 1013 297 1013 m 50 1013 q 22 1013 50 1013 q -6 1067 -6 1013 q 50 1121 -6 1121 q 106 1067 106 1121 q 50 1013 106 1013 m 92 936 l 203 936 l 203 0 l 92 0 l 92 936 z "},"Ð":{"ha":653,"x_min":-4,"x_max":576,"o":"m 96 936 l 350 936 q 519 880 461 936 q 576 726 576 824 l 576 214 q 521 58 576 115 q 354 0 465 0 l 96 0 l 96 413 l -4 413 l -4 506 l 96 506 l 96 936 m 467 218 l 467 724 q 342 842 467 842 l 206 842 l 206 506 l 349 506 l 349 413 l 206 413 l 206 96 l 342 96 q 467 218 467 96 z "},"Ñ":{"ha":699,"x_min":92,"x_max":606,"o":"m 461 1132 l 535 1132 l 535 1114 q 510 1035 535 1064 q 446 1007 486 1007 q 358 1035 406 1007 q 290 1063 310 1063 q 260 1018 260 1063 l 260 1004 l 186 1004 l 186 1021 q 210 1099 186 1069 q 277 1129 235 1129 q 367 1101 319 1129 q 431 1074 415 1074 q 461 1117 461 1074 l 461 1132 m 510 174 l 497 489 l 497 936 l 606 936 l 606 0 l 483 0 q 240 625 279 518 q 188 763 200 732 l 200 449 l 200 0 l 92 0 l 92 936 l 215 936 l 400 468 q 462 301 426 399 q 510 174 497 204 z "},"Ò":{"ha":639,"x_min":78,"x_max":560,"o":"m 193 1143 l 292 1143 l 346 993 l 278 993 l 193 1143 m 451 724 q 319 850 451 850 q 188 724 188 850 l 188 213 q 319 85 188 85 q 451 213 451 85 l 451 724 m 78 726 q 139 888 78 826 q 319 950 200 950 q 499 889 439 950 q 560 726 560 828 l 560 208 q 499 47 560 108 q 319 -14 439 -14 q 139 47 200 -14 q 78 208 78 108 l 78 726 z "},"Ó":{"ha":639,"x_min":78,"x_max":560,"o":"m 451 724 q 319 850 451 850 q 188 724 188 850 l 188 213 q 319 85 188 85 q 451 213 451 85 l 451 724 m 78 726 q 139 888 78 826 q 319 950 200 950 q 499 889 439 950 q 560 726 560 828 l 560 208 q 499 47 560 108 q 319 -14 439 -14 q 139 47 200 -14 q 78 208 78 108 l 78 726 m 340 1143 l 439 1143 l 354 993 l 286 993 l 340 1143 z "},"Ô":{"ha":639,"x_min":78,"x_max":560,"o":"m 78 208 l 78 726 q 139 888 78 826 q 319 950 200 950 q 499 889 439 950 q 560 726 560 828 l 560 208 q 499 47 560 108 q 319 -14 439 -14 q 139 47 200 -14 q 78 208 78 108 m 451 213 l 451 724 q 319 850 451 850 q 188 724 188 850 l 188 213 q 319 85 188 85 q 451 213 451 85 m 319 1079 l 268 993 l 204 993 l 275 1143 l 364 1143 l 435 993 l 369 993 l 319 1079 z "},"Õ":{"ha":639,"x_min":78,"x_max":560,"o":"m 421 1132 l 494 1132 l 494 1114 q 470 1035 494 1064 q 406 1007 446 1007 q 317 1035 365 1007 q 250 1063 269 1063 q 219 1018 219 1063 l 219 1004 l 146 1004 l 146 1021 q 170 1099 146 1069 q 237 1129 194 1129 q 327 1101 279 1129 q 390 1074 375 1074 q 421 1117 421 1074 l 421 1132 m 451 724 q 319 850 451 850 q 188 724 188 850 l 188 213 q 319 85 188 85 q 451 213 451 85 l 451 724 m 78 726 q 139 888 78 826 q 319 950 200 950 q 499 889 439 950 q 560 726 560 828 l 560 208 q 499 47 560 108 q 319 -14 439 -14 q 139 47 200 -14 q 78 208 78 108 l 78 726 z "},"Ö":{"ha":639,"x_min":78,"x_max":560,"o":"m 451 724 q 319 850 451 850 q 188 724 188 850 l 188 213 q 319 85 188 85 q 451 213 451 85 l 451 724 m 78 726 q 139 888 78 826 q 319 950 200 950 q 499 889 439 950 q 560 726 560 828 l 560 208 q 499 47 560 108 q 319 -14 439 -14 q 139 47 200 -14 q 78 208 78 108 l 78 726 m 415 1013 q 388 1013 415 1013 q 360 1067 360 1013 q 415 1121 360 1121 q 471 1067 471 1121 q 415 1013 471 1013 m 224 1013 q 196 1013 224 1013 q 168 1067 168 1013 q 224 1121 168 1121 q 279 1067 279 1121 q 224 1013 279 1013 z "},"×":{"ha":536,"x_min":43,"x_max":492,"o":"m 492 293 l 428 229 l 268 389 l 108 229 l 43 293 l 203 453 l 44 611 l 108 676 l 268 518 l 426 676 l 490 611 l 332 453 l 492 293 z "},"Ø":{"ha":639,"x_min":76,"x_max":563,"o":"m 560 726 l 560 208 q 499 47 560 108 q 332 -14 439 -14 q 167 25 225 -14 l 156 0 l 76 0 l 111 81 q 78 208 78 135 l 78 726 q 139 888 78 826 q 308 950 200 950 q 472 910 415 950 l 483 936 l 563 936 l 526 854 q 560 726 560 800 m 188 724 l 188 256 l 428 807 q 319 850 396 850 q 188 724 188 850 m 451 213 l 451 681 l 211 128 q 319 85 243 85 q 451 213 451 85 z "},"Ù":{"ha":651,"x_min":85,"x_max":565,"o":"m 207 1143 l 306 1143 l 360 993 l 292 993 l 207 1143 m 457 936 l 565 936 l 565 208 q 505 47 565 108 q 325 -14 444 -14 q 145 47 206 -14 q 85 208 85 108 l 85 936 l 194 936 l 194 213 q 326 85 194 85 q 457 213 457 85 l 457 936 z "},"Ú":{"ha":651,"x_min":85,"x_max":565,"o":"m 457 936 l 565 936 l 565 208 q 505 47 565 108 q 325 -14 444 -14 q 145 47 206 -14 q 85 208 85 108 l 85 936 l 194 936 l 194 213 q 326 85 194 85 q 457 213 457 85 l 457 936 m 346 1143 l 444 1143 l 360 993 l 292 993 l 346 1143 z "},"Û":{"ha":651,"x_min":85,"x_max":565,"o":"m 457 936 l 565 936 l 565 208 q 505 47 565 108 q 325 -14 444 -14 q 145 47 206 -14 q 85 208 85 108 l 85 936 l 194 936 l 194 213 q 326 85 194 85 q 457 213 457 85 l 457 936 m 325 1079 l 274 993 l 210 993 l 281 1143 l 369 1143 l 440 993 l 375 993 l 325 1079 z "},"Ü":{"ha":651,"x_min":85,"x_max":565,"o":"m 457 936 l 565 936 l 565 208 q 505 47 565 108 q 325 -14 444 -14 q 145 47 206 -14 q 85 208 85 108 l 85 936 l 194 936 l 194 213 q 326 85 194 85 q 457 213 457 85 l 457 936 m 421 1013 q 393 1013 421 1013 q 365 1067 365 1013 q 421 1121 365 1121 q 476 1067 476 1121 q 421 1013 476 1013 m 229 1013 q 201 1013 229 1013 q 174 1067 174 1013 q 229 1121 174 1121 q 285 1067 285 1121 q 229 1013 285 1013 z "},"Ý":{"ha":578,"x_min":6,"x_max":574,"o":"m 306 1143 l 404 1143 l 319 993 l 251 993 l 306 1143 m 344 0 l 235 0 l 235 314 l 6 936 l 118 936 l 207 693 q 290 439 251 565 q 334 572 304 483 q 374 692 364 661 l 463 936 l 574 936 l 344 314 l 344 0 z "},"Þ":{"ha":600,"x_min":106,"x_max":564,"o":"m 213 769 l 338 769 q 506 713 447 769 q 564 560 564 657 l 564 376 q 506 223 564 279 q 338 167 447 167 l 213 167 l 213 0 l 106 0 l 106 936 l 213 936 l 213 769 m 457 382 l 457 554 q 332 675 457 675 l 213 675 l 213 264 l 332 264 q 457 382 457 264 z "},"ß":{"ha":750,"x_min":92,"x_max":721,"o":"m 92 760 q 158 935 92 875 q 346 996 225 996 q 533 939 467 996 q 599 782 599 882 q 581 696 599 736 q 542 633 563 656 q 483 531 483 571 l 483 517 q 506 460 483 486 q 594 398 529 433 q 690 324 658 363 q 721 229 721 286 l 721 192 q 659 47 721 99 q 471 -6 597 -6 q 311 15 383 -6 l 311 118 q 463 93 379 93 q 581 120 547 93 q 614 197 614 147 l 614 221 q 593 283 614 258 q 505 344 572 307 q 406 417 438 381 q 374 508 374 453 l 374 526 q 431 653 374 582 q 489 779 489 724 q 353 897 489 897 q 235 863 272 897 q 197 754 197 828 l 197 0 l 92 0 l 92 760 z "},"à":{"ha":592,"x_min":42,"x_max":507,"o":"m 169 1004 l 268 1004 l 322 854 l 254 854 l 169 1004 m 150 226 l 150 185 q 174 108 150 133 q 269 83 199 83 q 400 133 339 83 l 400 383 l 251 342 q 172 299 193 325 q 150 226 150 274 m 81 774 q 276 800 160 800 q 507 593 507 800 l 507 0 l 403 0 l 403 57 q 333 11 369 26 q 235 -4 296 -4 q 42 186 42 -4 l 42 231 q 211 425 42 378 l 401 478 l 401 594 q 371 674 400 649 q 249 700 342 700 q 81 672 156 700 l 81 774 z "},"á":{"ha":592,"x_min":42,"x_max":507,"o":"m 306 1004 l 404 1004 l 319 854 l 251 854 l 306 1004 m 150 226 l 150 185 q 174 108 150 133 q 269 83 199 83 q 400 133 339 83 l 400 383 l 251 342 q 172 299 193 325 q 150 226 150 274 m 81 774 q 276 800 160 800 q 507 593 507 800 l 507 0 l 403 0 l 403 57 q 333 11 369 26 q 235 -4 296 -4 q 42 186 42 -4 l 42 231 q 211 425 42 378 l 401 478 l 401 594 q 371 674 400 649 q 249 700 342 700 q 81 672 156 700 l 81 774 z "},"â":{"ha":592,"x_min":42,"x_max":507,"o":"m 81 774 q 276 800 160 800 q 507 593 507 800 l 507 0 l 403 0 l 403 57 q 333 11 369 26 q 235 -4 296 -4 q 42 186 42 -4 l 42 231 q 211 425 42 378 l 401 478 l 401 594 q 371 674 400 649 q 249 700 342 700 q 81 672 156 700 l 81 774 m 150 226 l 150 185 q 174 108 150 133 q 269 83 199 83 q 400 133 339 83 l 400 383 l 251 342 q 172 299 193 325 q 150 226 150 274 m 299 940 l 247 854 l 183 854 l 254 1004 l 343 1004 l 414 854 l 349 854 l 299 940 z "},"ã":{"ha":592,"x_min":42,"x_max":507,"o":"m 394 993 l 468 993 l 468 975 q 444 897 468 925 q 379 868 419 868 q 291 896 339 868 q 224 924 243 924 q 193 879 193 924 l 193 865 l 119 865 l 119 882 q 144 960 119 931 q 210 990 168 990 q 301 963 253 990 q 364 935 349 935 q 394 978 394 935 l 394 993 m 150 226 l 150 185 q 174 108 150 133 q 269 83 199 83 q 400 133 339 83 l 400 383 l 251 342 q 172 299 193 325 q 150 226 150 274 m 81 774 q 276 800 160 800 q 507 593 507 800 l 507 0 l 403 0 l 403 57 q 333 11 369 26 q 235 -4 296 -4 q 42 186 42 -4 l 42 231 q 211 425 42 378 l 401 478 l 401 594 q 371 674 400 649 q 249 700 342 700 q 81 672 156 700 l 81 774 z "},"ä":{"ha":592,"x_min":42,"x_max":507,"o":"m 388 874 q 360 874 388 874 q 332 928 332 874 q 388 982 332 982 q 443 928 443 982 q 388 874 443 874 m 196 874 q 168 874 196 874 q 140 928 140 874 q 196 982 140 982 q 251 928 251 982 q 196 874 251 874 m 150 226 l 150 185 q 174 108 150 133 q 269 83 199 83 q 400 133 339 83 l 400 383 l 251 342 q 172 299 193 325 q 150 226 150 274 m 81 774 q 276 800 160 800 q 507 593 507 800 l 507 0 l 403 0 l 403 57 q 333 11 369 26 q 235 -4 296 -4 q 42 186 42 -4 l 42 231 q 211 425 42 378 l 401 478 l 401 594 q 371 674 400 649 q 249 700 342 700 q 81 672 156 700 l 81 774 z "},"å":{"ha":592,"x_min":42,"x_max":507,"o":"m 338 929 q 325 963 338 950 q 290 976 313 976 q 256 963 268 976 q 243 929 243 950 q 290 881 243 881 q 338 929 338 881 m 214 856 q 200 871 214 856 q 186 929 186 886 q 214 1001 186 972 q 290 1031 242 1031 q 367 1001 339 1031 q 394 928 394 972 q 367 856 394 885 q 290 826 339 826 q 214 856 242 826 m 150 226 l 150 185 q 174 108 150 133 q 269 83 199 83 q 400 133 339 83 l 400 383 l 251 342 q 172 299 193 325 q 150 226 150 274 m 81 774 q 276 800 160 800 q 507 593 507 800 l 507 0 l 403 0 l 403 57 q 333 11 369 26 q 235 -4 296 -4 q 42 186 42 -4 l 42 231 q 211 425 42 378 l 401 478 l 401 594 q 371 674 400 649 q 249 700 342 700 q 81 672 156 700 l 81 774 z "},"æ":{"ha":903,"x_min":44,"x_max":860,"o":"m 756 589 q 631 713 756 713 q 507 589 507 713 l 507 433 l 756 433 l 756 589 m 150 226 l 150 185 q 175 108 150 132 q 257 83 200 83 q 401 128 346 83 l 401 385 l 251 342 q 172 299 193 325 q 150 226 150 274 m 454 736 q 635 807 522 807 q 804 748 749 807 q 860 590 860 689 l 860 343 l 507 343 l 507 210 q 674 92 507 92 q 838 117 760 92 l 838 15 q 667 -7 757 -7 q 457 57 521 -7 q 243 -6 378 -6 q 44 185 44 -6 l 44 231 q 84 353 44 306 q 211 425 124 400 l 400 481 l 400 597 q 370 674 400 649 q 250 700 340 700 q 81 671 160 700 l 81 774 q 265 800 167 800 q 454 736 397 800 z "},"ç":{"ha":515,"x_min":78,"x_max":468,"o":"m 306 -56 q 372 -82 346 -58 q 399 -152 399 -106 q 363 -226 399 -199 q 281 -253 328 -253 q 203 -244 233 -253 l 203 -185 q 261 -194 222 -194 q 329 -146 329 -194 q 260 -97 329 -97 l 242 -97 l 261 -4 q 78 194 78 18 l 78 597 q 315 800 78 800 q 465 781 403 800 l 465 681 q 324 699 401 699 q 217 673 247 699 q 188 592 188 647 l 188 200 q 217 119 188 144 q 327 93 247 93 q 468 115 407 93 l 468 13 q 317 -7 390 -7 l 306 -56 z "},"è":{"ha":606,"x_min":78,"x_max":536,"o":"m 78 204 l 78 590 q 135 748 78 689 q 308 807 193 807 q 480 748 424 807 q 536 590 536 689 l 536 343 l 186 343 l 186 210 q 224 121 186 150 q 349 92 261 92 q 513 117 438 92 l 513 15 q 343 -7 432 -7 q 78 204 78 -7 m 186 433 l 431 433 l 431 589 q 308 713 431 713 q 186 589 186 713 l 186 433 m 350 854 l 282 854 l 197 1004 l 296 1004 l 350 854 z "},"é":{"ha":606,"x_min":78,"x_max":536,"o":"m 78 204 l 78 590 q 135 748 78 689 q 308 807 193 807 q 480 748 424 807 q 536 590 536 689 l 536 343 l 186 343 l 186 210 q 224 121 186 150 q 349 92 261 92 q 513 117 438 92 l 513 15 q 343 -7 432 -7 q 78 204 78 -7 m 186 433 l 431 433 l 431 589 q 308 713 431 713 q 186 589 186 713 l 186 433 m 432 1004 l 347 854 l 279 854 l 333 1004 l 432 1004 z "},"ê":{"ha":606,"x_min":78,"x_max":536,"o":"m 78 204 l 78 590 q 135 748 78 689 q 308 807 193 807 q 480 748 424 807 q 536 590 536 689 l 536 343 l 186 343 l 186 210 q 224 121 186 150 q 349 92 261 92 q 513 117 438 92 l 513 15 q 343 -7 432 -7 q 78 204 78 -7 m 186 433 l 431 433 l 431 589 q 308 713 431 713 q 186 589 186 713 l 186 433 m 317 940 l 265 854 l 201 854 l 272 1004 l 361 1004 l 432 854 l 367 854 l 317 940 z "},"ë":{"ha":606,"x_min":78,"x_max":536,"o":"m 78 204 l 78 590 q 135 748 78 689 q 308 807 193 807 q 480 748 424 807 q 536 590 536 689 l 536 343 l 186 343 l 186 210 q 224 121 186 150 q 349 92 261 92 q 513 117 438 92 l 513 15 q 343 -7 432 -7 q 78 204 78 -7 m 186 433 l 431 433 l 431 589 q 308 713 431 713 q 186 589 186 713 l 186 433 m 272 928 q 272 901 272 928 q 217 874 272 874 q 161 928 161 874 q 217 982 161 982 q 272 928 272 982 m 464 928 q 464 901 464 928 q 408 874 464 874 q 353 928 353 874 q 408 982 353 982 q 464 928 464 982 z "},"ì":{"ha":294,"x_min":26,"x_max":201,"o":"m 26 1004 l 125 1004 l 179 854 l 111 854 l 26 1004 m 92 786 l 201 786 l 201 0 l 92 0 l 92 786 z "},"í":{"ha":294,"x_min":92,"x_max":265,"o":"m 167 1004 l 265 1004 l 181 854 l 113 854 l 167 1004 m 92 786 l 201 786 l 201 0 l 92 0 l 92 786 z "},"î":{"ha":294,"x_min":33,"x_max":264,"o":"m 92 0 l 92 786 l 201 786 l 201 0 l 92 0 m 149 940 l 97 854 l 33 854 l 104 1004 l 193 1004 l 264 854 l 199 854 l 149 940 z "},"ï":{"ha":294,"x_min":-4,"x_max":299,"o":"m 243 874 q 215 874 243 874 q 188 928 188 874 q 243 982 188 982 q 299 928 299 982 q 243 874 299 874 m 51 874 q 24 874 51 874 q -4 928 -4 874 q 51 982 -4 982 q 107 928 107 982 q 51 874 107 874 m 92 786 l 201 786 l 201 0 l 92 0 l 92 786 z "},"ð":{"ha":629,"x_min":85,"x_max":543,"o":"m 543 426 l 543 206 q 486 47 543 106 q 314 -12 429 -12 q 142 47 199 -12 q 85 206 85 106 l 85 410 q 137 563 85 507 q 294 619 189 619 q 417 576 371 619 q 335 769 389 679 l 185 694 l 185 769 l 299 826 q 207 936 264 876 l 343 936 q 393 872 368 910 l 533 942 l 533 868 l 429 817 q 543 426 543 624 m 436 207 l 436 488 q 314 531 396 531 q 192 407 192 531 l 192 207 q 314 85 192 85 q 436 207 436 85 z "},"ñ":{"ha":628,"x_min":92,"x_max":543,"o":"m 419 993 l 493 993 l 493 975 q 469 897 493 925 q 404 868 444 868 q 316 896 364 868 q 249 924 268 924 q 218 879 218 924 l 218 865 l 144 865 l 144 882 q 169 960 144 931 q 235 990 193 990 q 326 963 278 990 q 389 935 374 935 q 419 978 419 935 l 419 993 m 197 757 q 367 796 290 796 q 493 749 443 796 q 543 614 543 701 l 543 0 l 432 0 l 432 599 q 338 694 432 694 q 201 660 271 694 l 201 0 l 92 0 l 92 793 l 197 793 l 197 757 z "},"ò":{"ha":615,"x_min":78,"x_max":536,"o":"m 194 1004 l 293 1004 l 347 854 l 279 854 l 194 1004 m 428 589 q 307 711 428 711 q 186 589 186 711 l 186 204 q 307 82 186 82 q 428 204 428 82 l 428 589 m 78 590 q 135 748 78 689 q 307 807 192 807 q 479 748 422 807 q 536 590 536 689 l 536 201 q 479 44 536 103 q 307 -14 422 -14 q 135 44 192 -14 q 78 201 78 103 l 78 590 z "},"ó":{"ha":615,"x_min":78,"x_max":536,"o":"m 428 589 q 307 711 428 711 q 186 589 186 711 l 186 204 q 307 82 186 82 q 428 204 428 82 l 428 589 m 78 590 q 135 748 78 689 q 307 807 192 807 q 479 748 422 807 q 536 590 536 689 l 536 201 q 479 44 536 103 q 307 -14 422 -14 q 135 44 192 -14 q 78 201 78 103 l 78 590 m 333 1004 l 432 1004 l 347 854 l 279 854 l 333 1004 z "},"ô":{"ha":615,"x_min":78,"x_max":536,"o":"m 78 201 l 78 590 q 135 748 78 689 q 307 807 192 807 q 479 748 422 807 q 536 590 536 689 l 536 201 q 479 44 536 103 q 307 -14 422 -14 q 135 44 192 -14 q 78 201 78 103 m 428 204 l 428 589 q 307 711 428 711 q 186 589 186 711 l 186 204 q 307 82 186 82 q 428 204 428 82 m 313 940 l 261 854 l 197 854 l 268 1004 l 357 1004 l 428 854 l 363 854 l 313 940 z "},"õ":{"ha":615,"x_min":78,"x_max":536,"o":"m 414 993 l 488 993 l 488 975 q 463 897 488 925 q 399 868 439 868 q 310 896 358 868 q 243 924 263 924 q 213 879 213 924 l 213 865 l 139 865 l 139 882 q 163 960 139 931 q 230 990 188 990 q 320 963 272 990 q 383 935 368 935 q 414 978 414 935 l 414 993 m 428 589 q 307 711 428 711 q 186 589 186 711 l 186 204 q 307 82 186 82 q 428 204 428 82 l 428 589 m 78 590 q 135 748 78 689 q 307 807 192 807 q 479 748 422 807 q 536 590 536 689 l 536 201 q 479 44 536 103 q 307 -14 422 -14 q 135 44 192 -14 q 78 201 78 103 l 78 590 z "},"ö":{"ha":615,"x_min":78,"x_max":536,"o":"m 428 589 q 307 711 428 711 q 186 589 186 711 l 186 204 q 307 82 186 82 q 428 204 428 82 l 428 589 m 78 590 q 135 748 78 689 q 307 807 192 807 q 479 748 422 807 q 536 590 536 689 l 536 201 q 479 44 536 103 q 307 -14 422 -14 q 135 44 192 -14 q 78 201 78 103 l 78 590 m 413 874 q 385 874 413 874 q 357 928 357 874 q 413 982 357 982 q 468 928 468 982 q 413 874 468 874 m 221 874 q 193 874 221 874 q 165 928 165 874 q 221 982 165 982 q 276 928 276 982 q 221 874 276 874 z "},"÷":{"ha":615,"x_min":56,"x_max":558,"o":"m 310 624 q 278 624 310 624 q 247 686 247 624 q 310 749 247 749 q 372 686 372 749 q 310 624 372 624 m 311 147 q 247 210 247 147 q 310 272 247 272 q 372 210 372 272 q 311 147 372 147 m 56 496 l 558 496 l 558 404 l 56 404 l 56 496 z "},"ø":{"ha":615,"x_min":78,"x_max":544,"o":"m 536 590 l 536 201 q 479 44 536 103 q 320 -14 422 -14 q 161 24 218 -14 l 150 0 l 81 0 l 115 68 q 78 201 78 119 l 78 590 q 135 748 78 689 q 297 807 192 807 q 461 764 403 807 l 475 793 l 544 793 l 506 715 q 536 590 536 664 m 186 589 l 186 213 l 411 664 q 307 711 382 711 q 186 589 186 711 m 428 204 l 428 558 l 210 119 q 307 82 239 82 q 428 204 428 82 z "},"ù":{"ha":629,"x_min":85,"x_max":538,"o":"m 189 1004 l 288 1004 l 342 854 l 274 854 l 189 1004 m 301 94 q 428 135 364 94 l 428 793 l 538 793 l 538 0 l 432 0 l 432 38 q 274 -3 365 -3 q 134 47 183 -3 q 85 193 85 97 l 85 793 l 196 793 l 196 206 q 301 94 196 94 z "},"ú":{"ha":629,"x_min":85,"x_max":538,"o":"m 301 94 q 428 135 364 94 l 428 793 l 538 793 l 538 0 l 432 0 l 432 38 q 274 -3 365 -3 q 134 47 183 -3 q 85 193 85 97 l 85 793 l 196 793 l 196 206 q 301 94 196 94 m 332 1004 l 431 1004 l 346 854 l 278 854 l 332 1004 z "},"û":{"ha":629,"x_min":85,"x_max":538,"o":"m 301 94 q 428 135 364 94 l 428 793 l 538 793 l 538 0 l 432 0 l 432 38 q 274 -3 365 -3 q 134 47 183 -3 q 85 193 85 97 l 85 793 l 196 793 l 196 206 q 301 94 196 94 m 314 940 l 263 854 l 199 854 l 269 1004 l 358 1004 l 429 854 l 364 854 l 314 940 z "},"ü":{"ha":629,"x_min":85,"x_max":538,"o":"m 301 94 q 428 135 364 94 l 428 793 l 538 793 l 538 0 l 432 0 l 432 38 q 274 -3 365 -3 q 134 47 183 -3 q 85 193 85 97 l 85 793 l 196 793 l 196 206 q 301 94 196 94 m 411 874 q 383 874 411 874 q 356 928 356 874 q 411 982 356 982 q 467 928 467 982 q 411 874 467 874 m 219 874 q 192 874 219 874 q 164 928 164 874 q 219 982 164 982 q 275 928 275 982 q 219 874 275 874 z "},"ý":{"ha":547,"x_min":24,"x_max":524,"o":"m 290 1004 l 389 1004 l 304 854 l 236 854 l 290 1004 m 414 793 l 524 793 l 308 -207 l 203 -207 l 246 0 l 196 0 l 24 793 l 135 793 q 274 79 246 264 q 333 413 300 243 l 414 793 z "},"þ":{"ha":633,"x_min":92,"x_max":544,"o":"m 435 600 q 338 696 435 696 q 201 661 276 696 l 201 99 l 313 99 q 435 215 435 99 l 435 600 m 92 1004 l 201 1004 l 201 758 q 366 796 288 796 q 494 749 444 796 q 544 614 544 701 l 544 207 q 488 54 544 108 q 339 0 432 0 l 201 0 l 201 -240 l 92 -240 l 92 1004 z "},"ÿ":{"ha":547,"x_min":24,"x_max":524,"o":"m 414 793 l 524 793 l 308 -207 l 203 -207 l 246 0 l 196 0 l 24 793 l 135 793 q 274 79 246 264 q 333 413 300 243 l 414 793 m 367 874 q 339 874 367 874 q 311 928 311 874 q 367 982 311 982 q 422 928 422 982 q 367 874 422 874 m 175 874 q 147 874 175 874 q 119 928 119 874 q 175 982 119 982 q 231 928 231 982 q 175 874 231 874 z "},"Ā":{"ha":615,"x_min":22,"x_max":593,"o":"m 485 0 l 429 257 l 185 257 l 131 0 l 22 0 l 231 936 l 385 936 l 593 0 l 485 0 m 204 351 l 410 351 l 306 832 l 204 351 m 461 1103 l 461 1033 l 147 1033 l 147 1103 l 461 1103 z "},"ā":{"ha":592,"x_min":42,"x_max":507,"o":"m 133 964 l 447 964 l 447 894 l 133 894 l 133 964 m 150 226 l 150 185 q 174 108 150 133 q 269 83 199 83 q 400 133 339 83 l 400 383 l 251 342 q 172 299 193 325 q 150 226 150 274 m 81 774 q 276 800 160 800 q 507 593 507 800 l 507 0 l 403 0 l 403 57 q 333 11 369 26 q 235 -4 296 -4 q 42 186 42 -4 l 42 231 q 211 425 42 378 l 401 478 l 401 594 q 371 674 400 649 q 249 700 342 700 q 81 672 156 700 l 81 774 z "},"Ă":{"ha":615,"x_min":22,"x_max":593,"o":"m 485 0 l 429 257 l 185 257 l 131 0 l 22 0 l 231 936 l 385 936 l 593 0 l 485 0 m 204 351 l 410 351 l 306 832 l 204 351 m 417 1035 q 397 1014 417 1035 q 307 993 376 993 q 197 1035 238 993 q 153 1143 156 1078 l 226 1143 q 249 1082 228 1104 q 307 1060 269 1060 q 365 1082 344 1060 q 388 1143 386 1104 l 461 1143 q 417 1035 458 1076 z "},"ă":{"ha":592,"x_min":42,"x_max":507,"o":"m 405 896 q 384 875 405 896 q 294 854 364 854 q 184 897 225 854 q 140 1004 143 939 l 214 1004 q 236 943 215 965 q 294 921 257 921 q 353 943 332 921 q 375 1004 374 965 l 449 1004 q 405 896 446 938 m 150 226 l 150 185 q 174 108 150 133 q 269 83 199 83 q 400 133 339 83 l 400 383 l 251 342 q 172 299 193 325 q 150 226 150 274 m 81 774 q 276 800 160 800 q 507 593 507 800 l 507 0 l 403 0 l 403 57 q 333 11 369 26 q 235 -4 296 -4 q 42 186 42 -4 l 42 231 q 211 425 42 378 l 401 478 l 401 594 q 371 674 400 649 q 249 700 342 700 q 81 672 156 700 l 81 774 z "},"Ą":{"ha":615,"x_min":22,"x_max":593,"o":"m 525 -129 q 575 -179 525 -179 l 592 -179 l 592 -249 l 569 -249 q 454 -151 454 -249 q 539 0 454 -65 l 485 0 l 429 257 l 185 257 l 131 0 l 22 0 l 231 936 l 385 936 l 593 0 l 592 0 q 525 -129 525 -53 m 204 351 l 410 351 l 306 832 l 204 351 z "},"ą":{"ha":592,"x_min":42,"x_max":507,"o":"m 81 774 q 276 800 160 800 q 507 593 507 800 l 507 0 l 506 0 q 439 -129 439 -53 q 489 -179 439 -179 l 506 -179 l 506 -249 l 483 -249 q 368 -151 368 -249 q 453 0 368 -65 l 403 0 l 403 57 q 333 11 369 26 q 235 -4 296 -4 q 42 186 42 -4 l 42 231 q 211 425 42 378 l 401 478 l 401 594 q 371 674 400 649 q 249 700 342 700 q 81 672 156 700 l 81 774 m 150 226 l 150 185 q 174 108 150 133 q 269 83 199 83 q 400 133 339 83 l 400 383 l 251 342 q 172 299 193 325 q 150 226 150 274 z "},"Ć":{"ha":550,"x_min":78,"x_max":500,"o":"m 78 742 q 142 890 78 838 q 335 943 206 943 q 497 921 417 943 l 497 819 q 339 843 424 843 q 222 816 254 843 q 189 736 189 789 l 189 200 q 222 119 189 146 q 336 92 254 92 q 500 115 418 92 l 500 15 q 317 -7 431 -7 q 141 45 204 -7 q 78 193 78 97 l 78 742 m 336 1143 l 435 1143 l 350 993 l 282 993 l 336 1143 z "},"ć":{"ha":515,"x_min":78,"x_max":468,"o":"m 78 597 q 315 800 78 800 q 465 781 403 800 l 465 681 q 324 699 401 699 q 217 673 247 699 q 188 592 188 647 l 188 200 q 217 119 188 144 q 327 93 247 93 q 468 115 407 93 l 468 13 q 315 -7 390 -7 q 78 194 78 -7 l 78 597 m 333 1004 l 432 1004 l 347 854 l 279 854 l 333 1004 z "},"Č":{"ha":550,"x_min":78,"x_max":500,"o":"m 189 736 l 189 200 q 222 119 189 146 q 336 92 254 92 q 500 115 418 92 l 500 15 q 317 -7 431 -7 q 141 45 204 -7 q 78 193 78 97 l 78 742 q 142 890 78 838 q 335 943 206 943 q 497 921 417 943 l 497 819 q 339 843 424 843 q 222 816 254 843 q 189 736 189 789 m 272 993 l 201 1143 l 265 1143 l 317 1057 l 367 1143 l 432 1143 l 361 993 l 272 993 z "},"č":{"ha":515,"x_min":78,"x_max":468,"o":"m 188 592 l 188 200 q 217 119 188 144 q 327 93 247 93 q 468 115 407 93 l 468 13 q 315 -7 390 -7 q 78 194 78 -7 l 78 597 q 315 800 78 800 q 465 781 403 800 l 465 681 q 324 699 401 699 q 217 673 247 699 q 188 592 188 647 m 263 854 l 192 1004 l 256 1004 l 307 918 l 357 1004 l 422 1004 l 351 854 l 263 854 z "},"Ď":{"ha":650,"x_min":92,"x_max":572,"o":"m 92 936 l 346 936 q 515 880 457 936 q 572 726 572 824 l 572 214 q 517 58 572 115 q 350 0 461 0 l 92 0 l 92 936 m 463 218 l 463 724 q 338 842 463 842 l 201 842 l 201 96 l 338 96 q 463 218 463 96 m 269 993 l 199 1143 l 263 1143 l 314 1057 l 364 1143 l 429 1143 l 358 993 l 269 993 z "},"ď":{"ha":633,"x_min":78,"x_max":703,"o":"m 664 1001 q 703 965 703 1001 q 636 828 703 928 l 586 828 l 624 1001 l 664 1001 m 421 694 l 314 694 q 188 579 188 694 l 188 203 q 293 94 188 94 q 421 139 374 94 l 421 694 m 421 1004 l 531 1004 l 531 0 l 424 0 l 424 47 q 270 -4 363 -4 q 128 47 178 -4 q 78 193 78 99 l 78 581 q 137 738 78 682 q 297 793 196 793 l 421 793 l 421 1004 z "},"Đ":{"ha":653,"x_min":11,"x_max":576,"o":"m 96 936 l 350 936 q 519 880 461 936 q 576 726 576 824 l 576 214 q 521 58 576 115 q 354 0 465 0 l 96 0 l 96 419 l 11 419 l 11 513 l 96 513 l 96 936 m 467 218 l 467 724 q 342 842 467 842 l 206 842 l 206 513 l 340 513 l 340 419 l 206 419 l 206 96 l 342 96 q 467 218 467 96 z "},"đ":{"ha":624,"x_min":79,"x_max":588,"o":"m 588 939 l 588 872 l 532 872 l 532 0 l 425 0 l 425 47 q 272 -4 364 -4 q 129 47 179 -4 q 79 193 79 99 l 79 581 q 138 738 79 682 q 299 793 197 793 l 422 793 l 422 872 l 249 872 l 249 939 l 422 939 l 422 1004 l 532 1004 l 532 939 l 588 939 m 422 694 l 315 694 q 189 579 189 694 l 189 203 q 294 94 189 94 q 422 139 375 94 l 422 694 z "},"Ē":{"ha":556,"x_min":92,"x_max":506,"o":"m 142 1103 l 456 1103 l 456 1033 l 142 1033 l 142 1103 m 92 936 l 506 936 l 506 839 l 201 839 l 201 521 l 465 521 l 465 424 l 201 424 l 201 96 l 506 96 l 506 0 l 92 0 l 92 936 z "},"ē":{"ha":606,"x_min":78,"x_max":536,"o":"m 78 204 l 78 590 q 135 748 78 689 q 308 807 193 807 q 480 748 424 807 q 536 590 536 689 l 536 343 l 186 343 l 186 210 q 224 121 186 150 q 349 92 261 92 q 513 117 438 92 l 513 15 q 343 -7 432 -7 q 78 204 78 -7 m 186 433 l 431 433 l 431 589 q 308 713 431 713 q 186 589 186 713 l 186 433 m 465 964 l 465 894 l 151 894 l 151 964 l 465 964 z "},"Ė":{"ha":556,"x_min":92,"x_max":506,"o":"m 305 1040 q 277 1040 305 1040 q 249 1095 249 1040 q 305 1150 249 1150 q 361 1095 361 1150 q 305 1040 361 1040 m 92 936 l 506 936 l 506 839 l 201 839 l 201 521 l 465 521 l 465 424 l 201 424 l 201 96 l 506 96 l 506 0 l 92 0 l 92 936 z "},"ė":{"ha":606,"x_min":78,"x_max":536,"o":"m 78 204 l 78 590 q 135 748 78 689 q 308 807 193 807 q 480 748 424 807 q 536 590 536 689 l 536 343 l 186 343 l 186 210 q 224 121 186 150 q 349 92 261 92 q 513 117 438 92 l 513 15 q 343 -7 432 -7 q 78 204 78 -7 m 186 433 l 431 433 l 431 589 q 308 713 431 713 q 186 589 186 713 l 186 433 m 368 956 q 368 929 368 956 q 312 901 368 901 q 256 956 256 901 q 312 1011 256 1011 q 368 956 368 1011 z "},"Ę":{"ha":556,"x_min":92,"x_max":506,"o":"m 506 839 l 201 839 l 201 521 l 465 521 l 465 424 l 201 424 l 201 96 l 506 96 l 506 0 q 439 -129 439 -53 q 489 -179 439 -179 l 506 -179 l 506 -249 l 483 -249 q 368 -151 368 -249 q 453 0 368 -65 l 92 0 l 92 936 l 506 936 l 506 839 z "},"ę":{"ha":606,"x_min":78,"x_max":536,"o":"m 78 204 l 78 590 q 135 748 78 689 q 308 807 193 807 q 480 748 424 807 q 536 590 536 689 l 536 343 l 186 343 l 186 210 q 224 121 186 150 q 349 92 261 92 q 513 117 438 92 l 513 15 q 446 -114 446 -37 q 496 -164 446 -164 l 513 -164 l 513 -233 l 490 -233 q 375 -136 375 -233 q 442 0 375 -64 q 343 -7 396 -7 q 78 204 78 -7 m 186 433 l 431 433 l 431 589 q 308 713 431 713 q 186 589 186 713 l 186 433 z "},"Ě":{"ha":556,"x_min":92,"x_max":506,"o":"m 506 839 l 201 839 l 201 521 l 465 521 l 465 424 l 201 424 l 201 96 l 506 96 l 506 0 l 92 0 l 92 936 l 506 936 l 506 839 m 256 993 l 185 1143 l 249 1143 l 300 1057 l 350 1143 l 415 1143 l 344 993 l 256 993 z "},"ě":{"ha":606,"x_min":78,"x_max":536,"o":"m 78 204 l 78 590 q 135 748 78 689 q 308 807 193 807 q 480 748 424 807 q 536 590 536 689 l 536 343 l 186 343 l 186 210 q 224 121 186 150 q 349 92 261 92 q 513 117 438 92 l 513 15 q 343 -7 432 -7 q 78 204 78 -7 m 186 433 l 431 433 l 431 589 q 308 713 431 713 q 186 589 186 713 l 186 433 m 268 854 l 197 1004 l 261 1004 l 313 918 l 363 1004 l 428 1004 l 357 854 l 268 854 z "},"Ğ":{"ha":625,"x_min":78,"x_max":544,"o":"m 431 1035 q 411 1014 431 1035 q 321 993 390 993 q 210 1035 251 993 q 167 1143 169 1078 l 240 1143 q 263 1082 242 1104 q 321 1060 283 1060 q 379 1082 358 1060 q 401 1143 400 1104 l 475 1143 q 431 1035 472 1076 m 78 735 q 143 888 78 832 q 343 943 208 943 q 514 919 435 943 l 514 814 q 349 842 436 842 q 225 813 261 842 q 189 728 189 783 l 189 200 q 318 92 189 92 q 436 118 397 92 l 436 464 l 544 464 l 544 49 q 328 -7 449 -7 q 78 193 78 -7 l 78 735 z "},"ğ":{"ha":621,"x_min":50,"x_max":594,"o":"m 594 751 l 549 751 q 488 736 514 751 q 531 603 531 685 l 531 490 q 472 342 531 396 q 297 286 414 288 q 224 217 224 286 q 242 171 224 185 q 310 157 261 157 l 390 157 q 583 -7 583 157 l 583 -26 q 328 -207 583 -207 l 272 -207 q 50 -162 128 -207 l 50 -58 q 271 -112 142 -112 l 318 -112 q 479 -25 479 -112 l 479 -12 q 460 44 479 25 q 383 64 440 64 l 299 64 q 125 183 125 64 l 125 206 q 144 267 125 242 q 196 299 164 292 q 58 490 58 338 l 58 603 q 117 753 58 699 q 282 807 176 807 q 446 772 388 807 q 574 856 472 856 l 594 856 l 594 751 m 294 715 q 167 601 167 715 l 167 492 q 294 379 167 379 q 421 492 421 379 l 421 601 q 391 687 421 658 q 294 715 361 715 m 406 896 q 386 875 406 896 q 296 854 365 854 q 185 897 226 854 q 142 1004 144 939 l 215 1004 q 238 943 217 965 q 296 921 258 921 q 354 943 333 921 q 376 1004 375 965 l 450 1004 q 406 896 447 938 z "},"Ģ":{"ha":625,"x_min":78,"x_max":544,"o":"m 340 -85 q 379 -125 379 -85 q 313 -258 379 -165 l 263 -258 l 300 -85 l 340 -85 m 78 735 q 143 888 78 832 q 343 943 208 943 q 514 919 435 943 l 514 814 q 349 842 436 842 q 225 813 261 842 q 189 728 189 783 l 189 200 q 318 92 189 92 q 436 118 397 92 l 436 464 l 544 464 l 544 49 q 328 -7 449 -7 q 78 193 78 -7 l 78 735 z "},"ģ":{"ha":621,"x_min":50,"x_max":594,"o":"m 594 751 l 549 751 q 488 736 514 751 q 531 603 531 685 l 531 490 q 472 342 531 396 q 297 286 414 288 q 224 217 224 286 q 242 171 224 185 q 310 157 261 157 l 390 157 q 583 -7 583 157 l 583 -26 q 328 -207 583 -207 l 272 -207 q 50 -162 128 -207 l 50 -58 q 271 -112 142 -112 l 318 -112 q 479 -25 479 -112 l 479 -12 q 460 44 479 25 q 383 64 440 64 l 299 64 q 125 183 125 64 l 125 206 q 144 267 125 242 q 196 299 164 292 q 58 490 58 338 l 58 603 q 117 753 58 699 q 282 807 176 807 q 446 772 388 807 q 574 856 472 856 l 594 856 l 594 751 m 294 715 q 167 601 167 715 l 167 492 q 294 379 167 379 q 421 492 421 379 l 421 601 q 391 687 421 658 q 294 715 361 715 m 290 854 q 251 891 251 854 q 318 1028 251 928 l 368 1028 l 332 854 l 290 854 z "},"Ī":{"ha":294,"x_min":-7,"x_max":307,"o":"m -7 1103 l 307 1103 l 307 1033 l -7 1033 l -7 1103 m 92 936 l 203 936 l 203 0 l 92 0 l 92 936 z "},"ī":{"ha":294,"x_min":-10,"x_max":304,"o":"m -10 964 l 304 964 l 304 894 l -10 894 l -10 964 m 92 786 l 201 786 l 201 0 l 92 0 l 92 786 z "},"Į":{"ha":294,"x_min":65,"x_max":203,"o":"m 203 936 l 203 0 q 136 -129 136 -53 q 186 -179 136 -179 l 203 -179 l 203 -249 l 181 -249 q 65 -151 65 -249 q 150 0 65 -65 l 92 0 l 92 936 l 203 936 z "},"į":{"ha":294,"x_min":65,"x_max":213,"o":"m 201 0 l 203 0 q 136 -129 136 -53 q 186 -179 136 -179 l 203 -179 l 203 -249 l 181 -249 q 65 -151 65 -249 q 150 0 65 -65 l 92 0 l 92 786 l 201 786 l 201 0 m 213 944 q 213 910 213 944 q 147 876 213 876 q 81 944 81 876 q 147 1011 81 1011 q 213 944 213 1011 z "},"İ":{"ha":294,"x_min":88,"x_max":203,"o":"m 144 1040 q 116 1040 144 1040 q 88 1095 88 1040 q 144 1150 88 1150 q 200 1095 200 1150 q 144 1040 200 1040 m 92 936 l 203 936 l 203 0 l 92 0 l 92 936 z "},"ı":{"ha":294,"x_min":92,"x_max":201,"o":"m 92 786 l 201 786 l 201 0 l 92 0 l 92 786 z "},"Ķ":{"ha":608,"x_min":92,"x_max":586,"o":"m 331 -85 q 369 -122 369 -85 q 303 -258 369 -158 l 253 -258 l 289 -85 l 331 -85 m 92 936 l 201 936 l 201 0 l 92 0 l 92 936 m 457 936 l 575 936 l 381 471 l 586 0 l 465 0 l 264 468 l 457 936 z "},"ķ":{"ha":563,"x_min":92,"x_max":542,"o":"m 300 -85 q 339 -125 339 -85 q 272 -258 339 -165 l 222 -258 l 260 -85 l 300 -85 m 92 1004 l 200 1004 l 200 0 l 92 0 l 92 1004 m 413 793 l 528 793 l 358 413 l 542 0 l 422 0 l 244 414 l 413 793 z "},"Ĺ":{"ha":490,"x_min":92,"x_max":483,"o":"m 92 936 l 203 936 l 203 94 l 483 94 l 483 0 l 92 0 l 92 936 m 164 1143 l 263 1143 l 178 993 l 110 993 l 164 1143 z "},"ĺ":{"ha":294,"x_min":92,"x_max":263,"o":"m 92 1004 l 201 1004 l 201 0 l 92 0 l 92 1004 m 164 1213 l 263 1213 l 178 1063 l 110 1063 l 164 1213 z "},"Ļ":{"ha":490,"x_min":92,"x_max":483,"o":"m 289 -85 q 328 -122 328 -85 q 261 -258 328 -158 l 211 -258 l 247 -85 l 289 -85 m 92 936 l 203 936 l 203 94 l 483 94 l 483 0 l 92 0 l 92 936 z "},"ļ":{"ha":294,"x_min":74,"x_max":201,"o":"m 151 -85 q 190 -125 190 -85 q 124 -258 190 -165 l 74 -258 l 111 -85 l 151 -85 m 92 1004 l 201 1004 l 201 0 l 92 0 l 92 1004 z "},"Ľ":{"ha":490,"x_min":31,"x_max":483,"o":"m 203 94 l 483 94 l 483 0 l 92 0 l 92 936 l 203 936 l 203 94 m 101 993 l 31 1143 l 94 1143 l 146 1057 l 196 1143 l 261 1143 l 190 993 l 101 993 z "},"ľ":{"ha":294,"x_min":92,"x_max":374,"o":"m 336 1001 q 374 961 374 1001 q 307 828 374 921 l 258 828 l 294 1001 l 336 1001 m 92 1004 l 201 1004 l 201 0 l 92 0 l 92 1004 z "},"Ł":{"ha":490,"x_min":19,"x_max":488,"o":"m 207 94 l 488 94 l 488 0 l 96 0 l 96 386 l 19 347 l 19 431 l 96 469 l 96 936 l 207 936 l 207 525 l 339 592 l 339 507 l 207 442 l 207 94 z "},"ł":{"ha":296,"x_min":18,"x_max":278,"o":"m 203 0 l 93 0 l 93 600 l 18 560 l 18 644 l 93 685 l 93 1004 l 203 1004 l 203 746 l 278 786 l 278 701 l 203 661 l 203 0 z "},"Ń":{"ha":699,"x_min":92,"x_max":606,"o":"m 510 174 l 497 489 l 497 936 l 606 936 l 606 0 l 483 0 q 240 625 279 518 q 188 763 200 732 l 200 449 l 200 0 l 92 0 l 92 936 l 215 936 l 400 468 q 462 301 426 399 q 510 174 497 204 m 368 1143 l 467 1143 l 382 993 l 314 993 l 368 1143 z "},"ń":{"ha":628,"x_min":92,"x_max":543,"o":"m 197 757 q 367 796 290 796 q 493 749 443 796 q 543 614 543 701 l 543 0 l 432 0 l 432 599 q 338 694 432 694 q 201 660 271 694 l 201 0 l 92 0 l 92 793 l 197 793 l 197 757 m 333 1004 l 432 1004 l 347 854 l 279 854 l 333 1004 z "},"Ņ":{"ha":699,"x_min":92,"x_max":606,"o":"m 339 -85 q 378 -125 378 -85 q 311 -258 378 -165 l 261 -258 l 299 -85 l 339 -85 m 510 174 l 497 489 l 497 936 l 606 936 l 606 0 l 483 0 q 240 625 279 518 q 188 763 200 732 q 200 449 188 763 l 200 0 l 92 0 l 92 936 l 215 936 l 400 468 q 462 301 426 399 q 510 174 497 204 z "},"ņ":{"ha":628,"x_min":92,"x_max":543,"o":"m 313 -85 q 351 -122 351 -85 q 285 -258 351 -158 l 235 -258 l 271 -85 l 313 -85 m 197 757 q 367 796 290 796 q 493 749 443 796 q 543 614 543 701 l 543 0 l 432 0 l 432 599 q 338 694 432 694 q 201 660 271 694 l 201 0 l 92 0 l 92 793 l 197 793 l 197 757 z "},"Ň":{"ha":699,"x_min":92,"x_max":606,"o":"m 510 174 l 497 489 l 497 936 l 606 936 l 606 0 l 483 0 q 240 625 279 518 q 188 763 200 732 l 200 449 l 200 0 l 92 0 l 92 936 l 215 936 l 400 468 q 462 301 426 399 q 510 174 497 204 m 306 993 l 235 1143 l 299 1143 l 350 1057 l 400 1143 l 465 1143 l 394 993 l 306 993 z "},"ň":{"ha":628,"x_min":92,"x_max":543,"o":"m 197 793 l 197 757 q 367 796 290 796 q 493 749 443 796 q 543 614 543 701 l 543 0 l 432 0 l 432 599 q 338 694 432 694 q 201 660 271 694 l 201 0 l 92 0 l 92 793 l 197 793 m 267 854 l 196 1004 l 260 1004 l 311 918 l 361 1004 l 426 1004 l 356 854 l 267 854 z "},"Ō":{"ha":639,"x_min":78,"x_max":560,"o":"m 451 724 q 319 850 451 850 q 188 724 188 850 l 188 213 q 319 85 188 85 q 451 213 451 85 l 451 724 m 78 726 q 139 888 78 826 q 319 950 200 950 q 499 889 439 950 q 560 726 560 828 l 560 208 q 499 47 560 108 q 319 -14 439 -14 q 139 47 200 -14 q 78 208 78 108 l 78 726 m 164 1103 l 478 1103 l 478 1033 l 164 1033 l 164 1103 z "},"ō":{"ha":615,"x_min":78,"x_max":536,"o":"m 428 589 q 307 711 428 711 q 186 589 186 711 l 186 204 q 307 82 186 82 q 428 204 428 82 l 428 589 m 78 590 q 135 748 78 689 q 307 807 192 807 q 479 748 422 807 q 536 590 536 689 l 536 201 q 479 44 536 103 q 307 -14 422 -14 q 135 44 192 -14 q 78 201 78 103 l 78 590 m 149 964 l 463 964 l 463 894 l 149 894 l 149 964 z "},"Ő":{"ha":639,"x_min":78,"x_max":560,"o":"m 451 724 q 319 850 451 850 q 188 724 188 850 l 188 213 q 319 85 188 85 q 451 213 451 85 l 451 724 m 78 726 q 139 888 78 826 q 319 950 200 950 q 499 889 439 950 q 560 726 560 828 l 560 208 q 499 47 560 108 q 319 -14 439 -14 q 139 47 200 -14 q 78 208 78 108 l 78 726 m 279 1143 l 371 1143 l 285 993 l 222 993 l 279 1143 m 403 1143 l 496 1143 l 408 993 l 347 993 l 403 1143 z "},"ő":{"ha":615,"x_min":78,"x_max":536,"o":"m 428 589 q 307 711 428 711 q 186 589 186 711 l 186 204 q 307 82 186 82 q 428 204 428 82 l 428 589 m 78 590 q 135 748 78 689 q 307 807 192 807 q 479 748 422 807 q 536 590 536 689 l 536 201 q 479 44 536 103 q 307 -14 422 -14 q 135 44 192 -14 q 78 201 78 103 l 78 590 m 275 1004 l 367 1004 l 281 854 l 218 854 l 275 1004 m 399 1004 l 492 1004 l 404 854 l 343 854 l 399 1004 z "},"Œ":{"ha":936,"x_min":106,"x_max":896,"o":"m 896 839 l 592 839 l 592 521 l 856 521 l 856 424 l 592 424 l 592 96 l 896 96 l 896 0 l 328 0 q 161 58 217 0 q 106 214 106 115 l 106 726 q 163 880 106 824 q 332 936 221 936 l 896 936 l 896 839 m 340 96 l 482 96 l 482 842 l 340 842 q 215 724 215 842 l 215 218 q 340 96 215 96 z "},"œ":{"ha":975,"x_min":89,"x_max":897,"o":"m 89 201 l 89 590 q 146 748 89 689 q 319 807 203 807 q 493 744 435 807 q 669 807 553 807 q 841 748 785 807 q 897 590 897 689 l 897 343 l 547 343 l 547 210 q 585 121 547 150 q 710 92 622 92 q 874 117 799 92 l 874 15 q 704 -7 793 -7 q 497 51 563 -7 q 319 -14 436 -14 q 146 44 203 -14 q 89 201 89 103 m 439 204 l 439 589 q 318 711 439 711 q 197 589 197 711 l 197 204 q 318 82 197 82 q 439 204 439 82 m 547 433 l 792 433 l 792 589 q 669 713 792 713 q 547 589 547 713 l 547 433 z "},"Ŕ":{"ha":638,"x_min":92,"x_max":585,"o":"m 201 372 l 201 0 l 92 0 l 92 936 l 328 936 q 497 880 439 936 q 554 726 554 824 l 554 585 q 436 389 554 433 l 585 0 l 464 0 l 329 372 l 201 372 m 201 840 l 201 465 l 321 465 q 446 586 446 465 l 446 721 q 321 840 446 840 l 201 840 m 433 1143 l 349 993 l 281 993 l 335 1143 l 433 1143 z "},"ŕ":{"ha":397,"x_min":92,"x_max":390,"o":"m 357 797 l 390 797 l 390 693 l 346 693 q 279 681 306 693 q 201 633 253 668 l 201 0 l 92 0 l 92 793 l 197 793 l 197 733 q 272 782 256 778 q 300 790 288 786 q 357 797 322 797 m 267 1004 l 365 1004 l 281 854 l 213 854 l 267 1004 z "},"Ŗ":{"ha":638,"x_min":92,"x_max":585,"o":"m 201 372 l 201 0 l 92 0 l 92 936 l 328 936 q 497 880 439 936 q 554 726 554 824 l 554 585 q 436 389 554 433 l 585 0 l 464 0 l 329 372 l 201 372 m 201 840 l 201 465 l 321 465 q 446 586 446 465 l 446 721 q 321 840 446 840 l 201 840 m 324 -85 q 363 -125 363 -85 q 296 -258 363 -165 l 246 -258 l 283 -85 l 324 -85 z "},"ŗ":{"ha":397,"x_min":74,"x_max":390,"o":"m 151 -85 q 190 -125 190 -85 q 124 -258 190 -165 l 74 -258 l 111 -85 l 151 -85 m 357 797 l 390 797 l 390 693 l 346 693 q 279 681 306 693 q 201 633 253 668 l 201 0 l 92 0 l 92 793 l 197 793 l 197 733 q 272 782 256 778 q 300 790 288 786 q 357 797 322 797 z "},"Ř":{"ha":638,"x_min":92,"x_max":585,"o":"m 201 372 l 201 0 l 92 0 l 92 936 l 328 936 q 497 880 439 936 q 554 726 554 824 l 554 585 q 436 389 554 433 l 585 0 l 464 0 l 329 372 l 201 372 m 201 840 l 201 465 l 321 465 q 446 586 446 465 l 446 721 q 321 840 446 840 l 201 840 m 267 993 l 196 1143 l 260 1143 l 311 1057 l 361 1143 l 426 1143 l 356 993 l 267 993 z "},"ř":{"ha":397,"x_min":92,"x_max":390,"o":"m 357 797 l 390 797 l 390 693 l 346 693 q 279 681 306 693 q 201 633 253 668 l 201 0 l 92 0 l 92 793 l 197 793 l 197 733 q 272 782 256 778 q 300 790 288 786 q 357 797 322 797 m 200 854 l 129 1004 l 193 1004 l 244 918 l 294 1004 l 360 1004 l 289 854 l 200 854 z "},"Ś":{"ha":546,"x_min":38,"x_max":503,"o":"m 38 743 q 100 890 38 838 q 276 943 163 943 q 465 919 389 943 l 465 815 q 286 842 393 842 q 149 738 149 842 l 149 675 q 167 601 149 628 q 229 549 185 574 l 390 458 q 503 274 503 397 l 503 197 q 436 47 503 100 q 247 -7 369 -7 q 46 21 124 -7 l 46 126 q 233 94 131 94 q 393 206 393 94 l 393 260 q 377 329 393 304 q 318 378 361 354 l 160 465 q 38 661 38 531 l 38 743 m 293 1143 l 392 1143 l 307 993 l 239 993 l 293 1143 z "},"ś":{"ha":506,"x_min":39,"x_max":468,"o":"m 39 604 q 95 751 39 703 q 279 800 151 800 q 435 776 361 800 l 435 676 q 282 701 363 701 q 174 678 201 701 q 146 600 146 654 l 146 567 q 163 502 146 524 q 225 458 179 481 l 344 399 q 468 228 468 336 l 468 190 q 210 -7 468 -7 q 43 15 115 -7 l 43 117 q 201 92 113 92 q 324 117 289 92 q 358 193 358 142 l 358 219 q 340 277 358 256 q 271 325 322 299 l 153 382 q 39 558 39 436 l 39 604 m 282 1004 l 381 1004 l 296 854 l 228 854 l 282 1004 z "},"Ş":{"ha":546,"x_min":38,"x_max":503,"o":"m 261 -85 q 300 -125 300 -85 q 233 -258 300 -165 l 183 -258 l 221 -85 l 261 -85 m 38 743 q 100 890 38 838 q 276 943 163 943 q 465 919 389 943 l 465 815 q 286 842 393 842 q 149 738 149 842 l 149 675 q 167 601 149 628 q 229 549 185 574 l 390 458 q 503 274 503 397 l 503 197 q 436 47 503 100 q 247 -7 369 -7 q 46 21 124 -7 l 46 126 q 233 94 131 94 q 393 206 393 94 l 393 260 q 377 329 393 304 q 318 378 361 354 l 160 465 q 38 661 38 531 l 38 743 z "},"ş":{"ha":506,"x_min":39,"x_max":468,"o":"m 249 -85 q 288 -125 288 -85 q 221 -258 288 -165 l 171 -258 l 208 -85 l 249 -85 m 39 604 q 95 751 39 703 q 279 800 151 800 q 435 776 361 800 l 435 676 q 282 701 363 701 q 174 678 201 701 q 146 600 146 654 l 146 567 q 163 502 146 524 q 225 458 179 481 l 344 399 q 468 228 468 336 l 468 190 q 210 -7 468 -7 q 43 15 115 -7 l 43 117 q 201 92 113 92 q 324 117 289 92 q 358 193 358 142 l 358 219 q 340 277 358 256 q 271 325 322 299 l 153 382 q 39 558 39 436 l 39 604 z "},"Š":{"ha":546,"x_min":38,"x_max":503,"o":"m 503 274 l 503 197 q 436 47 503 100 q 247 -7 369 -7 q 46 21 124 -7 l 46 126 q 233 94 131 94 q 393 206 393 94 l 393 260 q 377 329 393 304 q 318 378 361 354 l 160 465 q 38 661 38 531 l 38 743 q 100 890 38 838 q 276 943 163 943 q 465 919 389 943 l 465 815 q 286 842 393 842 q 149 738 149 842 l 149 675 q 167 601 149 628 q 229 549 185 574 l 390 458 q 503 274 503 397 m 235 993 l 164 1143 l 228 1143 l 279 1057 l 329 1143 l 394 1143 l 324 993 l 235 993 z "},"š":{"ha":506,"x_min":39,"x_max":468,"o":"m 468 228 l 468 190 q 210 -7 468 -7 q 43 15 115 -7 l 43 117 q 201 92 113 92 q 324 117 289 92 q 358 193 358 142 l 358 219 q 340 277 358 256 q 271 325 322 299 l 153 382 q 39 558 39 436 l 39 604 q 95 751 39 703 q 279 800 151 800 q 435 776 361 800 l 435 676 q 282 701 363 701 q 174 678 201 701 q 146 600 146 654 l 146 567 q 163 502 146 524 q 225 458 179 481 l 344 399 q 468 228 468 336 m 214 854 l 143 1004 l 207 1004 l 258 918 l 308 1004 l 374 1004 l 303 854 l 214 854 z "},"Ţ":{"ha":494,"x_min":13,"x_max":483,"o":"m 483 936 l 483 839 l 303 839 l 303 0 l 193 0 l 193 839 l 13 839 l 13 936 l 483 936 m 254 -85 q 293 -122 293 -85 q 226 -258 293 -158 l 176 -258 l 213 -85 l 254 -85 z "},"ţ":{"ha":407,"x_min":7,"x_max":386,"o":"m 249 -85 q 288 -125 288 -85 q 221 -258 288 -165 l 171 -258 l 208 -85 l 249 -85 m 201 936 l 201 793 l 374 793 l 374 697 l 201 697 l 201 179 q 293 92 201 92 q 386 107 325 92 l 386 8 q 281 -7 333 -7 q 93 174 93 -7 l 93 697 l 7 697 l 7 793 l 96 793 l 128 936 l 201 936 z "},"Ť":{"ha":494,"x_min":13,"x_max":483,"o":"m 483 936 l 483 839 l 303 839 l 303 0 l 193 0 l 193 839 l 13 839 l 13 936 l 483 936 m 201 993 l 131 1143 l 194 1143 l 246 1057 l 296 1143 l 361 1143 l 290 993 l 201 993 z "},"ť":{"ha":407,"x_min":7,"x_max":443,"o":"m 201 936 l 201 793 l 374 793 l 374 697 l 201 697 l 201 179 q 293 92 201 92 q 386 107 325 92 l 386 8 q 281 -7 333 -7 q 93 174 93 -7 l 93 697 l 7 697 l 7 793 l 96 793 l 128 936 l 201 936 m 403 1089 q 443 1053 443 1089 q 367 863 443 1011 l 318 863 l 363 1089 l 403 1089 z "},"Ū":{"ha":651,"x_min":85,"x_max":565,"o":"m 168 1103 l 482 1103 l 482 1033 l 168 1033 l 168 1103 m 457 936 l 565 936 l 565 208 q 505 47 565 108 q 325 -14 444 -14 q 145 47 206 -14 q 85 208 85 108 l 85 936 l 194 936 l 194 213 q 326 85 194 85 q 457 213 457 85 l 457 936 z "},"ū":{"ha":629,"x_min":85,"x_max":538,"o":"m 153 964 l 467 964 l 467 894 l 153 894 l 153 964 m 301 94 q 428 135 364 94 l 428 793 l 538 793 l 538 0 l 432 0 l 432 38 q 274 -3 365 -3 q 134 47 183 -3 q 85 193 85 97 l 85 793 l 196 793 l 196 206 q 301 94 196 94 z "},"Ů":{"ha":651,"x_min":85,"x_max":565,"o":"m 457 936 l 565 936 l 565 208 q 505 47 565 108 q 325 -14 444 -14 q 145 47 206 -14 q 85 208 85 108 l 85 936 l 194 936 l 194 213 q 326 85 194 85 q 457 213 457 85 l 457 936 m 375 1068 q 363 1102 375 1089 q 328 1115 350 1115 q 293 1102 306 1115 q 281 1068 281 1089 q 328 1019 281 1019 q 375 1068 375 1019 m 251 995 q 238 1010 251 995 q 224 1068 224 1025 q 251 1140 224 1111 q 328 1169 279 1169 q 404 1140 376 1169 q 432 1067 432 1111 q 404 994 432 1024 q 328 965 376 965 q 251 995 279 965 z "},"ů":{"ha":629,"x_min":85,"x_max":538,"o":"m 301 94 q 428 135 364 94 l 428 793 l 538 793 l 538 0 l 432 0 l 432 38 q 274 -3 365 -3 q 134 47 183 -3 q 85 193 85 97 l 85 793 l 196 793 l 196 206 q 301 94 196 94 m 360 929 q 347 963 360 950 q 313 976 335 976 q 278 963 290 976 q 265 929 265 950 q 313 881 265 881 q 360 929 360 881 m 236 856 q 222 871 236 856 q 208 929 208 886 q 236 1001 208 972 q 313 1031 264 1031 q 389 1001 361 1031 q 417 928 417 972 q 389 856 417 885 q 313 826 361 826 q 236 856 264 826 z "},"Ű":{"ha":651,"x_min":85,"x_max":565,"o":"m 276 1143 l 368 1143 l 282 993 l 219 993 l 276 1143 m 400 1143 l 493 1143 l 406 993 l 344 993 l 400 1143 m 457 936 l 565 936 l 565 208 q 505 47 565 108 q 325 -14 444 -14 q 145 47 206 -14 q 85 208 85 108 l 85 936 l 194 936 l 194 213 q 326 85 194 85 q 457 213 457 85 l 457 936 z "},"ű":{"ha":629,"x_min":85,"x_max":538,"o":"m 268 1004 l 360 1004 l 274 854 l 211 854 l 268 1004 m 392 1004 l 485 1004 l 397 854 l 336 854 l 392 1004 m 301 94 q 428 135 364 94 l 428 793 l 538 793 l 538 0 l 432 0 l 432 38 q 274 -3 365 -3 q 134 47 183 -3 q 85 193 85 97 l 85 793 l 196 793 l 196 206 q 301 94 196 94 z "},"Ų":{"ha":651,"x_min":85,"x_max":565,"o":"m 457 936 l 565 936 l 565 208 q 450 10 565 63 q 388 -115 388 -44 q 438 -165 388 -165 l 454 -165 l 454 -235 l 432 -235 q 317 -137 317 -235 q 374 -11 317 -71 q 325 -14 343 -14 q 145 47 206 -14 q 85 208 85 108 l 85 936 l 194 936 l 194 213 q 326 85 194 85 q 457 213 457 85 l 457 936 z "},"ų":{"ha":629,"x_min":85,"x_max":538,"o":"m 301 94 q 428 135 364 94 l 428 793 l 538 793 l 538 0 q 471 -129 471 -53 q 521 -179 471 -179 l 538 -179 l 538 -249 l 515 -249 q 400 -151 400 -249 q 485 0 400 -65 l 432 0 l 432 38 q 274 -3 365 -3 q 134 47 183 -3 q 85 193 85 97 l 85 793 l 196 793 l 196 206 q 301 94 196 94 z "},"Ÿ":{"ha":578,"x_min":6,"x_max":574,"o":"m 344 0 l 235 0 l 235 314 l 6 936 l 118 936 l 207 693 q 290 439 251 565 q 334 572 304 483 q 374 692 364 661 l 463 936 l 574 936 l 344 314 l 344 0 m 379 1013 q 351 1013 379 1013 q 324 1067 324 1013 q 379 1121 324 1121 q 435 1067 435 1121 q 379 1013 435 1013 m 188 1013 q 160 1013 188 1013 q 132 1067 132 1013 q 188 1121 132 1121 q 243 1067 243 1121 q 188 1013 243 1013 z "},"Ź":{"ha":536,"x_min":38,"x_max":497,"o":"m 46 936 l 497 936 l 497 843 l 153 94 l 493 94 l 493 0 l 38 0 l 38 94 l 381 840 l 46 840 l 46 936 m 285 1143 l 383 1143 l 299 993 l 231 993 l 285 1143 z "},"ź":{"ha":451,"x_min":28,"x_max":422,"o":"m 35 793 l 422 793 l 422 713 l 140 94 l 422 94 l 422 0 l 28 0 l 28 81 l 306 699 l 35 699 l 35 793 m 246 1004 l 344 1004 l 260 854 l 192 854 l 246 1004 z "},"Ż":{"ha":536,"x_min":38,"x_max":497,"o":"m 267 1040 q 239 1040 267 1040 q 211 1095 211 1040 q 267 1150 211 1150 q 324 1095 324 1150 q 267 1040 324 1040 m 46 936 l 497 936 l 497 843 l 153 94 l 493 94 l 493 0 l 38 0 l 38 94 l 381 840 l 46 840 l 46 936 z "},"ż":{"ha":451,"x_min":28,"x_max":422,"o":"m 235 901 q 207 901 235 901 q 179 956 179 901 q 235 1011 179 1011 q 292 956 292 1011 q 235 901 292 901 m 35 793 l 422 793 l 422 713 l 140 94 l 422 94 l 422 0 l 28 0 l 28 81 l 306 699 l 35 699 l 35 793 z "},"Ž":{"ha":536,"x_min":38,"x_max":497,"o":"m 497 936 l 497 843 l 153 94 l 493 94 l 493 0 l 38 0 l 38 94 l 381 840 l 46 840 l 46 936 l 497 936 m 228 993 l 157 1143 l 221 1143 l 272 1057 l 322 1143 l 388 1143 l 317 993 l 228 993 z "},"ž":{"ha":451,"x_min":28,"x_max":422,"o":"m 422 793 l 422 713 l 140 94 l 422 94 l 422 0 l 28 0 l 28 81 l 306 699 l 35 699 l 35 793 l 422 793 m 190 854 l 119 1004 l 183 1004 l 235 918 l 285 1004 l 350 1004 l 279 854 l 190 854 z "},"ƒ":{"ha":438,"x_min":-24,"x_max":449,"o":"m -24 88 l 7 86 q 74 109 53 86 q 104 186 96 132 l 169 589 l 60 589 l 60 681 l 185 681 l 206 813 q 265 958 221 910 q 403 1006 308 1006 q 449 1003 433 1006 l 449 913 q 403 914 438 914 q 315 814 331 914 l 293 681 l 393 681 l 393 589 l 279 589 l 214 188 q 156 42 200 90 q 17 -6 111 -6 q -24 -3 4 -6 l -24 88 z "},"Ș":{"ha":546,"x_min":38,"x_max":503,"o":"m 267 -85 q 304 -125 304 -85 q 238 -258 304 -165 l 189 -258 l 225 -85 l 267 -85 m 38 743 q 100 890 38 838 q 276 943 163 943 q 465 919 389 943 l 465 815 q 286 842 393 842 q 149 738 149 842 l 149 675 q 167 601 149 628 q 229 549 185 574 l 390 458 q 503 274 503 397 l 503 197 q 436 47 503 100 q 247 -7 369 -7 q 46 21 124 -7 l 46 126 q 233 94 131 94 q 393 206 393 94 l 393 260 q 377 329 393 304 q 318 378 361 354 l 160 465 q 38 661 38 531 l 38 743 z "},"ș":{"ha":506,"x_min":39,"x_max":468,"o":"m 263 -85 q 301 -122 301 -85 q 235 -258 301 -158 l 185 -258 l 221 -85 l 263 -85 m 39 604 q 95 751 39 703 q 279 800 151 800 q 435 776 361 800 l 435 676 q 282 701 363 701 q 174 678 201 701 q 146 600 146 654 l 146 567 q 163 502 146 524 q 225 458 179 481 l 344 399 q 468 228 468 336 l 468 190 q 210 -7 468 -7 q 43 15 115 -7 l 43 117 q 201 92 113 92 q 324 117 289 92 q 358 193 358 142 l 358 219 q 340 277 358 256 q 271 325 322 299 l 153 382 q 39 558 39 436 l 39 604 z "},"Ț":{"ha":494,"x_min":13,"x_max":483,"o":"m 483 936 l 483 839 l 303 839 l 303 0 l 193 0 l 193 839 l 13 839 l 13 936 l 483 936 m 249 -85 q 288 -125 288 -85 q 221 -258 288 -165 l 171 -258 l 208 -85 l 249 -85 z "},"ț":{"ha":407,"x_min":7,"x_max":386,"o":"m 253 -85 q 290 -125 290 -85 q 224 -258 290 -165 l 175 -258 l 211 -85 l 253 -85 m 201 936 l 201 793 l 374 793 l 374 697 l 201 697 l 201 179 q 293 92 201 92 q 386 107 325 92 l 386 8 q 281 -7 333 -7 q 93 174 93 -7 l 93 697 l 7 697 l 7 793 l 96 793 l 128 936 l 201 936 z "},"ˆ":{"ha":486,"x_min":128,"x_max":358,"o":"m 358 854 l 293 854 l 243 940 l 192 854 l 128 854 l 199 1004 l 288 1004 l 358 854 z "},"ˇ":{"ha":486,"x_min":128,"x_max":358,"o":"m 293 1004 l 358 1004 l 288 854 l 199 854 l 128 1004 l 192 1004 l 243 918 l 293 1004 z "},"ˉ":{"ha":486,"x_min":86,"x_max":400,"o":"m 86 964 l 400 964 l 400 894 l 86 894 l 86 964 z "},"˘":{"ha":486,"x_min":89,"x_max":397,"o":"m 353 896 q 333 875 353 896 q 243 854 313 854 q 133 897 174 854 q 89 1004 92 939 l 163 1004 q 185 943 164 965 q 243 921 206 921 q 301 943 281 921 q 324 1004 322 965 l 397 1004 q 353 896 394 938 z "},"˙":{"ha":486,"x_min":185,"x_max":297,"o":"m 241 901 q 213 901 241 901 q 185 956 185 901 q 241 1011 185 1011 q 297 956 297 1011 q 241 901 297 901 z "},"˚":{"ha":486,"x_min":139,"x_max":347,"o":"m 290 929 q 278 963 290 950 q 243 976 265 976 q 208 963 221 976 q 196 929 196 950 q 243 881 196 881 q 290 929 290 881 m 167 856 q 153 871 167 856 q 139 929 139 886 q 167 1001 139 972 q 243 1031 194 1031 q 319 1001 292 1031 q 347 928 347 972 q 319 856 347 885 q 243 826 292 826 q 167 856 194 826 z "},"˛":{"ha":486,"x_min":175,"x_max":313,"o":"m 246 -129 q 296 -179 246 -179 l 313 -179 l 313 -249 l 290 -249 q 175 -151 175 -249 q 260 0 175 -65 l 313 0 q 246 -129 246 -53 z "},"˜":{"ha":486,"x_min":68,"x_max":417,"o":"m 343 993 l 417 993 l 417 975 q 392 897 417 925 q 328 868 368 868 q 240 896 288 868 q 172 924 192 924 q 142 879 142 924 l 142 865 l 68 865 l 68 882 q 92 960 68 931 q 159 990 117 990 q 249 963 201 990 q 313 935 297 935 q 343 978 343 935 l 343 993 z "},"˝":{"ha":486,"x_min":106,"x_max":379,"o":"m 163 1004 l 254 1004 l 168 854 l 106 854 l 163 1004 m 286 1004 l 379 1004 l 292 854 l 231 854 l 286 1004 z "},"π":{"ha":628,"x_min":92,"x_max":636,"o":"m 92 793 l 636 793 l 636 697 l 543 697 l 543 0 l 432 0 l 432 697 l 201 697 l 201 0 l 92 0 l 92 793 z "},"ँ":{"ha":0,"x_min":-376,"x_max":82,"o":"m -14 1172 l 82 1172 l 82 1169 q 25 1035 82 1075 q -147 994 -32 994 q -319 1035 -262 994 q -376 1169 -376 1075 l -376 1172 l -279 1172 q -249 1101 -279 1121 q -147 1082 -218 1082 q -44 1101 -75 1082 q -14 1172 -14 1121 m -147 1168 q -177 1168 -147 1168 q -207 1228 -207 1168 q -147 1289 -207 1289 q -86 1228 -86 1289 q -147 1168 -86 1168 z "},"ं":{"ha":0,"x_min":-210,"x_max":-85,"o":"m -147 1010 q -178 1010 -147 1010 q -210 1072 -210 1010 q -147 1135 -210 1135 q -85 1072 -85 1135 q -147 1010 -85 1010 z "},"ः":{"ha":285,"x_min":61,"x_max":186,"o":"m 124 0 q 92 0 124 0 q 61 63 61 0 q 124 125 61 125 q 186 63 186 125 q 124 0 186 0 m 124 476 q 92 476 124 476 q 61 539 61 476 q 124 601 61 601 q 186 539 186 601 q 124 476 186 476 z "},"अ":{"ha":788,"x_min":51,"x_max":822,"o":"m 590 906 l 822 906 l 822 819 l 690 819 l 690 0 l 590 0 l 590 296 l 433 296 l 433 240 q 376 99 433 149 q 220 49 319 49 q 51 68 121 49 l 51 163 q 206 140 131 140 q 335 243 335 140 l 335 339 q 313 415 335 389 q 224 443 290 442 l 140 443 l 140 536 l 224 536 q 313 562 290 536 q 335 638 335 588 l 335 717 q 206 819 335 819 q 67 796 138 819 l 67 893 q 206 913 128 913 q 376 862 319 913 q 433 719 433 811 l 433 638 q 364 489 433 519 q 431 383 418 465 l 590 383 l 590 906 z "},"आ":{"ha":1108,"x_min":81,"x_max":1144,"o":"m 1144 906 l 1144 819 l 1013 819 l 1013 0 l 913 0 l 913 819 l 719 819 l 719 0 l 619 0 l 619 296 l 463 296 l 463 240 q 406 99 463 149 q 249 49 349 49 q 81 68 150 49 l 81 163 q 235 140 160 140 q 364 243 364 140 l 364 339 q 342 415 364 389 q 253 443 319 442 l 169 443 l 169 536 l 253 536 q 342 562 319 536 q 364 638 364 588 l 364 717 q 235 819 364 819 q 96 796 167 819 l 96 893 q 235 913 157 913 q 406 862 349 913 q 463 719 463 811 l 463 638 q 393 489 463 519 q 460 383 447 465 l 619 383 l 619 906 l 1144 906 z "},"इ":{"ha":556,"x_min":-36,"x_max":592,"o":"m 164 236 l 164 133 q 279 124 217 124 q 403 213 403 124 l 403 261 q 378 326 403 304 q 293 349 354 349 l 261 349 q 56 519 56 349 l 56 529 q 261 700 56 700 l 364 700 l 364 819 l -36 819 l -36 906 l 592 906 l 592 819 l 464 819 l 464 611 l 261 611 q 178 590 201 611 q 156 528 156 569 l 156 521 q 178 458 156 479 q 261 436 201 436 l 293 436 q 503 263 503 436 l 503 210 q 452 76 503 119 q 288 32 401 32 q 164 44 214 32 l 164 -93 l 68 -93 l 68 236 l 164 236 z "},"ई":{"ha":556,"x_min":-36,"x_max":592,"o":"m 464 611 l 261 611 q 178 590 201 611 q 156 528 156 569 l 156 521 q 178 458 156 479 q 261 436 201 436 l 293 436 q 503 263 503 436 l 503 210 q 452 76 503 119 q 288 32 401 32 q 164 44 214 32 l 164 -93 l 68 -93 l 68 236 l 164 236 l 164 133 q 279 124 217 124 q 403 213 403 124 l 403 261 q 378 326 403 304 q 293 349 354 349 l 261 349 q 56 519 56 349 l 56 529 q 261 700 56 700 l 364 700 l 364 819 l -36 819 l -36 906 l 358 906 q 311 1071 311 992 q 363 1190 311 1150 q 492 1229 414 1229 q 565 1224 510 1229 l 565 1135 q 515 1139 524 1139 q 411 1050 411 1139 q 457 906 411 994 l 592 906 l 592 819 l 464 819 l 464 611 z "},"उ":{"ha":557,"x_min":-36,"x_max":592,"o":"m 365 726 q 347 819 365 778 l -36 819 l -36 906 l 592 906 l 592 819 l 450 819 q 465 728 465 793 l 465 611 q 396 467 465 492 q 465 321 465 439 l 465 189 q 217 -6 465 -6 q 65 17 147 -6 l 65 113 q 215 88 144 88 q 365 190 365 88 l 365 317 q 343 392 365 365 q 256 421 321 419 l 171 421 l 171 514 l 260 514 q 344 540 324 514 q 365 613 365 565 l 365 726 z "},"ऊ":{"ha":790,"x_min":-36,"x_max":826,"o":"m 365 726 q 347 819 365 778 l -36 819 l -36 906 l 826 906 l 826 819 l 450 819 q 465 728 465 793 l 465 611 q 425 485 465 524 q 543 497 500 497 q 694 449 643 497 q 744 313 744 400 l 744 179 q 699 46 744 93 q 564 -1 653 -1 l 535 -1 l 535 92 l 544 92 q 623 114 601 92 q 644 181 644 136 l 644 301 q 533 404 644 404 l 453 404 q 465 321 465 367 l 465 189 q 217 -6 465 -6 q 65 17 147 -6 l 65 113 q 215 88 144 88 q 365 190 365 88 l 365 317 q 343 392 365 365 q 256 421 321 419 l 171 421 l 171 514 l 260 514 q 344 540 324 514 q 365 613 365 565 l 365 726 z "},"ऋ":{"ha":951,"x_min":-36,"x_max":986,"o":"m 986 819 l 533 819 l 533 597 q 661 585 600 585 q 788 685 788 585 l 788 697 l 885 697 l 885 307 l 826 307 q 748 278 772 307 q 724 188 724 250 q 846 75 724 75 q 925 83 889 75 l 925 -4 q 839 -11 889 -11 q 685 38 744 -11 q 625 185 625 86 q 790 381 625 374 l 790 532 q 660 490 750 490 q 533 504 606 490 l 533 0 l 436 0 l 436 121 q 444 350 436 304 l 439 350 q 346 233 428 319 l 179 60 l 53 60 l 53 65 l 433 460 l 433 579 q 303 599 369 599 q 156 485 156 599 l 156 401 l 57 401 l 57 488 q 294 690 57 690 q 433 672 364 690 l 433 819 l -36 819 l -36 906 l 986 906 l 986 819 z "},"ऌ":{"ha":863,"x_min":-36,"x_max":899,"o":"m 767 819 l 767 78 q 688 81 750 81 q 603 58 626 81 q 581 -19 581 36 q 607 -94 581 -75 q 668 -114 633 -114 q 720 -112 703 -114 q 753 -106 738 -110 q 771 -101 768 -101 l 771 -196 q 756 -200 769 -196 q 681 -208 717 -208 q 534 -161 586 -208 q 482 -19 482 -114 q 667 172 482 168 l 667 557 q 572 575 626 575 q 467 483 467 575 l 467 293 l 367 293 l 367 483 q 267 575 367 575 q 188 551 208 575 q 167 481 167 526 l 167 219 q 195 124 167 158 q 301 90 224 90 q 372 97 331 90 l 372 6 q 299 0 333 0 q 67 217 67 0 l 67 482 q 116 619 67 571 q 268 668 165 668 q 415 604 371 668 q 568 668 461 668 q 667 650 618 668 l 667 819 l -36 819 l -36 906 l 899 906 l 899 819 l 767 819 z "},"ऍ":{"ha":594,"x_min":-36,"x_max":631,"o":"m 318 -7 q 90 185 90 -7 l 90 819 l -36 819 l -36 906 l 631 906 l 631 819 l 514 819 l 514 553 q 336 374 514 374 q 304 375 314 374 l 304 468 q 328 467 311 467 q 395 490 376 467 q 414 556 414 513 l 414 819 l 190 819 l 190 186 q 319 86 190 86 q 489 113 410 86 l 489 21 q 318 -7 422 -7 m 438 1183 l 535 1183 l 535 1181 q 478 1046 535 1086 q 306 1006 421 1006 q 133 1046 190 1006 q 76 1181 76 1086 l 76 1183 l 174 1183 q 203 1113 174 1132 q 306 1093 233 1093 q 408 1113 378 1093 q 438 1183 438 1132 z "},"ऎ":{"ha":594,"x_min":-36,"x_max":631,"o":"m 513 906 l 631 906 l 631 819 l 514 819 l 514 553 q 336 374 514 374 q 304 375 314 374 l 304 468 q 328 467 311 467 q 395 490 376 467 q 414 556 414 513 l 414 819 l 190 819 l 190 186 q 319 86 190 86 q 489 113 410 86 l 489 21 q 318 -7 422 -7 q 90 185 90 -7 l 90 819 l -36 819 l -36 906 l 415 906 q 388 992 415 963 q 285 1022 360 1022 q 112 1071 165 1022 q 58 1224 58 1119 l 156 1224 q 184 1137 156 1167 q 288 1107 213 1107 q 458 1057 404 1107 q 513 906 513 1007 z "},"ए":{"ha":594,"x_min":-36,"x_max":631,"o":"m 324 -7 q 90 192 90 -7 l 90 819 l -36 819 l -36 906 l 631 906 l 631 819 l 514 819 l 514 553 q 336 374 514 374 q 304 375 314 374 l 304 468 q 328 467 311 467 q 395 490 376 467 q 414 556 414 513 l 414 819 l 190 819 l 190 192 q 222 113 190 139 q 333 86 253 86 q 494 113 413 86 l 494 21 q 324 -7 425 -7 z "},"ऐ":{"ha":594,"x_min":-36,"x_max":631,"o":"m 631 906 l 631 819 l 514 819 l 514 553 q 336 374 514 374 q 304 375 314 374 l 304 468 q 328 467 311 467 q 395 490 376 467 q 414 556 414 513 l 414 819 l 190 819 l 190 186 q 319 86 190 86 q 489 113 410 86 l 489 21 q 318 -7 422 -7 q 90 185 90 -7 l 90 819 l -36 819 l -36 906 l 407 906 l 179 1224 l 292 1224 l 510 906 l 631 906 z "},"ऑ":{"ha":1110,"x_min":81,"x_max":1144,"o":"m 1144 906 l 1144 819 l 1014 819 l 1014 0 l 913 0 l 913 819 l 719 819 l 719 0 l 619 0 l 619 296 l 463 296 l 463 240 q 406 99 463 149 q 249 49 349 49 q 81 68 150 49 l 81 163 q 235 140 160 140 q 364 243 364 140 l 364 339 q 342 415 364 389 q 253 443 319 442 l 169 443 l 169 536 l 253 536 q 342 562 319 536 q 364 638 364 588 l 364 717 q 235 819 364 819 q 96 796 167 819 l 96 893 q 235 913 157 913 q 406 862 349 913 q 463 719 463 811 l 463 638 q 393 489 463 519 q 460 383 447 465 l 619 383 l 619 906 l 1144 906 m 1051 1176 l 1051 1174 q 994 1039 1051 1079 q 822 999 938 999 q 650 1039 707 999 q 593 1174 593 1079 l 593 1176 l 690 1176 q 720 1106 690 1125 q 822 1086 750 1086 q 924 1106 893 1086 q 954 1176 954 1125 l 1051 1176 z "},"ऒ":{"ha":1110,"x_min":81,"x_max":1144,"o":"m 1011 906 l 1144 906 l 1144 819 l 1013 819 l 1013 0 l 913 0 l 913 819 l 719 819 l 719 0 l 619 0 l 619 296 l 463 296 l 463 240 q 406 99 463 149 q 249 49 349 49 q 81 68 150 49 l 81 163 q 235 140 160 140 q 364 243 364 140 l 364 339 q 342 415 364 389 q 253 443 319 442 l 169 443 l 169 536 l 253 536 q 342 562 319 536 q 364 638 364 588 l 364 717 q 235 819 364 819 q 96 796 167 819 l 96 893 q 235 913 157 913 q 406 862 349 913 q 463 719 463 811 l 463 638 q 393 489 463 519 q 460 383 447 465 l 619 383 l 619 906 l 914 906 q 885 992 914 963 q 783 1022 857 1022 q 612 1071 665 1022 q 558 1224 558 1119 l 654 1224 q 683 1137 654 1167 q 786 1107 711 1107 q 957 1057 903 1107 q 1011 906 1011 1007 z "},"ओ":{"ha":1110,"x_min":81,"x_max":1144,"o":"m 1144 906 l 1144 819 l 1013 819 l 1013 0 l 913 0 l 913 819 l 719 819 l 719 0 l 619 0 l 619 296 l 463 296 l 463 240 q 406 99 463 149 q 249 49 349 49 q 81 68 150 49 l 81 163 q 235 140 160 140 q 364 243 364 140 l 364 339 q 342 415 364 389 q 253 443 319 442 l 169 443 l 169 536 l 253 536 q 342 562 319 536 q 364 638 364 588 l 364 717 q 235 819 364 819 q 96 796 167 819 l 96 893 q 235 913 157 913 q 406 862 349 913 q 463 719 463 811 l 463 638 q 393 489 463 519 q 460 383 447 465 l 619 383 l 619 906 l 908 906 l 793 1082 q 699 1138 757 1138 q 663 1135 685 1138 l 663 1221 q 724 1224 688 1224 q 867 1131 807 1224 l 1013 906 l 1144 906 z "},"औ":{"ha":1110,"x_min":81,"x_max":1144,"o":"m 1144 906 l 1144 819 l 1013 819 l 1013 0 l 913 0 l 913 819 l 719 819 l 719 0 l 619 0 l 619 296 l 463 296 l 463 240 q 406 99 463 149 q 249 49 349 49 q 81 68 150 49 l 81 163 q 235 140 160 140 q 364 243 364 140 l 364 339 q 342 415 364 389 q 253 443 319 442 l 169 443 l 169 536 l 253 536 q 342 562 319 536 q 364 638 364 588 l 364 717 q 235 819 364 819 q 96 796 167 819 l 96 893 q 235 913 157 913 q 406 862 349 913 q 463 719 463 811 l 463 638 q 393 489 463 519 q 460 383 447 465 l 619 383 l 619 906 l 772 906 l 656 1082 q 560 1138 617 1138 q 524 1135 546 1138 l 524 1221 q 586 1224 551 1224 q 728 1126 661 1224 l 874 906 l 918 906 l 867 1072 q 842 1122 856 1107 q 806 1136 829 1136 q 772 1135 782 1136 l 772 1221 q 813 1224 797 1224 q 944 1115 911 1224 l 1008 906 l 1144 906 z "},"क":{"ha":815,"x_min":-36,"x_max":850,"o":"m 361 819 l -36 819 l -36 906 l 850 906 l 850 819 l 460 819 l 460 689 q 556 701 497 701 q 753 524 753 701 l 753 278 q 578 100 753 100 q 546 101 553 100 l 546 196 q 569 194 553 194 q 638 217 619 194 q 656 283 656 239 l 656 521 q 547 613 656 613 q 460 600 497 613 l 460 0 l 361 0 l 361 106 q 260 93 299 93 q 61 268 61 93 l 61 522 q 260 700 61 700 q 300 696 288 700 l 300 608 q 267 611 283 611 q 158 519 158 611 l 158 271 q 267 181 158 181 q 361 193 317 181 l 361 819 z "},"ख":{"ha":1024,"x_min":-36,"x_max":1058,"o":"m 358 726 q 342 819 358 781 l -36 819 l -36 906 l 1058 906 l 1058 819 l 926 819 l 926 0 l 828 0 l 828 185 q 722 172 781 172 q 576 217 622 172 q 531 350 531 261 l 531 517 q 575 652 531 607 q 719 697 619 697 q 828 685 765 697 l 828 819 l 439 819 q 454 726 454 788 l 454 557 q 250 354 454 354 q 160 363 210 354 l 160 249 q 378 86 160 86 q 567 111 478 86 l 567 17 q 374 -6 481 -6 q 146 57 229 -6 q 63 247 63 119 l 63 615 l 160 615 l 160 453 q 258 444 210 444 q 333 474 307 444 q 358 558 358 503 l 358 726 m 828 596 q 724 607 778 607 q 647 584 669 607 q 625 517 625 561 l 625 350 q 647 283 625 306 q 730 260 669 260 q 828 272 790 260 l 828 596 z "},"ग":{"ha":668,"x_min":-36,"x_max":704,"o":"m 38 361 l 78 358 q 172 450 172 358 l 172 819 l -36 819 l -36 906 l 704 906 l 704 819 l 572 819 l 572 0 l 472 0 l 472 819 l 272 819 l 272 446 q 226 312 272 361 q 90 263 179 263 q 38 267 63 263 l 38 361 z "},"घ":{"ha":686,"x_min":-36,"x_max":721,"o":"m 489 819 l 204 819 q 192 726 192 786 l 192 633 q 214 567 192 589 q 297 544 236 544 l 347 544 l 347 451 l 296 451 q 208 428 233 451 q 183 361 183 406 l 183 300 q 224 206 183 233 q 347 178 265 178 q 489 196 429 178 l 489 819 m 92 726 q 101 819 92 774 l -36 819 l -36 906 l 721 906 l 721 819 l 589 819 l 589 0 l 489 0 l 489 106 q 338 88 414 88 q 151 139 218 88 q 83 293 83 190 l 83 364 q 164 499 83 472 q 92 632 92 526 l 92 726 z "},"ङ":{"ha":636,"x_min":-36,"x_max":672,"o":"m 576 425 q 545 425 576 425 q 514 488 514 425 q 576 550 514 550 q 638 488 638 550 q 576 425 638 425 m 511 232 l 511 176 q 268 -10 511 -10 q 76 13 172 -10 l 76 104 q 268 83 163 83 q 411 176 411 83 l 411 231 q 388 296 411 274 q 301 318 364 318 l 275 318 q 68 489 68 318 l 68 531 q 275 701 68 701 l 371 701 l 371 819 l -36 819 l -36 906 l 672 906 l 672 819 l 471 819 l 471 611 l 275 611 q 192 590 215 611 q 168 526 168 568 l 168 492 q 192 428 168 450 q 275 407 215 407 l 301 407 q 511 232 511 407 z "},"च":{"ha":646,"x_min":-36,"x_max":681,"o":"m 121 467 q 133 581 121 528 l 17 581 l 17 669 l 376 669 l 376 583 l 235 583 q 221 467 221 544 l 221 275 q 248 199 221 224 q 335 175 275 175 q 449 193 394 175 l 449 819 l -36 819 l -36 906 l 681 906 l 681 819 l 550 819 l 550 0 l 449 0 l 449 103 q 328 85 397 85 q 121 272 121 85 l 121 467 z "},"छ":{"ha":710,"x_min":-36,"x_max":746,"o":"m 536 501 q 515 576 536 553 q 444 600 493 600 q 357 589 396 600 l 357 676 q 444 688 394 688 l 444 819 l 201 819 q 186 726 186 786 l 186 542 q 208 475 186 497 q 292 453 231 453 l 369 453 l 369 363 l 294 363 q 205 340 231 363 q 179 271 179 318 l 179 232 q 215 140 179 164 q 358 117 250 117 q 501 142 465 117 q 536 238 536 168 l 536 501 m 86 726 q 100 819 86 781 l -36 819 l -36 906 l 746 906 l 746 819 l 536 819 l 536 674 q 635 511 635 647 l 635 235 q 572 73 635 121 q 358 25 510 25 q 142 72 207 25 q 78 229 78 119 l 78 276 q 160 407 78 381 q 86 540 86 435 l 86 726 z "},"ज":{"ha":771,"x_min":-36,"x_max":807,"o":"m 297 486 q 285 579 297 544 l 133 579 l 133 669 l 575 669 l 575 819 l -36 819 l -36 906 l 807 906 l 807 819 l 675 819 l 675 0 l 575 0 l 575 583 l 386 583 q 397 490 397 551 l 397 254 q 341 110 397 160 q 176 60 285 60 q 49 75 106 60 l 49 168 q 175 151 115 151 q 297 256 297 151 l 297 486 z "},"झ":{"ha":840,"x_min":-36,"x_max":876,"o":"m 644 436 l 644 819 l 476 819 l 476 611 l 274 611 q 191 591 214 611 q 168 529 168 571 l 168 521 q 190 458 168 479 q 271 436 213 438 l 644 436 m 281 349 l 272 349 q 68 519 68 349 l 68 531 q 274 701 68 701 l 376 701 l 376 819 l -36 819 l -36 906 l 876 906 l 876 819 l 744 819 l 744 0 l 644 0 l 644 353 l 450 353 q 489 258 489 325 l 489 199 q 439 65 489 108 q 282 22 389 22 q 167 35 222 22 l 167 -86 l 69 -86 l 69 219 l 167 219 l 167 125 q 272 113 213 113 q 389 203 389 113 l 389 258 q 365 326 389 303 q 281 349 342 349 z "},"ञ":{"ha":801,"x_min":-36,"x_max":838,"o":"m 332 265 l 332 511 q 305 590 332 563 q 211 617 278 617 q 89 596 144 617 l 89 688 q 214 710 140 710 q 432 517 432 710 l 432 431 l 606 431 l 606 819 l -36 819 l -36 906 l 838 906 l 838 819 l 706 819 l 706 0 l 606 0 l 606 343 l 432 343 l 432 260 q 213 68 432 68 q 79 90 140 68 l 79 182 q 213 160 149 160 q 305 187 278 160 q 332 265 332 214 z "},"ट":{"ha":547,"x_min":-36,"x_max":583,"o":"m 174 504 l 174 200 q 319 86 174 86 q 482 108 399 86 l 482 17 q 305 -6 408 -6 q 138 47 201 -6 q 74 199 74 100 l 74 508 q 286 694 74 694 l 358 694 l 358 819 l -36 819 l -36 906 l 583 906 l 583 819 l 458 819 l 458 603 l 293 603 q 174 504 174 603 z "},"ठ":{"ha":567,"x_min":-36,"x_max":601,"o":"m 394 178 l 394 521 q 283 618 394 618 q 172 521 172 618 l 172 178 q 283 82 172 82 q 394 178 394 82 m 493 524 l 493 179 q 441 42 493 90 q 283 -7 389 -7 q 126 42 178 -7 q 74 179 74 90 l 74 524 q 233 703 74 682 l 233 819 l -36 819 l -36 906 l 601 906 l 601 819 l 333 819 l 333 703 q 493 524 493 682 z "},"ड":{"ha":574,"x_min":-36,"x_max":610,"o":"m 511 222 l 511 176 q 268 -10 511 -10 q 79 11 169 -10 l 79 107 q 268 83 161 83 q 411 178 411 83 l 411 221 q 388 286 411 264 q 301 308 364 308 l 275 308 q 68 479 68 308 l 68 531 q 275 701 68 701 l 371 701 l 371 819 l -36 819 l -36 906 l 610 906 l 610 819 l 471 819 l 471 611 l 275 611 q 192 590 215 611 q 168 526 168 568 l 168 482 q 192 419 168 440 q 275 397 215 397 l 301 397 q 511 222 511 397 z "},"ढ":{"ha":569,"x_min":-36,"x_max":604,"o":"m 282 699 l 365 699 l 365 819 l -36 819 l -36 906 l 604 906 l 604 819 l 464 819 l 464 606 l 282 606 q 196 583 219 606 q 172 517 172 561 l 172 189 q 199 113 172 139 q 292 86 225 86 q 385 113 358 86 q 411 189 411 139 l 411 244 q 328 331 411 331 l 272 322 l 272 413 q 336 421 297 421 q 462 378 415 421 q 508 246 508 335 l 508 185 q 291 -7 508 -7 q 74 188 74 -7 l 74 519 q 282 699 74 699 z "},"ण":{"ha":854,"x_min":-36,"x_max":889,"o":"m 379 819 l 171 819 l 171 349 q 192 278 171 303 q 275 254 214 254 q 358 278 336 254 q 379 349 379 303 l 379 819 m 479 349 q 275 163 479 163 q 71 349 71 163 l 71 819 l -36 819 l -36 906 l 889 906 l 889 819 l 757 819 l 757 0 l 658 0 l 658 819 l 479 819 l 479 349 z "},"त":{"ha":607,"x_min":-36,"x_max":643,"o":"m 71 508 q 124 647 71 597 q 268 697 178 697 q 411 681 358 697 l 411 819 l -36 819 l -36 906 l 643 906 l 643 819 l 511 819 l 511 0 l 411 0 l 411 589 q 292 606 336 606 q 171 506 171 606 l 171 181 q 197 113 171 135 q 285 92 222 90 l 285 -1 l 254 -1 q 71 175 71 -1 l 71 508 z "},"थ":{"ha":768,"x_min":64,"x_max":804,"o":"m 572 906 l 804 906 l 804 819 l 672 819 l 672 0 l 572 0 l 572 140 q 375 118 492 118 q 64 385 64 118 l 64 529 l 193 529 q 316 555 279 529 q 353 656 353 581 l 353 724 q 338 799 353 776 q 271 821 322 821 q 203 797 219 821 q 186 724 186 774 l 192 660 l 94 660 q 88 724 88 696 q 269 913 88 913 q 405 866 365 913 q 444 725 444 819 l 444 646 q 385 488 444 536 q 201 440 326 440 l 165 440 l 165 386 q 213 250 165 290 q 372 210 261 210 q 572 232 483 210 l 572 906 z "},"द":{"ha":564,"x_min":-36,"x_max":600,"o":"m 58 288 l 58 517 q 110 652 58 608 q 269 696 163 696 l 367 696 l 367 819 l -36 819 l -36 906 l 600 906 l 600 819 l 467 819 l 467 604 l 269 604 q 183 582 207 604 q 158 515 158 560 l 158 289 q 282 192 158 192 q 390 203 332 192 l 390 336 l 488 336 l 488 -10 l 390 -10 l 390 113 q 274 100 339 100 q 114 149 169 100 q 58 288 58 197 z "},"ध":{"ha":686,"x_min":-36,"x_max":721,"o":"m 92 726 q 106 819 92 781 l -36 819 l -36 906 l 338 906 l 338 819 l 207 819 q 192 726 192 786 l 192 639 q 214 572 192 594 q 297 549 236 550 l 347 549 l 347 456 l 296 456 q 208 433 233 456 q 183 367 183 410 l 183 297 q 224 205 183 232 q 342 178 265 178 q 489 196 419 178 l 489 906 l 721 906 l 721 819 l 589 819 l 589 0 l 489 0 l 489 106 q 319 86 421 86 q 151 138 218 86 q 83 290 83 189 l 83 368 q 164 503 83 478 q 92 638 92 533 l 92 726 z "},"न":{"ha":800,"x_min":-36,"x_max":836,"o":"m 250 576 q 179 555 200 576 q 158 492 158 533 l 158 260 q 179 197 158 218 q 251 175 200 175 q 322 196 301 175 q 342 260 342 217 l 342 478 q 326 576 342 531 l 250 576 m 604 576 l 424 576 q 439 479 439 546 l 439 258 q 250 83 439 83 q 61 258 61 83 l 61 493 q 250 667 61 667 l 604 667 l 604 819 l -36 819 l -36 906 l 836 906 l 836 819 l 704 819 l 704 0 l 604 0 l 604 576 z "},"ऩ":{"ha":810,"x_min":-36,"x_max":846,"o":"m 42 -86 q 10 -86 42 -86 q -21 -24 -21 -86 q 42 39 -21 39 q 104 -24 104 39 q 42 -86 104 -86 m 261 576 q 190 556 210 576 q 169 492 169 535 l 169 260 q 190 196 169 217 q 261 175 210 175 q 333 196 313 175 q 353 260 353 217 l 353 478 q 336 576 353 526 l 261 576 m 614 576 l 432 576 q 449 479 449 543 l 449 258 q 260 83 449 83 q 71 258 71 83 l 71 493 q 261 667 71 667 l 614 667 l 614 819 l -36 819 l -36 906 l 846 906 l 846 819 l 714 819 l 714 0 l 614 0 l 614 576 z "},"प":{"ha":593,"x_min":-36,"x_max":629,"o":"m 397 819 l 171 819 l 171 360 q 289 267 171 267 q 397 283 350 267 l 397 819 m 397 0 l 397 193 q 281 175 346 175 q 124 223 176 175 q 71 358 71 271 l 71 819 l -36 819 l -36 906 l 629 906 l 629 819 l 497 819 l 497 0 l 397 0 z "},"फ":{"ha":840,"x_min":-36,"x_max":876,"o":"m 382 819 l 172 819 l 172 347 q 290 253 172 253 q 382 264 333 253 l 382 819 m 679 513 q 581 601 679 601 q 479 588 529 601 l 479 0 l 382 0 l 382 175 q 281 161 317 161 q 72 344 72 161 l 72 819 l -36 819 l -36 906 l 876 906 l 876 819 l 479 819 l 479 679 q 582 694 526 694 q 730 647 681 694 q 779 514 779 599 l 779 267 q 596 89 779 89 q 571 90 590 89 l 571 183 q 656 204 632 182 q 679 272 679 226 l 679 513 z "},"ब":{"ha":590,"x_min":-36,"x_max":626,"o":"m -36 906 l 626 906 l 626 819 l 494 819 l 494 0 l 400 0 l 400 111 q 283 94 354 94 q 61 281 61 94 l 61 517 q 281 701 61 701 q 400 683 357 701 l 400 819 l -36 819 l -36 906 m 288 614 q 161 543 179 614 l 400 349 l 400 596 q 288 614 357 614 m 158 283 q 288 182 158 182 q 400 197 339 182 l 400 267 l 158 464 l 158 283 z "},"भ":{"ha":824,"x_min":64,"x_max":860,"o":"m 356 556 l 356 729 q 337 797 356 775 q 263 819 318 819 q 189 797 208 819 q 169 729 169 774 l 175 661 l 75 661 q 69 732 69 700 q 263 913 69 913 q 456 732 456 913 l 456 556 l 628 556 l 628 906 l 860 906 l 860 819 l 728 819 l 728 0 l 628 0 l 628 468 l 453 468 l 453 256 q 406 126 453 169 q 258 83 360 83 q 64 256 64 83 l 64 386 q 110 513 64 471 q 258 556 157 556 l 356 556 m 356 258 l 356 468 l 258 468 q 181 448 200 468 q 161 383 161 428 l 161 258 q 181 193 161 214 q 259 172 201 172 q 336 193 317 172 q 356 258 356 214 z "},"म":{"ha":799,"x_min":-36,"x_max":835,"o":"m 604 0 l 604 513 l 433 513 l 433 256 q 387 127 433 169 q 239 85 340 85 q 44 256 44 85 l 44 431 q 91 558 44 515 q 239 600 138 600 l 336 600 l 336 819 l -36 819 l -36 906 l 835 906 l 835 819 l 703 819 l 703 0 l 604 0 m 433 600 l 604 600 l 604 819 l 433 819 l 433 600 m 336 258 l 336 513 l 239 513 q 162 492 181 513 q 143 428 143 472 l 143 258 q 163 194 143 214 q 240 174 182 174 q 317 194 297 174 q 336 258 336 214 z "},"य":{"ha":696,"x_min":-36,"x_max":732,"o":"m 249 726 q 239 819 249 786 l -36 819 l -36 906 l 732 906 l 732 819 l 600 819 l 600 0 l 500 0 l 500 133 q 350 118 429 118 q 148 174 225 118 q 71 358 71 231 l 71 535 l 101 535 q 217 555 186 535 q 249 635 249 575 l 249 726 m 347 726 l 347 624 q 171 458 347 461 l 171 367 q 215 249 171 288 q 341 211 258 211 q 500 226 424 211 l 500 819 l 338 819 q 347 726 347 786 z "},"र":{"ha":581,"x_min":-36,"x_max":615,"o":"m 400 726 q 388 819 400 785 l -36 819 l -36 906 l 615 906 l 615 819 l 490 819 q 500 726 500 788 l 500 539 q 299 356 500 356 q 181 374 238 356 l 181 203 q 333 85 181 85 q 507 111 413 85 l 507 18 q 317 -7 425 -7 q 145 47 210 -7 q 81 201 81 100 l 81 625 l 181 625 l 181 464 q 293 446 235 446 q 400 540 400 446 l 400 726 z "},"ऱ":{"ha":583,"x_min":-36,"x_max":619,"o":"m 404 726 q 392 819 404 775 l -36 819 l -36 906 l 619 906 l 619 819 l 493 819 q 504 726 504 788 l 504 539 q 303 356 504 356 q 185 374 242 356 l 185 203 q 336 85 185 85 q 511 111 417 85 l 511 18 q 322 -7 431 -7 q 148 47 213 -7 q 83 201 83 100 l 83 625 l 185 625 l 185 464 q 297 446 239 446 q 404 540 404 446 l 404 726 m 26 -151 q -5 -151 26 -151 q -36 -89 -36 -151 q 26 -26 -36 -26 q 89 -89 89 -26 q 26 -151 89 -151 z "},"ल":{"ha":864,"x_min":-36,"x_max":900,"o":"m 68 217 l 68 482 q 118 619 68 571 q 270 668 168 668 q 417 604 372 668 q 569 668 464 668 q 668 650 625 668 l 668 819 l -36 819 l -36 906 l 900 906 l 900 819 l 768 819 l 768 0 l 668 0 l 668 557 q 575 575 629 575 q 468 483 468 575 l 468 289 l 368 289 l 368 483 q 268 575 368 575 q 190 551 211 575 q 168 481 168 526 l 168 219 q 198 124 168 157 q 306 90 228 90 q 386 97 333 90 l 386 7 q 303 0 349 0 q 68 217 68 0 z "},"ळ":{"ha":828,"x_min":-36,"x_max":864,"o":"m 463 493 l 463 179 q 567 81 463 81 q 645 106 625 81 q 665 179 665 132 l 665 493 q 644 565 665 540 q 567 590 624 590 q 463 493 463 590 m 164 493 l 164 179 q 184 106 164 132 q 263 81 204 81 q 368 179 368 81 l 368 493 q 264 590 368 590 q 185 565 206 590 q 164 493 164 539 m 760 493 l 760 178 q 569 -7 760 -7 q 415 64 456 -7 q 261 -7 375 -7 q 68 178 68 -7 l 68 494 q 263 678 68 678 q 415 606 374 678 q 517 671 443 658 l 517 819 l -36 819 l -36 906 l 864 906 l 864 819 l 617 819 l 617 674 q 760 493 760 651 z "},"ऴ":{"ha":828,"x_min":-36,"x_max":864,"o":"m 415 -212 q 384 -212 415 -212 q 353 -150 353 -212 q 415 -87 353 -87 q 478 -150 478 -87 q 415 -212 478 -212 m 463 493 l 463 179 q 567 81 463 81 q 645 106 625 81 q 665 179 665 132 l 665 493 q 644 565 665 540 q 567 590 624 590 q 463 493 463 590 m 164 493 l 164 179 q 184 106 164 132 q 263 81 204 81 q 368 179 368 81 l 368 493 q 264 590 368 590 q 185 565 206 590 q 164 493 164 539 m 760 493 l 760 178 q 569 -7 760 -7 q 415 64 456 -7 q 261 -7 375 -7 q 68 178 68 -7 l 68 494 q 263 678 68 678 q 415 606 374 678 q 517 671 443 658 l 517 819 l -36 819 l -36 906 l 864 906 l 864 819 l 617 819 l 617 674 q 760 493 760 651 z "},"व":{"ha":594,"x_min":-36,"x_max":629,"o":"m 283 614 q 163 514 163 614 l 163 282 q 283 182 163 182 q 400 199 363 182 l 400 597 q 283 614 358 614 m 397 819 l -36 819 l -36 906 l 629 906 l 629 819 l 499 819 l 499 0 l 397 0 l 397 111 q 274 94 356 94 q 64 281 64 94 l 64 515 q 117 652 64 603 q 263 701 169 701 q 397 685 356 701 l 397 819 z "},"श":{"ha":836,"x_min":85,"x_max":872,"o":"m 506 726 l 506 532 q 301 350 506 350 q 186 368 238 350 l 186 210 q 226 119 186 150 q 340 88 265 88 q 499 114 415 88 l 499 21 q 317 -4 418 -4 q 151 53 217 -4 q 85 208 85 111 l 85 561 l 186 561 l 186 458 q 296 440 235 440 q 381 465 357 440 q 406 535 406 490 l 406 725 q 296 819 406 819 q 186 724 186 819 q 190 671 186 688 l 90 671 q 85 726 85 693 q 138 864 85 815 q 296 913 190 913 q 453 864 401 913 q 506 726 506 815 m 640 906 l 872 906 l 872 819 l 740 819 l 740 0 l 640 0 l 640 906 z "},"ष":{"ha":611,"x_min":-36,"x_max":646,"o":"m -36 906 l 646 906 l 646 819 l 515 819 l 515 0 l 417 0 l 417 181 q 268 160 357 160 q 125 207 179 160 q 71 342 71 254 l 71 819 l -36 819 l -36 906 m 417 819 l 171 819 l 171 704 l 417 475 l 417 819 m 171 344 q 294 250 171 250 q 417 271 354 250 l 417 383 l 171 611 l 171 344 z "},"स":{"ha":840,"x_min":-36,"x_max":876,"o":"m 375 726 q 363 819 375 785 l -36 819 l -36 906 l 876 906 l 876 819 l 744 819 l 744 0 l 644 0 l 644 399 l 428 399 q 274 347 379 347 q 179 358 224 347 l 179 203 q 332 85 179 85 q 501 111 407 85 l 501 18 q 313 -7 419 -7 q 143 47 207 -7 q 79 201 79 100 l 79 625 l 179 625 l 179 450 q 265 438 224 438 q 375 532 375 438 l 375 726 m 644 486 l 644 819 l 464 819 q 474 726 474 788 l 474 532 q 469 486 474 507 l 644 486 z "},"ह":{"ha":586,"x_min":-36,"x_max":622,"o":"m 65 186 l 65 258 q 139 389 65 353 q 68 515 68 422 l 68 536 q 117 661 68 621 q 271 701 167 701 l 388 701 l 388 819 l -36 819 l -36 906 l 622 906 l 622 819 l 488 819 l 488 613 l 271 613 q 190 592 213 613 q 168 531 168 572 l 168 515 q 192 455 168 475 q 274 435 215 435 l 344 435 q 479 393 438 435 q 521 267 521 351 l 521 225 l 428 225 l 428 261 q 410 327 428 307 q 336 347 393 347 l 281 347 q 165 260 165 347 l 165 190 q 326 82 165 82 q 501 104 422 82 l 501 17 q 318 -8 438 -8 q 132 43 199 -8 q 65 186 65 94 z "},"़":{"ha":0,"x_min":-346,"x_max":-221,"o":"m -283 -193 q -315 -193 -283 -193 q -346 -131 -346 -193 q -283 -68 -346 -68 q -221 -131 -221 -68 q -283 -193 -221 -193 z "},"ऽ":{"ha":583,"x_min":69,"x_max":535,"o":"m 535 276 l 535 193 q 308 -7 535 -7 l 299 -7 q 72 193 72 -7 l 72 283 l 172 283 l 172 190 q 199 114 172 142 q 301 86 226 86 l 306 86 q 407 113 381 86 q 433 190 433 140 l 433 278 q 419 347 433 319 q 367 397 406 375 l 181 504 q 69 693 69 567 l 69 731 q 117 861 69 817 q 274 906 164 906 l 501 906 l 501 813 l 278 813 q 190 791 211 813 q 169 728 169 769 l 169 696 q 238 579 169 618 l 422 474 q 510 390 486 436 q 535 276 535 344 z "},"ा":{"ha":292,"x_min":-36,"x_max":328,"o":"m 96 819 l -36 819 l -36 906 l 328 906 l 328 819 l 196 819 l 196 0 l 96 0 l 96 819 z "},"ि":{"ha":292,"x_min":-36,"x_max":779,"o":"m 97 906 l 97 957 q 415 1225 97 1225 q 599 1206 508 1225 q 735 1167 690 1186 l 779 1147 l 779 1056 q 607 1108 711 1085 q 401 1132 503 1132 q 249 1090 300 1132 q 197 956 197 1047 l 197 906 l 328 906 l 328 819 l 196 819 l 196 0 l 96 0 l 96 819 l -36 819 l -36 906 l 97 906 z "},"ी":{"ha":292,"x_min":-186,"x_max":328,"o":"m 96 906 l 96 1049 q 76 1113 96 1093 q 5 1133 57 1133 q -67 1113 -47 1133 q -87 1049 -87 1092 l -87 994 l -186 994 l -186 1050 q 5 1225 -186 1225 q 196 1050 196 1225 l 196 906 l 328 906 l 328 819 l 196 819 l 196 0 l 96 0 l 96 819 l -36 819 l -36 906 l 96 906 z "},"ु":{"ha":0,"x_min":-551,"x_max":46,"o":"m -229 -226 l -133 -226 q -64 -208 -81 -226 q -47 -151 -47 -190 q -66 -92 -47 -111 q -126 -74 -85 -74 q -268 -92 -196 -74 l -268 -7 q -125 11 -211 11 q 3 -27 -39 11 q 46 -150 46 -65 q 7 -272 46 -235 q -122 -310 -32 -310 l -236 -310 q -414 -229 -343 -310 l -551 -82 l -426 -82 l -343 -169 q -286 -215 -310 -204 q -229 -226 -262 -226 z "},"ू":{"ha":0,"x_min":-343,"x_max":249,"o":"m -169 -314 q -301 -276 -260 -314 q -343 -154 -343 -239 q -305 -31 -343 -69 q -176 7 -267 7 l -124 7 q -10 -15 -54 7 q 75 -87 33 -36 l 249 -304 l 131 -304 l 10 -154 q -55 -92 -29 -108 q -132 -76 -81 -76 l -165 -76 q -234 -94 -218 -76 q -250 -153 -250 -112 q -233 -211 -250 -193 q -167 -229 -215 -229 q -51 -212 -118 -229 l -51 -297 q -169 -314 -135 -314 z "},"ृ":{"ha":0,"x_min":-407,"x_max":-93,"o":"m -99 -62 q -207 -50 -153 -50 q -285 -68 -261 -50 q -310 -146 -310 -86 q -285 -226 -310 -206 q -222 -246 -260 -246 q -93 -233 -165 -246 l -93 -324 q -212 -336 -146 -336 q -407 -146 -407 -336 q -358 -3 -407 -46 q -212 40 -308 40 q -99 28 -154 40 l -99 -62 z "},"ॄ":{"ha":0,"x_min":-407,"x_max":-85,"o":"m -306 -386 l -306 -392 q -284 -453 -306 -437 q -201 -468 -262 -468 q -85 -460 -139 -468 l -85 -549 q -219 -558 -137 -558 q -406 -387 -406 -558 q -358 -260 -406 -301 q -407 -133 -407 -218 q -218 40 -407 40 q -100 29 -200 40 l -100 -58 q -125 -56 -106 -58 q -216 -47 -168 -47 q -285 -67 -264 -47 q -307 -133 -307 -86 l -307 -137 q -285 -199 -306 -185 q -221 -214 -265 -214 l -126 -214 l -126 -301 l -212 -301 q -285 -321 -264 -301 q -306 -386 -306 -340 z "},"ॅ":{"ha":0,"x_min":-376,"x_max":82,"o":"m -14 1172 l 82 1172 l 82 1169 q 25 1035 82 1075 q -147 994 -32 994 q -319 1035 -262 994 q -376 1169 -376 1075 l -376 1172 l -279 1172 q -249 1101 -279 1121 q -147 1082 -218 1082 q -44 1101 -75 1082 q -14 1172 -14 1121 z "},"ॆ":{"ha":0,"x_min":-550,"x_max":-96,"o":"m -193 906 q -221 992 -193 963 q -324 1022 -249 1022 q -497 1071 -443 1022 q -550 1224 -550 1119 l -453 1224 q -424 1137 -453 1167 q -321 1107 -396 1107 q -150 1057 -204 1107 q -96 906 -96 1007 l -193 906 z "},"े":{"ha":0,"x_min":-446,"x_max":-96,"o":"m -446 1221 q -383 1224 -421 1224 q -242 1131 -304 1224 l -96 906 l -200 906 l -315 1082 q -410 1138 -351 1138 q -446 1135 -424 1138 l -446 1221 z "},"ै":{"ha":0,"x_min":-581,"x_max":-96,"o":"m -292 1224 q -160 1115 -193 1224 l -96 906 l -186 906 l -237 1072 q -262 1122 -249 1107 q -299 1136 -275 1136 q -332 1135 -324 1136 l -332 1221 q -292 1224 -310 1224 m -581 1221 q -519 1224 -556 1224 q -378 1126 -444 1224 l -231 906 l -332 906 l -450 1082 q -544 1138 -489 1138 q -581 1135 -558 1138 l -581 1221 z "},"ॉ":{"ha":292,"x_min":-81,"x_max":378,"o":"m 281 1176 l 378 1176 l 378 1174 q 321 1039 378 1079 q 149 999 264 999 q -24 1039 33 999 q -81 1174 -81 1079 l -81 1176 l 17 1176 q 47 1106 17 1125 q 148 1086 76 1086 q 250 1106 219 1086 q 281 1176 281 1125 m 96 819 l -36 819 l -36 906 l 328 906 l 328 819 l 196 819 l 196 0 l 96 0 l 96 819 z "},"ॊ":{"ha":292,"x_min":-258,"x_max":328,"o":"m 96 819 l -36 819 l -36 906 l 97 906 q 69 992 97 963 q -33 1022 40 1022 q -205 1071 -151 1022 q -258 1224 -258 1119 l -162 1224 q -134 1137 -162 1167 q -31 1107 -106 1107 q 140 1057 86 1107 q 194 906 194 1007 l 328 906 l 328 819 l 196 819 l 196 0 l 96 0 l 96 819 z "},"ो":{"ha":292,"x_min":-154,"x_max":328,"o":"m 328 906 l 328 819 l 196 819 l 196 0 l 96 0 l 96 819 l -36 819 l -36 906 l 92 906 l -24 1082 q -118 1138 -60 1138 q -154 1135 -132 1138 l -154 1221 q -93 1224 -129 1224 q 50 1131 -10 1224 l 196 906 l 328 906 z "},"ौ":{"ha":292,"x_min":-293,"x_max":328,"o":"m 328 906 l 328 819 l 196 819 l 196 0 l 96 0 l 96 819 l -104 819 l -104 906 l -44 906 l -161 1082 q -257 1138 -200 1138 q -293 1135 -271 1138 l -293 1221 q -231 1224 -265 1224 q -89 1126 -156 1224 l 57 906 l 101 906 l 50 1072 q 26 1122 39 1107 q -11 1136 13 1136 q -44 1135 -35 1136 l -44 1221 q -4 1224 -19 1224 q 128 1115 94 1224 l 192 906 l 328 906 z "},"्":{"ha":0,"x_min":-189,"x_max":53,"o":"m 53 -292 l -56 -292 l -189 -81 l -97 -81 l 53 -292 z "},"ॐ":{"ha":1081,"x_min":65,"x_max":1015,"o":"m 604 354 l 604 726 q 810 913 604 913 q 1015 728 1015 913 l 1015 214 q 954 49 1015 104 q 757 -7 893 -7 q 639 4 700 -7 l 639 97 q 774 88 697 88 q 885 119 851 88 q 918 218 918 151 l 918 725 q 894 794 918 769 q 810 819 871 819 q 726 794 749 819 q 703 725 703 769 l 703 308 q 693 276 703 286 q 658 267 683 267 l 447 267 l 447 186 q 390 44 447 94 q 219 -7 333 -7 q 65 13 143 -7 l 65 107 q 219 85 144 85 q 349 189 349 85 l 349 310 q 326 386 349 360 q 238 413 303 413 l 154 413 l 154 506 l 238 506 q 326 533 304 507 q 349 608 349 558 l 349 717 q 219 819 349 819 q 81 796 151 819 l 81 893 q 219 913 142 913 q 390 862 333 913 q 447 719 447 811 l 447 608 q 378 460 447 490 q 444 354 433 435 l 604 354 m 758 1133 l 758 1131 q 701 997 758 1038 q 529 956 644 956 q 357 997 414 956 q 300 1131 300 1038 l 300 1133 l 397 1133 q 427 1063 397 1082 q 528 1043 457 1043 q 631 1063 600 1043 q 661 1133 661 1082 l 758 1133 m 590 1190 q 590 1159 590 1190 q 529 1129 590 1129 q 468 1190 468 1129 q 529 1250 468 1250 q 590 1190 590 1250 z "},"॑":{"ha":0,"x_min":-196,"x_max":-96,"o":"m -196 1301 l -96 1301 l -96 972 l -196 972 l -196 1301 z "},"॒":{"ha":0,"x_min":-579,"x_max":-29,"o":"m -29 -197 l -579 -197 l -579 -111 l -29 -111 l -29 -197 z "},"॓":{"ha":468,"x_min":85,"x_max":342,"o":"m 85 1301 l 190 1301 l 342 972 l 235 972 l 85 1301 z "},"॔":{"ha":457,"x_min":85,"x_max":342,"o":"m 235 1301 l 342 1301 l 190 972 l 85 972 l 235 1301 z "},"क़":{"ha":819,"x_min":-31,"x_max":856,"o":"m 163 -87 q 131 -87 163 -87 q 100 -25 100 -87 q 163 38 100 38 q 225 -25 225 38 q 163 -87 225 -87 m 367 819 l -31 819 l -31 906 l 856 906 l 856 819 l 465 819 l 465 689 q 561 701 503 701 q 758 524 758 701 l 758 278 q 583 100 758 100 q 551 101 558 100 l 551 196 q 575 194 558 194 q 643 217 625 194 q 661 283 661 239 l 661 521 q 553 613 661 613 q 465 600 503 613 l 465 0 l 367 0 l 367 106 q 265 93 304 93 q 67 268 67 93 l 67 522 q 265 700 67 700 q 306 696 293 700 l 306 608 q 272 611 289 611 q 164 519 164 611 l 164 271 q 272 181 164 181 q 367 193 324 181 l 367 819 z "},"ख़":{"ha":1024,"x_min":-36,"x_max":1060,"o":"m 360 726 q 343 819 360 781 l -36 819 l -36 906 l 1060 906 l 1060 819 l 928 819 l 928 0 l 829 0 l 829 185 q 725 172 785 172 q 578 217 624 172 q 532 350 532 261 l 532 517 q 576 652 532 607 q 722 697 621 697 q 829 685 767 697 l 829 819 l 440 819 q 456 726 456 788 l 456 557 q 253 354 456 354 q 163 363 213 354 l 163 249 q 379 86 163 86 q 569 111 481 86 l 569 17 q 375 -6 483 -6 q 148 56 231 -6 q 65 247 65 118 l 65 615 l 163 615 l 163 453 q 249 444 213 444 q 360 558 360 444 l 360 726 m 829 596 q 725 607 779 607 q 649 584 671 607 q 626 517 626 561 l 626 350 q 649 283 626 306 q 733 260 671 260 q 829 272 794 260 l 829 596 m 52 -153 q 21 -153 52 -153 q -10 -90 -10 -153 q 52 -28 -10 -28 q 114 -90 114 -28 q 52 -153 114 -153 z "},"ग़":{"ha":671,"x_min":-33,"x_max":707,"o":"m 40 361 l 81 358 q 175 450 175 358 l 175 819 l -33 819 l -33 906 l 707 906 l 707 819 l 575 819 l 575 0 l 475 0 l 475 819 l 275 819 l 275 446 q 228 312 275 361 q 93 263 182 263 q 40 267 65 263 l 40 361 m 86 83 q 86 115 86 83 q 149 146 86 146 q 211 83 211 146 q 149 21 211 21 q 86 83 86 21 z "},"ज़":{"ha":771,"x_min":-36,"x_max":807,"o":"m 297 486 q 285 579 297 544 l 133 579 l 133 669 l 575 669 l 575 819 l -36 819 l -36 906 l 807 906 l 807 819 l 675 819 l 675 0 l 575 0 l 575 583 l 386 583 q 397 490 397 551 l 397 254 q 341 110 397 160 q 176 60 285 60 q 49 75 106 60 l 49 168 q 175 151 115 151 q 297 256 297 151 l 297 486 m 57 -131 q 26 -131 57 -131 q -6 -68 -6 -131 q 57 -6 -6 -6 q 119 -68 119 -6 q 57 -131 119 -131 z "},"ड़":{"ha":575,"x_min":-36,"x_max":610,"o":"m 511 222 l 511 176 q 268 -10 511 -10 q 79 11 169 -10 l 79 107 q 268 83 161 83 q 411 178 411 83 l 411 221 q 388 286 411 264 q 301 308 364 308 l 275 308 q 68 479 68 308 l 68 531 q 275 701 68 701 l 371 701 l 371 819 l -36 819 l -36 906 l 610 906 l 610 819 l 471 819 l 471 611 l 275 611 q 192 590 215 611 q 168 526 168 568 l 168 482 q 192 419 168 440 q 275 397 215 397 l 301 397 q 511 222 511 397 m 290 -243 q 259 -243 290 -243 q 228 -181 228 -243 q 290 -118 228 -118 q 353 -181 353 -118 q 290 -243 353 -243 z "},"ढ़":{"ha":569,"x_min":-36,"x_max":604,"o":"m 290 -243 q 259 -243 290 -243 q 228 -181 228 -243 q 290 -118 228 -118 q 353 -181 353 -118 q 290 -243 353 -243 m 329 331 q 272 319 294 331 l 272 410 q 340 421 300 421 q 463 378 418 421 q 508 246 508 335 l 508 185 q 291 -7 508 -7 q 74 188 74 -7 l 74 519 q 282 699 74 699 l 365 699 l 365 819 l -36 819 l -36 906 l 604 906 l 604 819 l 464 819 l 464 606 l 282 606 q 196 583 219 606 q 172 517 172 561 l 172 189 q 199 113 172 139 q 292 86 225 86 q 385 113 358 86 q 411 189 411 139 l 411 244 q 329 331 411 331 z "},"फ़":{"ha":844,"x_min":-36,"x_max":881,"o":"m 385 819 l 175 819 l 175 347 q 293 253 175 253 q 385 264 340 253 l 385 819 m 683 513 q 585 601 683 601 q 483 588 533 601 l 483 0 l 385 0 l 385 175 q 285 161 325 161 q 128 209 181 161 q 75 344 75 257 l 75 819 l -36 819 l -36 906 l 881 906 l 881 819 l 483 819 l 483 679 q 586 694 531 694 q 733 647 683 694 q 783 514 783 599 l 783 267 q 599 89 783 89 l 589 89 q 575 90 583 89 l 575 183 q 660 204 636 182 q 683 272 683 226 l 683 513 m 113 -54 q 81 -54 113 -54 q 50 8 50 -54 q 113 71 50 71 q 175 8 175 71 q 113 -54 175 -54 z "},"य़":{"ha":700,"x_min":-36,"x_max":735,"o":"m 253 726 q 242 819 253 781 l -36 819 l -36 906 l 735 906 l 735 819 l 603 819 l 603 0 l 503 0 l 503 133 q 353 118 432 118 q 151 174 228 118 q 75 358 75 231 l 75 535 l 104 535 q 222 555 190 535 q 253 635 253 575 l 253 726 m 351 726 l 351 624 q 174 458 351 461 l 174 367 q 218 249 174 288 q 344 211 263 211 q 503 226 426 211 l 503 819 l 340 819 q 351 726 351 786 m 120 -65 q 89 -65 120 -65 q 58 -3 58 -65 q 120 60 58 60 q 182 -3 182 60 q 120 -65 182 -65 z "},"ॠ":{"ha":960,"x_min":-36,"x_max":996,"o":"m 996 819 l 533 819 l 533 588 q 694 585 631 585 q 785 609 758 585 q 813 685 813 633 l 813 697 l 910 697 l 910 336 l 844 336 q 770 315 792 336 q 749 242 749 294 q 858 153 749 153 l 889 153 l 889 67 l 840 67 q 771 51 793 67 q 749 -19 749 35 q 772 -88 749 -72 q 867 -104 794 -104 q 951 -101 940 -104 l 951 -189 q 836 -192 926 -192 q 698 -153 746 -192 q 650 -23 650 -114 q 706 110 650 68 q 651 242 651 153 q 691 369 651 331 q 815 410 731 407 l 815 532 q 703 490 775 490 q 533 493 631 490 l 533 0 l 436 0 l 436 153 q 440 343 436 321 l 439 343 q 408 304 438 339 q 346 233 364 253 l 179 60 l 49 60 l 433 460 l 433 499 q 296 599 433 599 q 187 570 218 599 q 156 485 156 542 l 156 401 l 57 401 l 57 488 q 288 690 57 690 q 433 649 399 690 l 433 819 l -36 819 l -36 906 l 996 906 l 996 819 z "},"ॡ":{"ha":864,"x_min":-36,"x_max":900,"o":"m 768 261 l 679 261 q 606 241 628 261 q 585 173 585 221 q 605 110 585 125 q 671 94 625 94 l 740 94 l 740 4 l 679 4 q 608 -16 629 4 q 586 -83 586 -36 q 607 -147 586 -131 q 697 -162 628 -162 q 783 -161 767 -162 l 783 -250 q 672 -253 771 -253 q 485 -82 485 -253 q 535 47 485 6 q 485 174 485 86 q 668 347 485 344 l 668 494 q 568 575 668 575 q 468 483 468 575 l 468 368 l 368 368 l 368 483 q 268 575 368 575 q 190 551 211 575 q 168 481 168 526 l 168 219 q 198 124 168 157 q 306 90 228 90 l 350 90 l 350 0 l 303 0 q 68 217 68 0 l 68 482 q 118 619 68 571 q 270 668 168 668 q 417 604 372 668 q 565 668 464 668 q 668 638 640 668 l 668 819 l -36 819 l -36 906 l 900 906 l 900 819 l 768 819 l 768 261 z "},"।":{"ha":400,"x_min":204,"x_max":304,"o":"m 204 0 l 204 906 l 304 906 l 304 0 l 204 0 z "},"॥":{"ha":619,"x_min":146,"x_max":522,"o":"m 422 0 l 422 906 l 522 906 l 522 0 l 422 0 m 146 0 l 146 906 l 246 906 l 246 0 l 146 0 z "},"०":{"ha":622,"x_min":78,"x_max":544,"o":"m 435 725 q 311 851 435 851 q 188 725 188 851 l 188 211 q 311 85 188 85 q 435 211 435 85 l 435 725 m 78 726 q 135 889 78 828 q 311 950 193 950 q 487 889 429 950 q 544 726 544 828 l 544 208 q 487 47 544 107 q 311 -14 429 -14 q 135 47 193 -14 q 78 208 78 107 l 78 726 z "},"१":{"ha":392,"x_min":15,"x_max":299,"o":"m 299 936 l 299 0 l 189 0 l 189 819 l 15 694 l 15 817 l 181 936 l 299 936 z "},"२":{"ha":563,"x_min":58,"x_max":500,"o":"m 249 943 q 499 742 499 943 l 499 663 q 474 537 497 585 q 392 449 450 489 l 282 371 q 192 291 215 324 q 169 197 169 258 l 169 100 l 500 100 l 500 0 l 58 0 l 58 204 q 94 341 58 290 q 204 443 131 392 l 318 525 q 374 586 358 554 q 389 672 389 618 l 389 735 q 359 815 389 788 q 244 842 329 842 q 74 813 158 842 l 74 918 q 249 943 149 943 z "},"३":{"ha":549,"x_min":36,"x_max":471,"o":"m 214 943 q 465 739 465 943 l 465 643 q 364 471 465 511 q 471 307 471 439 l 471 197 q 408 47 471 100 q 224 -7 346 -7 q 36 19 101 -7 l 36 125 q 207 93 118 93 q 328 121 296 93 q 361 204 361 149 l 361 296 q 236 419 361 419 l 140 419 l 140 519 l 236 519 q 330 552 303 519 q 357 646 357 585 l 357 733 q 326 815 357 788 q 208 843 294 843 q 54 819 121 843 l 54 924 q 214 943 117 943 z "},"४":{"ha":571,"x_min":14,"x_max":564,"o":"m 564 269 l 564 174 l 469 174 l 469 0 l 364 0 l 364 174 l 14 174 l 14 274 l 307 936 l 469 936 l 469 269 l 564 269 m 367 269 l 367 842 l 115 269 l 367 269 z "},"५":{"ha":585,"x_min":78,"x_max":514,"o":"m 83 936 l 492 936 l 492 835 l 192 835 l 192 553 q 303 560 258 560 q 462 505 410 560 q 514 351 514 450 l 514 196 q 451 47 514 100 q 272 -7 388 -7 q 78 22 156 -7 l 78 128 q 256 93 176 93 q 406 203 406 93 l 406 342 q 379 431 406 403 q 283 458 353 458 q 83 443 251 458 l 83 936 z "},"६":{"ha":606,"x_min":78,"x_max":544,"o":"m 435 381 q 318 490 435 490 q 188 460 242 490 l 188 210 q 311 83 188 83 q 435 210 435 83 l 435 381 m 78 719 q 140 881 78 819 q 333 943 203 943 q 510 918 428 943 l 510 814 q 335 842 436 842 q 188 713 188 842 l 188 560 q 340 588 246 588 q 489 535 433 588 q 544 386 544 483 l 544 208 q 487 47 544 107 q 311 -14 429 -14 q 135 47 193 -14 q 78 208 78 107 l 78 719 z "},"७":{"ha":465,"x_min":7,"x_max":433,"o":"m 7 936 l 433 936 l 433 849 l 338 551 q 281 336 299 425 q 264 138 264 247 l 264 0 l 153 0 l 153 143 q 171 347 153 256 q 229 561 189 438 l 315 836 l 7 836 l 7 936 z "},"८":{"ha":635,"x_min":78,"x_max":557,"o":"m 554 732 l 554 640 q 460 467 554 513 q 557 292 557 419 l 557 203 q 497 45 557 104 q 317 -14 436 -14 q 138 45 199 -14 q 78 203 78 104 l 78 292 q 175 467 78 419 q 82 640 82 514 l 82 732 q 140 891 82 832 q 317 950 199 950 q 495 891 436 950 q 554 732 554 832 m 190 732 l 190 638 q 318 511 190 511 q 446 638 446 511 l 446 732 q 318 854 446 854 q 190 732 190 854 m 449 204 l 449 294 q 317 421 449 421 q 186 294 186 421 l 186 204 q 317 82 186 82 q 449 204 449 82 z "},"९":{"ha":606,"x_min":61,"x_max":528,"o":"m 418 725 q 294 853 418 853 q 171 725 171 853 l 171 550 q 289 433 171 433 q 418 464 368 433 l 418 725 m 61 726 q 119 889 61 828 q 294 950 176 950 q 470 889 413 950 q 528 726 528 828 l 528 207 q 463 51 528 110 q 283 -7 399 -7 q 89 21 167 -7 l 89 125 q 269 93 174 93 q 418 214 418 93 l 418 365 q 268 338 364 338 q 117 392 172 338 q 61 543 61 446 l 61 726 z "},"॰":{"ha":524,"x_min":71,"x_max":460,"o":"m 181 549 q 170 534 181 549 q 160 460 160 518 q 181 372 160 401 q 265 342 203 342 q 349 372 326 342 q 371 460 371 401 q 349 549 371 518 q 265 581 326 581 q 181 549 203 581 m 264 258 q 71 462 71 258 q 264 665 71 665 q 460 462 460 665 q 264 258 460 258 z "},"ॲ":{"ha":788,"x_min":51,"x_max":869,"o":"m 774 1172 l 869 1172 l 869 1169 q 813 1035 869 1075 q 640 994 756 994 q 468 1035 525 994 q 411 1169 411 1075 l 411 1172 l 508 1172 q 539 1101 508 1121 q 641 1082 569 1082 q 743 1101 713 1082 q 774 1172 774 1121 m 590 383 l 590 906 l 822 906 l 822 819 l 690 819 l 690 0 l 590 0 l 590 296 l 433 296 l 433 240 q 376 99 433 149 q 220 49 319 49 q 51 68 121 49 l 51 163 q 206 140 131 140 q 335 243 335 140 l 335 339 q 313 415 335 389 q 224 443 290 442 l 140 443 l 140 536 l 224 536 q 313 562 290 536 q 335 638 335 588 l 335 717 q 206 819 335 819 q 67 796 138 819 l 67 893 q 206 913 128 913 q 376 862 319 913 q 433 719 433 811 l 433 638 q 364 489 433 519 q 431 383 418 465 l 590 383 z "},"ॽ":{"ha":606,"x_min":88,"x_max":535,"o":"m 88 597 l 88 726 q 141 876 88 819 q 311 932 194 932 q 481 876 428 932 q 535 726 535 819 l 535 474 q 338 269 535 276 l 338 0 l 242 0 l 242 360 l 311 360 q 410 393 385 361 q 435 478 435 425 l 435 725 q 410 808 435 776 q 312 839 385 839 q 213 808 239 839 q 188 725 188 776 l 188 597 l 88 597 z "},"​":{"ha":0,"x_min":0,"x_max":0,"o":""},"‌":{"ha":0,"x_min":-32,"x_max":33,"o":"m 33 -319 l -32 -319 l -32 1126 l 33 1126 l 33 -319 z "},"‍":{"ha":0,"x_min":-176,"x_max":179,"o":"m 33 -319 l -32 -319 l -32 882 l -128 781 l -174 826 l -44 956 l -176 1088 l -131 1133 l 1 1001 l 135 1133 l 179 1089 l 46 956 l 179 824 l 133 778 l 33 882 l 33 -319 z "},"–":{"ha":590,"x_min":56,"x_max":524,"o":"m 56 497 l 524 497 l 524 406 l 56 406 l 56 497 z "},"—":{"ha":913,"x_min":56,"x_max":840,"o":"m 56 497 l 840 497 l 840 407 l 56 407 l 56 497 z "},"‘":{"ha":228,"x_min":40,"x_max":188,"o":"m 90 708 q 40 758 40 708 q 131 993 40 826 l 188 993 l 131 708 l 90 708 z "},"’":{"ha":228,"x_min":40,"x_max":188,"o":"m 136 993 q 188 944 188 993 q 97 708 188 875 l 40 708 l 96 993 l 136 993 z "},"‚":{"ha":228,"x_min":40,"x_max":188,"o":"m 136 126 q 188 76 188 126 q 97 -158 188 8 l 40 -158 l 96 126 l 136 126 z "},"“":{"ha":389,"x_min":40,"x_max":350,"o":"m 90 708 q 40 758 40 708 q 131 993 40 826 l 183 993 l 126 708 l 90 708 m 257 708 q 207 758 207 708 q 297 993 207 826 l 350 993 l 293 708 l 257 708 z "},"”":{"ha":389,"x_min":40,"x_max":350,"o":"m 132 993 q 183 944 183 993 q 93 708 183 875 l 40 708 l 96 993 l 132 993 m 299 993 q 350 944 350 993 q 260 708 350 875 l 207 708 l 263 993 l 299 993 z "},"„":{"ha":389,"x_min":40,"x_max":350,"o":"m 132 126 q 183 76 183 126 q 93 -158 183 8 l 40 -158 l 96 126 l 132 126 m 299 126 q 350 76 350 126 q 260 -158 350 8 l 207 -158 l 263 126 l 299 126 z "},"†":{"ha":494,"x_min":63,"x_max":433,"o":"m 199 1089 l 297 1089 l 289 897 q 433 906 356 906 l 433 819 l 289 826 q 297 625 297 726 l 297 -40 l 199 -40 l 199 625 l 207 826 q 63 819 146 819 l 63 906 q 207 897 138 906 q 199 1089 199 999 z "},"‡":{"ha":496,"x_min":63,"x_max":433,"o":"m 199 1089 l 297 1089 l 289 897 q 433 906 350 906 l 433 819 l 289 826 q 289 221 293 526 q 433 229 350 229 l 433 143 l 289 150 q 297 -40 297 78 l 199 -40 q 207 150 199 64 q 63 143 146 143 l 63 229 q 207 221 138 229 q 207 826 203 526 q 63 819 146 819 l 63 906 q 207 897 138 906 q 199 1089 199 999 z "},"•":{"ha":372,"x_min":81,"x_max":289,"o":"m 185 350 q 133 350 185 350 q 81 454 81 350 q 185 558 81 558 q 289 454 289 558 q 185 350 289 350 z "},"…":{"ha":807,"x_min":78,"x_max":715,"o":"m 397 -1 q 366 -1 397 -1 q 335 61 335 -1 q 397 124 335 124 q 460 61 460 124 q 397 -1 460 -1 m 140 -1 q 109 -1 140 -1 q 78 61 78 -1 q 140 124 78 124 q 203 61 203 124 q 140 -1 203 -1 m 653 -1 q 622 -1 653 -1 q 590 61 590 -1 q 653 124 590 124 q 715 61 715 124 q 653 -1 715 -1 z "},"‰":{"ha":1176,"x_min":49,"x_max":1133,"o":"m 856 41 q 836 68 856 41 q 817 190 817 94 q 856 339 817 286 q 975 392 896 392 q 1094 339 1054 392 q 1133 190 1133 286 q 1094 41 1133 94 q 975 -12 1054 -12 q 856 41 896 -12 m 901 190 q 901 128 901 190 q 975 67 901 67 q 1049 190 1049 67 q 975 313 1049 313 q 901 190 901 313 m 443 190 q 601 392 443 392 q 720 339 681 392 q 760 190 760 286 q 720 41 760 94 q 601 -12 681 -12 q 483 41 522 -12 q 443 190 443 94 m 601 67 q 637 67 601 67 q 674 190 674 67 q 601 313 674 313 q 528 190 528 313 q 601 67 528 67 m 88 597 q 68 623 88 597 q 49 746 49 650 q 88 895 49 842 q 207 949 128 949 q 326 895 286 949 q 365 746 365 842 q 326 597 365 650 q 207 543 286 543 q 88 597 128 543 m 206 622 q 243 622 206 622 q 279 746 279 622 q 206 869 279 869 q 133 746 133 869 q 206 622 133 622 m 554 936 l 636 936 l 254 0 l 174 0 l 554 936 z "},"‹":{"ha":517,"x_min":106,"x_max":386,"o":"m 274 701 l 386 701 l 217 447 l 386 193 l 274 193 l 106 447 l 274 701 z "},"›":{"ha":493,"x_min":106,"x_max":386,"o":"m 106 701 l 218 701 l 386 447 l 218 193 l 106 193 l 275 447 l 106 701 z "},"⁄":{"ha":351,"x_min":-100,"x_max":451,"o":"m 372 936 l 451 936 l -21 0 l -100 0 l 372 936 z "},"⁴":{"ha":425,"x_min":21,"x_max":415,"o":"m 274 604 l 274 965 l 94 604 l 274 604 m 349 1028 l 349 604 l 415 604 l 415 535 l 349 535 l 349 401 l 274 401 l 274 535 l 21 535 l 21 607 l 229 1028 l 349 1028 z "},"€":{"ha":574,"x_min":21,"x_max":515,"o":"m 204 343 l 204 200 q 237 119 204 146 q 351 92 269 92 q 515 115 433 92 l 515 15 q 333 -7 446 -7 q 156 45 219 -7 q 93 193 93 97 l 93 343 l 21 343 l 21 421 l 93 421 l 93 528 l 21 528 l 21 607 l 93 607 l 93 742 q 157 890 93 838 q 350 943 221 943 q 513 921 432 943 l 513 819 q 354 843 439 843 q 237 816 269 843 q 204 736 204 789 l 204 607 l 410 607 l 410 528 l 204 528 l 204 421 l 410 421 l 410 343 l 204 343 z "},"₹":{"ha":639,"x_min":68,"x_max":581,"o":"m 581 906 l 581 819 l 414 819 q 461 722 461 789 l 461 688 l 581 688 l 581 608 l 461 608 l 461 585 q 408 427 461 475 q 229 379 354 379 l 182 379 l 471 0 l 353 0 l 68 379 l 68 468 l 228 468 q 338 494 310 468 q 365 586 365 521 l 365 608 l 69 608 l 69 688 l 365 688 l 365 724 q 246 819 365 819 l 68 819 l 68 906 l 581 906 z "},"ℓ":{"ha":543,"x_min":22,"x_max":499,"o":"m 224 179 q 246 112 224 132 q 315 92 268 92 q 407 108 363 92 l 407 8 q 303 -7 353 -7 q 117 174 117 -7 l 117 210 q 22 140 93 192 l 22 265 q 117 339 111 335 l 117 801 q 165 958 117 904 q 306 1011 214 1011 q 449 952 399 1011 q 499 782 499 893 q 224 294 499 528 l 224 179 m 224 803 l 224 436 q 390 782 390 606 q 307 908 390 908 q 224 803 224 908 z "},"™":{"ha":782,"x_min":107,"x_max":686,"o":"m 686 975 l 686 644 l 625 644 l 625 814 l 640 949 l 557 644 l 508 644 l 425 949 l 440 814 l 440 644 l 379 644 l 379 975 l 469 975 l 521 785 l 532 721 l 544 785 l 596 975 l 686 975 m 107 922 l 107 975 l 349 975 l 349 922 l 260 922 l 260 644 l 197 644 l 197 922 l 107 922 z "},"Ω":{"ha":682,"x_min":54,"x_max":629,"o":"m 100 726 q 161 888 100 826 q 342 950 222 950 q 522 889 461 950 q 582 726 582 828 l 582 221 q 531 96 582 129 l 629 96 l 629 0 l 392 0 l 392 96 q 474 213 474 107 l 474 724 q 342 850 474 850 q 210 724 210 850 l 210 213 q 292 96 210 107 l 292 0 l 54 0 l 54 96 l 153 96 q 100 221 100 129 l 100 726 z "},"℮":{"ha":929,"x_min":82,"x_max":854,"o":"m 667 654 q 477 708 593 708 q 282 647 361 708 l 282 421 l 667 421 l 667 654 m 854 394 l 853 357 l 282 357 l 282 113 q 475 53 367 53 q 775 201 690 53 l 832 168 q 486 -14 726 -14 q 192 95 303 -14 q 82 378 82 204 q 192 663 82 551 q 478 774 301 774 q 754 670 654 774 q 854 394 854 567 z "},"∂":{"ha":629,"x_min":85,"x_max":543,"o":"m 314 531 q 192 407 192 531 l 192 207 q 314 85 192 85 q 436 207 436 85 l 436 488 q 314 531 396 531 m 543 426 l 543 206 q 486 47 543 106 q 314 -12 429 -12 q 142 47 199 -12 q 85 206 85 106 l 85 410 q 137 563 85 507 q 281 619 189 619 q 417 576 374 619 q 207 936 365 776 l 343 936 q 479 720 415 857 q 543 426 543 583 z "},"∆":{"ha":654,"x_min":86,"x_max":578,"o":"m 393 936 l 578 0 l 86 0 l 272 936 l 393 936 m 332 797 l 199 97 l 464 97 l 332 797 z "},"∏":{"ha":664,"x_min":92,"x_max":572,"o":"m 92 936 l 572 936 l 572 0 l 461 0 l 461 839 l 203 839 l 203 0 l 92 0 l 92 936 z "},"∑":{"ha":536,"x_min":39,"x_max":492,"o":"m 39 936 l 492 936 l 492 840 l 157 840 l 326 468 l 157 94 l 492 94 l 492 0 l 39 0 l 39 93 l 211 468 l 39 843 l 39 936 z "},"−":{"ha":615,"x_min":56,"x_max":558,"o":"m 56 497 l 558 497 l 558 406 l 56 406 l 56 497 z "},"∕":{"ha":351,"x_min":-56,"x_max":407,"o":"m 325 936 l 407 936 l 26 0 l -56 0 l 325 936 z "},"∙":{"ha":222,"x_min":44,"x_max":176,"o":"m 110 400 q 77 400 110 400 q 44 467 44 400 q 110 535 44 535 q 176 467 176 535 q 110 400 176 400 z "},"√":{"ha":592,"x_min":46,"x_max":564,"o":"m 46 360 l 46 456 l 204 456 l 294 108 l 457 936 l 564 936 l 371 0 l 218 0 l 124 360 l 46 360 z "},"∞":{"ha":883,"x_min":61,"x_max":822,"o":"m 638 675 q 781 620 740 675 q 822 467 822 565 q 781 313 822 368 q 636 257 740 257 q 440 390 532 257 q 245 258 349 258 q 101 313 142 258 q 61 467 61 368 q 102 620 61 565 q 244 675 143 675 q 352 640 307 675 q 442 542 397 604 q 531 640 485 604 q 638 675 576 675 m 158 465 q 158 435 158 465 q 174 378 158 406 q 240 351 190 351 q 322 381 289 351 q 390 465 354 410 q 322 551 354 521 q 240 581 289 581 q 174 553 190 581 q 158 465 158 525 m 492 467 q 561 381 529 410 q 643 351 593 351 q 709 378 693 351 q 725 465 725 406 q 708 553 725 525 q 642 581 692 581 q 561 552 593 581 q 492 467 529 524 z "},"∫":{"ha":382,"x_min":22,"x_max":329,"o":"m 121 935 q 175 1081 121 1031 q 329 1128 229 1131 l 329 1032 q 255 1010 279 1032 q 231 936 231 988 l 231 1 q 176 -144 231 -94 q 22 -192 122 -194 l 22 -96 q 97 -74 72 -96 q 121 0 121 -51 l 121 935 z "},"≈":{"ha":665,"x_min":57,"x_max":610,"o":"m 610 613 q 578 518 610 553 q 394 500 518 456 l 265 556 q 177 566 213 582 q 151 493 142 550 l 61 493 q 57 538 57 515 q 89 632 57 597 q 272 650 149 694 l 401 596 q 490 584 456 568 q 515 658 525 600 l 606 658 q 610 613 610 638 m 610 393 q 578 299 610 333 q 394 281 518 236 l 265 335 q 177 346 213 361 q 151 274 142 331 l 61 274 q 57 318 57 294 q 89 413 57 378 q 272 431 149 475 l 401 376 q 490 364 456 349 q 515 438 525 379 l 606 438 q 610 393 610 417 z "},"≠":{"ha":629,"x_min":63,"x_max":565,"o":"m 565 532 l 394 532 l 326 371 l 565 371 l 565 279 l 289 279 l 232 144 l 144 144 l 201 279 l 63 279 l 63 371 l 239 371 l 307 532 l 63 532 l 63 622 l 344 622 l 403 761 l 490 761 l 432 622 l 565 622 l 565 532 z "},"≤":{"ha":635,"x_min":61,"x_max":564,"o":"m 564 739 l 564 642 l 149 488 l 564 335 l 564 236 l 61 431 l 61 543 l 564 739 m 61 113 l 61 203 l 564 203 l 564 113 l 61 113 z "},"≥":{"ha":635,"x_min":71,"x_max":574,"o":"m 71 739 l 574 543 l 574 431 l 71 236 l 71 335 l 486 488 l 71 642 l 71 739 m 71 113 l 71 203 l 574 203 l 574 113 l 71 113 z "},"◊":{"ha":589,"x_min":46,"x_max":544,"o":"m 433 396 l 294 721 l 157 396 l 294 69 l 433 396 m 222 793 l 368 793 l 544 396 l 368 0 l 222 0 l 46 396 l 222 793 z "},"◌":{"ha":917,"x_min":61,"x_max":856,"o":"m 374 733 q 366 742 374 733 q 357 778 357 750 q 374 822 357 806 q 418 839 392 839 q 462 822 444 839 q 479 778 479 806 q 462 733 479 750 q 418 717 444 717 q 374 733 392 717 m 594 696 q 581 696 594 696 q 550 714 568 696 q 532 758 532 732 q 549 801 532 783 q 594 819 567 819 q 638 802 621 819 q 654 758 654 785 q 637 714 654 732 q 594 696 619 696 m 681 619 q 673 627 681 619 q 664 663 664 636 q 681 707 664 689 q 725 725 699 725 q 769 708 751 725 q 786 663 786 690 q 769 619 786 636 q 725 601 751 601 q 681 619 699 601 m 750 455 q 742 464 750 455 q 733 499 733 472 q 750 542 733 525 q 794 560 767 560 q 838 542 821 560 q 856 499 856 525 q 838 455 856 472 q 794 438 821 438 q 750 455 767 438 m 738 269 q 728 277 738 269 q 719 313 719 286 q 738 357 719 339 q 781 375 756 375 q 824 357 807 375 q 842 313 842 339 q 824 269 842 286 q 781 251 807 251 q 738 269 756 251 m 635 133 q 627 141 635 133 q 618 176 618 150 q 635 220 618 203 q 679 238 653 238 q 724 220 706 238 q 742 176 742 203 q 724 133 742 150 q 679 115 706 115 q 635 133 653 115 m 467 58 q 458 67 467 58 q 450 103 450 75 q 467 147 450 131 q 511 164 483 164 q 556 147 539 164 q 574 103 574 129 q 556 59 574 76 q 511 42 539 42 q 467 58 483 42 m 336 61 q 323 61 336 61 q 292 79 310 61 q 274 124 274 97 q 292 168 274 150 q 336 186 310 186 q 380 168 363 186 q 397 124 397 150 q 380 79 397 97 q 336 61 363 61 m 150 185 q 142 194 150 185 q 133 229 133 203 q 151 273 133 256 q 194 290 168 290 q 238 273 221 290 q 256 229 256 256 q 238 185 256 203 q 194 168 221 168 q 150 185 167 168 m 78 347 q 70 356 78 347 q 61 390 61 364 q 78 435 61 417 q 122 453 96 453 q 166 435 149 453 q 183 391 183 418 q 166 347 183 364 q 122 331 149 331 q 78 347 96 331 m 97 522 q 88 530 97 522 q 79 565 79 539 q 97 609 79 592 q 142 626 115 626 q 186 609 168 626 q 204 565 204 592 q 186 522 204 539 q 142 504 168 504 q 97 522 115 504 m 254 656 q 241 656 254 656 q 210 673 228 656 q 193 717 193 690 q 210 762 193 744 q 254 779 228 779 q 298 762 281 779 q 315 717 315 744 q 298 673 315 690 q 254 656 281 656 z "},"":{"ha":486,"x_min":185,"x_max":301,"o":"m 263 -85 q 301 -122 301 -85 q 235 -258 301 -158 l 185 -258 l 221 -85 l 263 -85 z "},"ﬁ":{"ha":664,"x_min":42,"x_max":572,"o":"m 572 793 l 572 0 l 463 0 l 463 701 l 231 701 l 231 0 l 121 0 l 121 701 l 42 701 l 42 793 l 121 793 l 121 828 q 367 1025 121 1025 q 542 1006 458 1025 l 542 913 q 383 933 469 933 q 263 908 296 933 q 231 829 231 883 l 231 793 l 572 793 z "},"ﬂ":{"ha":664,"x_min":42,"x_max":572,"o":"m 572 1004 l 572 0 l 464 0 l 464 926 q 356 935 418 935 q 262 910 293 935 q 231 829 231 885 l 231 793 l 363 793 l 363 701 l 231 701 l 231 0 l 121 0 l 121 701 l 42 701 l 42 793 l 121 793 l 121 828 q 360 1025 121 1025 q 526 1004 446 1025 l 572 1004 z "}}}
